<?xml version="1.0" standalone="no"?>
<!DOCTYPE svg PUBLIC "-//W3C//DTD SVG 1.1//EN" "http://www.w3.org/Graphics/SVG/1.1/DTD/svg11.dtd" >
<svg xmlns="http://www.w3.org/2000/svg" xmlns:xlink="http://www.w3.org/1999/xlink" version="1.1">
<metadata>
Created by FontForge 20161013 at Mon Apr  4 15:24:49 2016
 By ,,,
Copyright 2010 The Amirim Project Authors, with Reserved Font Name 'Source'. Source is a trademark of Adobe Systems Incorporated in the United States and/or other countries.
</metadata>
<defs>
<font id="Assistant-Light" horiz-adv-x="482" >
  <font-face 
    font-family="Assistant Light"
    font-weight="300"
    font-stretch="normal"
    units-per-em="1000"
    panose-1="0 0 4 0 0 0 0 0 0 0"
    ascent="800"
    descent="-200"
    x-height="481"
    cap-height="659"
    bbox="-453 -253 1125 1021"
    underline-thickness="50"
    underline-position="-150"
    unicode-range="U+0020-FB4B"
  />
<missing-glyph horiz-adv-x="636" 
d="M93 660h450v-660h-450v660zM320 375l52 92l83 149h-275l82 -149l54 -92h4zM285 340l-143 255v-506zM492 595l-141 -255l141 -251v506zM467 43l-89 158l-58 104h-4l-60 -104l-90 -158h301z" />
    <glyph glyph-name="fi" unicode="fi" horiz-adv-x="500" 
d="M150 580v-99h109v-44h-109v-437h-52v437h-66v40l66 4v102q0 71 31.5 109t91.5 38q37 0 72 -16l-13 -41q-27 13 -56 13q-74 0 -74 -106zM358 481h52v-481h-52v481zM356 606.5q-12 12.5 -12 31.5q0 18 12 30t29 12t29 -12t12 -30q0 -19 -12 -31.5t-29 -12.5t-29 12.5z" />
    <glyph glyph-name="fl" unicode="fl" horiz-adv-x="508" 
d="M150 580v-99h109v-44h-109v-437h-52v437h-66v40l66 4v102q0 71 31.5 109t91.5 38q37 0 72 -16l-13 -41q-27 13 -56 13q-74 0 -74 -106zM358 71v647h52v-653q0 -16 6 -24t15 -8q8 0 18 2l8 -42q-3 -1 -12.5 -3t-22.5 -2q-64 0 -64 83z" />
    <glyph glyph-name=".notdef" horiz-adv-x="636" 
d="M93 660h450v-660h-450v660zM320 375l52 92l83 149h-275l82 -149l54 -92h4zM285 340l-143 255v-506zM492 595l-141 -255l141 -251v506zM467 43l-89 158l-58 104h-4l-60 -104l-90 -158h301z" />
    <glyph glyph-name=".null" horiz-adv-x="0" 
 />
    <glyph glyph-name="nonmarkingreturn" horiz-adv-x="333" 
 />
    <glyph glyph-name="space" unicode=" " horiz-adv-x="200" 
 />
    <glyph glyph-name="exclam" unicode="!" horiz-adv-x="265" 
d="M107 595l-1 75h53l-1 -75l-7 -412h-37zM100 1.5q-13 13.5 -13 34.5q0 23 13 36.5t32 13.5t32.5 -14t13.5 -36q0 -21 -13.5 -34.5t-32.5 -13.5t-32 13.5z" />
    <glyph glyph-name="quotedbl" unicode="&#x22;" horiz-adv-x="373" 
d="M83 619l-1 74h59l-1 -74l-10 -150h-36zM231 619l-1 74h59l-1 -74l-10 -150h-36z" />
    <glyph glyph-name="numbersign" unicode="#" 
d="M118 212h-82v40h87l21 166h-88v40h91l26 192h38l-25 -192h146l25 192h39l-25 -192h81v-40h-85l-21 -166h86v-40h-91l-25 -212h-39l26 212h-147l-25 -212h-39zM308 252l21 166h-147l-20 -166h146z" />
    <glyph glyph-name="dollar" unicode="$" 
d="M379.5 41q-42.5 -44 -111.5 -52v-99h-42v99q-48 4 -91.5 25t-76.5 52l26 36q77 -69 160 -69q61 0 93.5 32t32.5 86q0 44 -19 74t-47 49t-74 42q-49 25 -77.5 44.5t-48.5 51.5t-20 80q0 63 39.5 106.5t102.5 51.5v99h42v-99q44 -3 76 -21.5t62 -50.5l-30 -31
q-32 32 -58.5 46t-68.5 14q-50 0 -82 -31.5t-32 -80.5q0 -37 17 -62t42.5 -41.5t68.5 -37.5q51 -25 83 -46.5t54 -59t22 -93.5q0 -70 -42.5 -114z" />
    <glyph glyph-name="percent" unicode="%" horiz-adv-x="807" 
d="M77 314q-38 54 -38 153q0 98 38 152t105 54q66 0 104 -54t38 -152q0 -99 -38 -153t-104 -54q-67 0 -105 54zM565 670h41l-367 -682h-41zM254.5 341q26.5 45 26.5 126q0 82 -26.5 126t-72.5 44q-47 0 -73.5 -44t-26.5 -126q0 -81 27 -126t73 -45t72.5 45zM521 42.5
q-38 54.5 -38 153.5q0 98 38 152t105 54q66 0 104 -54t38 -152q0 -99 -38 -153.5t-104 -54.5q-67 0 -105 54.5zM698.5 69.5q26.5 45.5 26.5 126.5t-26.5 125.5t-72.5 44.5t-72.5 -44.5t-26.5 -125.5t26.5 -126.5t72.5 -45.5t72.5 45.5z" />
    <glyph glyph-name="ampersand" unicode="&#x26;" horiz-adv-x="581" 
d="M552 -12q-67 22 -143 81q-81 -81 -182 -81q-53 0 -97 22.5t-69 63.5t-25 94q0 58 34.5 102t98.5 91q-44 90 -44 161q0 64 39 106t100 42q54 0 84 -33.5t30 -87.5q0 -40 -20.5 -73.5t-49.5 -59t-81 -64.5q33 -59 80.5 -116t99.5 -102q65 82 102 213h49q-41 -141 -117 -241
q67 -53 127 -73zM208 388q62 45 93.5 80t31.5 79q0 35 -17 59t-53 24q-42 0 -66.5 -30.5t-24.5 -76.5q0 -61 36 -135zM106.5 98q19.5 -32 52.5 -49.5t73 -17.5q73 0 143 67q-54 49 -102.5 107t-83.5 119q-49 -38 -75.5 -74t-26.5 -79q0 -41 19.5 -73z" />
    <glyph glyph-name="quotesingle" unicode="'" horiz-adv-x="225" 
d="M83 619l-1 74h59l-1 -74l-10 -150h-36z" />
    <glyph glyph-name="parenleft" unicode="(" horiz-adv-x="284" 
d="M120.5 39.5q-33.5 110.5 -33.5 238.5t33.5 238.5t98.5 214.5l31 -17q-59 -94 -89 -205.5t-30 -230.5t30 -230.5t89 -205.5l-31 -17q-65 104 -98.5 214.5z" />
    <glyph glyph-name="parenright" unicode=")" horiz-adv-x="284" 
d="M33 -158q59 94 89 205.5t30 230.5t-30 230.5t-89 205.5l32 17q65 -105 98.5 -215.5t33.5 -237.5t-33.5 -237.5t-98.5 -215.5z" />
    <glyph glyph-name="asterisk" unicode="*" horiz-adv-x="399" 
d="M104 476l55 89l-92 37l11 32l97 -25l7 103h35l7 -102l97 24l11 -32l-92 -37l55 -89l-29 -22l-66 84l-67 -84z" />
    <glyph glyph-name="plus" unicode="+" 
d="M218 309h-184v42h184v200h46v-200h184v-42h-184v-200h-46v200z" />
    <glyph glyph-name="comma" unicode="," horiz-adv-x="225" 
d="M156 65q15 -21 15 -56q0 -55 -29.5 -98.5t-78.5 -68.5l-15 34q36 19 57 49.5t22 71.5q-4 -1 -11 -1q-20 0 -33 11.5t-13 33.5q0 21 13.5 33t32.5 12q25 0 40 -21z" />
    <glyph glyph-name="hyphen" unicode="-" horiz-adv-x="301" 
d="M41 272h221v-44h-221v44z" />
    <glyph glyph-name="period" unicode="." horiz-adv-x="225" 
d="M80 1.5q-13 13.5 -13 34.5q0 23 13 36.5t32 13.5t32.5 -14t13.5 -36q0 -21 -13.5 -34.5t-32.5 -13.5t-32 13.5z" />
    <glyph glyph-name="slash" unicode="/" horiz-adv-x="356" 
d="M307 710h42l-298 -870h-42z" />
    <glyph glyph-name="zero" unicode="0" 
d="M98.5 75q-50.5 87 -50.5 247q0 159 50 244t143 85t143.5 -85.5t50.5 -243.5q0 -160 -51 -247t-143 -87t-142.5 87zM345 106q38 74 38 216q0 141 -38 213.5t-104 72.5t-104 -72.5t-38 -213.5q0 -142 38 -216t104 -74t104 74z" />
    <glyph glyph-name="one" unicode="1" horiz-adv-x="443" 
d="M52 45h150v518h-115v35q73 11 125 41h41v-594h138v-45h-339v45z" />
    <glyph glyph-name="two" unicode="2" 
d="M41 32q117 118 180.5 191t97.5 133t34 113q0 62 -34 100t-102 38q-41 0 -78.5 -22t-67.5 -60l-33 31q40 45 84.5 70t99.5 25q85 0 134 -49t49 -132q0 -60 -34 -122.5t-89.5 -127t-164.5 -179.5q72 4 108 4h211v-45h-395v32z" />
    <glyph glyph-name="three" unicode="3" 
d="M114.5 13q-48.5 25 -85.5 65l28 35q34 -37 75 -58.5t99 -21.5q64 0 105.5 37.5t41.5 98.5q0 67 -53 105.5t-166 38.5v44q102 0 148.5 36.5t46.5 97.5q0 53 -34 84.5t-91 31.5q-41 0 -78 -19t-66 -50l-30 35q82 78 175 78q78 0 127.5 -41.5t49.5 -114.5q0 -59 -32.5 -98
t-87.5 -58v-5q62 -13 103 -56.5t41 -108.5q0 -55 -26 -96t-71.5 -63t-101.5 -22q-69 0 -117.5 25z" />
    <glyph glyph-name="four" unicode="4" 
d="M452 188h-94v-188h-49v188h-292v32l292 419h49v-408h94v-43zM309 231v225q0 53 4 113h-4l-27 -43q-5 -8 -11.5 -17.5t-13.5 -21.5l-180 -256h232z" />
    <glyph glyph-name="five" unicode="5" 
d="M111.5 12q-47.5 24 -86.5 63l29 35q34 -36 74 -56.5t98 -20.5q42 0 77.5 21t56.5 58.5t21 86.5q0 75 -41.5 118t-110.5 43q-34 0 -59.5 -10t-57.5 -32l-33 21l23 300h299v-45h-253l-20 -223q26 16 52.5 24t58.5 8q86 0 140.5 -51t54.5 -150q0 -66 -29 -114.5t-76 -74
t-101 -25.5q-69 0 -116.5 24z" />
    <glyph glyph-name="six" unicode="6" 
d="M393 335.5q47 -50.5 47 -146.5q0 -58 -24 -103.5t-65 -71.5t-89 -26q-97 0 -153.5 79t-56.5 224q0 126 32 206.5t85 117t119 36.5q81 0 139 -63l-31 -34q-21 25 -49 39t-59 14q-82 0 -133.5 -73.5t-52.5 -234.5q34 41 75 64t84 23q85 0 132 -50.5zM327 51.5
q29 20.5 45.5 57t16.5 80.5q0 71 -33.5 113.5t-100.5 42.5q-37 0 -77 -23t-75 -72q7 -103 47.5 -161t112.5 -58q35 0 64 20.5z" />
    <glyph glyph-name="seven" unicode="7" 
d="M237 324.5q44 134.5 140 269.5h-333v45h396v-31q-75 -99 -116.5 -189.5t-59.5 -188t-23 -230.5h-55q7 190 51 324.5z" />
    <glyph glyph-name="eight" unicode="8" 
d="M139.5 11q-46.5 23 -73 63t-26.5 90q0 59 37 105t89 74v4q-40 27 -65 63.5t-25 82.5t22.5 82t61 56t85.5 20q81 0 127.5 -46.5t46.5 -120.5q0 -47 -28 -90.5t-62 -70.5v-4q52 -32 82 -68.5t30 -94.5q0 -47 -25 -85.5t-69.5 -60.5t-102.5 -22t-104.5 23zM371 482
q0 54 -34 91t-92 37q-52 0 -86 -33t-34 -84q0 -41 23 -69.5t56 -46.5t87 -40q80 66 80 145zM349 66q40 36 40 91q0 44 -25.5 74t-61 48t-104.5 45q-50 -30 -79 -69.5t-29 -87.5q0 -38 20 -69.5t55.5 -49.5t79.5 -18q64 0 104 36z" />
    <glyph glyph-name="nine" unicode="9" 
d="M373.5 572q56.5 -79 56.5 -224q0 -126 -32 -206.5t-85 -117t-119 -36.5q-83 0 -139 63l31 34q20 -25 48.5 -38.5t59.5 -13.5q82 0 133.5 73t52.5 234q-34 -41 -75 -64t-84 -23q-85 0 -132 50.5t-47 146.5q0 58 24 103.5t65 71.5t89 26q97 0 153.5 -79zM304 318
q40 23 75 71q-7 103 -47.5 161t-112.5 58q-35 0 -64 -20.5t-45.5 -57t-16.5 -80.5q0 -71 33.5 -113t100.5 -42q37 0 77 23z" />
    <glyph glyph-name="colon" unicode=":" horiz-adv-x="225" 
d="M80 379.5q-13 13.5 -13 34.5q0 23 13 36.5t32 13.5t32.5 -14t13.5 -36q0 -21 -13.5 -34.5t-32.5 -13.5t-32 13.5zM80 1.5q-13 13.5 -13 34.5q0 23 13 36.5t32 13.5t32.5 -14t13.5 -36q0 -21 -13.5 -34.5t-32.5 -13.5t-32 13.5z" />
    <glyph glyph-name="semicolon" unicode=";" horiz-adv-x="225" 
d="M80 379.5q-13 13.5 -13 34.5q0 23 13 36.5t32 13.5t32.5 -14t13.5 -36q0 -21 -13.5 -34.5t-32.5 -13.5t-32 13.5zM156 65q15 -21 15 -56q0 -55 -29.5 -98.5t-78.5 -68.5l-15 34q36 19 57 49.5t22 71.5q-4 -1 -11 -1q-20 0 -33 11.5t-13 33.5q0 21 13.5 33t32.5 12
q25 0 40 -21z" />
    <glyph glyph-name="less" unicode="&#x3c;" 
d="M34 308v48l414 165v-48l-361 -139v-4l361 -138v-49z" />
    <glyph glyph-name="equal" unicode="=" 
d="M34 454h414v-42h-414v42zM34 248h414v-42h-414v42z" />
    <glyph glyph-name="greater" unicode="&#x3e;" 
d="M34 192l361 138v4l-361 139v48l414 -165v-48l-414 -165v49z" />
    <glyph glyph-name="question" unicode="?" horiz-adv-x="407" 
d="M160 211q0 51 20 89t59 87q34 44 50 73.5t16 64.5q0 48 -28.5 80.5t-82.5 32.5q-35 0 -68 -16.5t-58 -46.5l-31 28q72 79 162 79q72 0 114.5 -43t42.5 -111q0 -42 -18 -75.5t-55 -81.5q-38 -47 -57 -83t-19 -81q0 -8 2 -24h-47q-2 20 -2 28zM156.5 1.5
q-13.5 13.5 -13.5 34.5q0 22 13.5 36t32.5 14t32 -13.5t13 -36.5q0 -21 -13 -34.5t-32 -13.5t-32.5 13.5z" />
    <glyph glyph-name="at" unicode="@" horiz-adv-x="820" 
d="M216 -105.5q-77 41.5 -121 120.5t-44 188q0 127 55 226t147.5 153t199.5 54q96 0 167.5 -40t110 -113t38.5 -168q0 -80 -28 -139.5t-71.5 -90.5t-87.5 -31q-41 0 -67.5 19.5t-30.5 56.5h-2q-62 -69 -122 -69q-50 0 -82.5 36t-32.5 101q0 51 23 104t66 87.5t98 34.5
q54 0 83 -48h2l9 40h37l-36 -190q-9 -34 -9 -60q0 -72 68 -72q33 0 66 26.5t54.5 76.5t21.5 116q0 85 -33.5 149t-96.5 99t-149 35q-92 0 -173.5 -49t-131.5 -138.5t-50 -203.5q0 -96 38 -166.5t106 -108.5t156 -38q89 0 167 48l17 -35q-85 -52 -188 -52q-97 0 -174 41.5z
M473 166l31 170q-18 27 -34 37.5t-39 10.5q-41 0 -73.5 -27.5t-50.5 -70t-18 -85.5q0 -52 21.5 -76t57.5 -24q49 0 105 65z" />
    <glyph glyph-name="A" unicode="A" horiz-adv-x="530" 
d="M392 221h-256l-75 -221h-54l230 659h55l231 -659h-57zM378 265l-40 119q-45 133 -72 226h-4q-25 -90 -71 -226l-40 -119h227z" />
    <glyph glyph-name="B" unicode="B" horiz-adv-x="580" 
d="M96 659h181q103 0 161 -40t58 -121q0 -52 -26 -90t-75 -53v-4q65 -12 103 -52.5t38 -106.5q0 -93 -66 -142.5t-180 -49.5h-194v659zM260 370q184 0 184 123q0 65 -44.5 93.5t-134.5 28.5h-116v-245h111zM278 44q99 0 152.5 36.5t53.5 111.5q0 68 -53 102t-153 34h-129
v-284h129z" />
    <glyph glyph-name="C" unicode="C" horiz-adv-x="566" 
d="M188 30q-63 42 -98.5 119.5t-35.5 180.5t36 180t100 118.5t148 41.5q54 0 98.5 -22.5t74.5 -56.5l-31 -35q-59 67 -142 67q-69 0 -120.5 -35.5t-79.5 -101.5t-28 -155t27.5 -156t78 -103t119.5 -36q49 0 88.5 19.5t74.5 60.5l31 -34q-40 -46 -87.5 -70t-109.5 -24
q-81 0 -144 42z" />
    <glyph glyph-name="D" unicode="D" horiz-adv-x="606" 
d="M96 659h154q150 0 226 -86.5t76 -241.5t-76 -243t-224 -88h-156v659zM246 45q126 0 188.5 76.5t62.5 209.5t-62.5 208t-188.5 75h-97v-569h97z" />
    <glyph glyph-name="E" unicode="E" horiz-adv-x="517" 
d="M96 659h364v-46h-311v-241h261v-46h-261v-281h321v-45h-374v659z" />
    <glyph glyph-name="F" unicode="F" horiz-adv-x="480" 
d="M96 659h363v-46h-310v-255h262v-45h-262v-313h-53v659z" />
    <glyph glyph-name="G" unicode="G" horiz-adv-x="607" 
d="M190.5 30q-64.5 42 -100.5 119t-36 181q0 103 37 180t103.5 118.5t153.5 41.5q106 0 181 -79l-30 -35q-62 67 -150 67q-73 0 -127 -35.5t-83 -101.5t-29 -155q0 -136 62 -215.5t172 -79.5q43 0 81 12.5t61 34.5v199h-154v45h204v-264q-32 -34 -82.5 -54.5t-113.5 -20.5
q-85 0 -149.5 42z" />
    <glyph glyph-name="H" unicode="H" horiz-adv-x="641" 
d="M96 659h53v-287h343v287h53v-659h-53v326h-343v-326h-53v659z" />
    <glyph glyph-name="I" unicode="I" horiz-adv-x="245" 
d="M96 659h53v-659h-53v659z" />
    <glyph glyph-name="J" unicode="J" horiz-adv-x="466" 
d="M107 13q-42 25 -68 73l39 27q24 -41 54 -59t71 -18q59 0 87.5 36.5t28.5 114.5v472h53v-477q0 -87 -40.5 -140.5t-126.5 -53.5q-56 0 -98 25z" />
    <glyph glyph-name="K" unicode="K" horiz-adv-x="562" 
d="M96 659h53v-360h2l310 360h63l-210 -246l239 -413h-60l-214 372l-130 -149v-223h-53v659z" />
    <glyph glyph-name="L" unicode="L" horiz-adv-x="471" 
d="M96 659h53v-614h300v-45h-353v659z" />
    <glyph glyph-name="M" unicode="M" horiz-adv-x="710" 
d="M96 659h72l135 -380l51 -145h4q11 30 25 73l24 72l135 380h72v-659h-51v420q0 50 7 181h-4l-51 -148l-139 -382h-43l-139 382l-52 148h-4q6 -112 6 -181v-420h-48v659z" />
    <glyph glyph-name="N" unicode="N" horiz-adv-x="638" 
d="M96 659h55l270 -455l74 -133h4l-2 38q-1 20 -3 69.5t-2 88.5v392h50v-659h-55l-270 455l-74 132h-4l2 -38q1 -18 3 -65.5t2 -86.5v-397h-50v659z" />
    <glyph glyph-name="O" unicode="O" horiz-adv-x="655" 
d="M186 30.5q-62 42.5 -97 120t-35 180.5t35 179.5t97 118t141 41.5q80 0 142 -41.5t96.5 -118t34.5 -179.5t-34.5 -180.5t-96.5 -120t-142 -42.5q-79 0 -141 42.5zM441.5 72.5q49.5 36.5 76.5 103t27 155.5t-27 155t-76.5 101.5t-114.5 35.5t-114 -35.5t-76 -101.5
t-27 -155q0 -88 27 -155t76.5 -103.5t113.5 -36.5q65 0 114.5 36.5z" />
    <glyph glyph-name="P" unicode="P" horiz-adv-x="552" 
d="M96 659h170q117 0 178.5 -43.5t61.5 -142.5q0 -96 -62 -145t-174 -49h-121v-279h-53v659zM258 323q99 0 146.5 35.5t47.5 114.5q0 78 -47.5 109.5t-150.5 31.5h-105v-291h109z" />
    <glyph glyph-name="Q" unicode="Q" horiz-adv-x="655" 
d="M605 -145q-34 -12 -83 -12q-81 0 -138.5 40t-84.5 106q-72 7 -127.5 51.5t-86.5 119t-31 171.5q0 103 35 179.5t97 118t141 41.5q80 0 142 -41.5t96.5 -118t34.5 -179.5q0 -96 -30.5 -171t-85.5 -119t-127 -51q23 -49 67 -74.5t103 -25.5q36 0 67 9zM137 174.5
q27 -67.5 76.5 -104.5t113.5 -37q65 0 114.5 37t76.5 104.5t27 156.5t-27 155t-76.5 101.5t-114.5 35.5t-114 -35.5t-76 -101.5t-27 -155t27 -156.5z" />
    <glyph glyph-name="R" unicode="R" horiz-adv-x="548" 
d="M459 0l-174 298h-136v-298h-53v659h191q104 0 162 -42.5t58 -133.5q0 -77 -43.5 -123t-121.5 -58l179 -302h-62zM275 342q87 0 132.5 35t45.5 106q0 70 -44.5 100.5t-133.5 30.5h-126v-272h126z" />
    <glyph glyph-name="S" unicode="S" horiz-adv-x="523" 
d="M144.5 14.5q-56.5 26.5 -98.5 72.5l33 36q37 -41 86.5 -64t104.5 -23q73 0 116 35t43 92q0 38 -15 62t-38 39t-64 33l-99 44q-59 26 -96 63t-37 102q0 47 25 84.5t69.5 58.5t99.5 21q56 0 104 -22t82 -57l-30 -35q-64 67 -156 67q-63 0 -102 -31t-39 -83
q0 -34 16.5 -57.5t39 -37t57.5 -29.5l99 -43q66 -29 102 -68t36 -107q0 -50 -26.5 -91t-75 -64.5t-111.5 -23.5q-69 0 -125.5 26.5z" />
    <glyph glyph-name="T" unicode="T" horiz-adv-x="527" 
d="M237 613h-208v46h469v-46h-208v-613h-53v613z" />
    <glyph glyph-name="U" unicode="U" horiz-adv-x="636" 
d="M156 50q-62 62 -62 206v403h53v-399q0 -120 47 -172t124 -52q78 0 126 52t48 172v399h51v-403q0 -144 -63 -206t-162 -62q-100 0 -162 62z" />
    <glyph glyph-name="V" unicode="V" horiz-adv-x="496" 
d="M4 659h56l119 -380l27 -87q33 -107 41 -133h4q24 71 46 146l23 74l118 380h54l-214 -659h-59z" />
    <glyph glyph-name="W" unicode="W" horiz-adv-x="773" 
d="M27 659h55l81 -383q14 -72 44 -214h4q17 79 49 214l101 383h53l101 -383l51 -214h4q15 71 27 139l15 75l81 383h51l-145 -659h-60l-116 442l-5 20l-29 128h-4l-15 -61q-4 -14 -10.5 -40.5t-10.5 -46.5l-115 -442h-59z" />
    <glyph glyph-name="X" unicode="X" horiz-adv-x="488" 
d="M213 341l-183 318h58l105 -190l53 -91h4q34 67 48 91l105 190h55l-183 -321l196 -338h-58l-111 198l-60 104h-4l-55 -104l-111 -198h-55z" />
    <glyph glyph-name="Y" unicode="Y" horiz-adv-x="452" 
d="M200 265l-198 394h56l98 -203q33 -72 68 -142h4q2 5 5.5 11t7.5 14q7 14 26 50t32 67l97 203h54l-197 -394v-265h-53v265z" />
    <glyph glyph-name="Z" unicode="Z" horiz-adv-x="539" 
d="M49 31l373 582h-340v46h406v-31l-373 -583h377v-45h-443v31z" />
    <glyph glyph-name="bracketleft" unicode="[" horiz-adv-x="284" 
d="M98 708h162v-32h-123v-796h123v-32h-162v860z" />
    <glyph glyph-name="backslash" unicode="\" horiz-adv-x="356" 
d="M7 710h42l298 -870h-42z" />
    <glyph glyph-name="bracketright" unicode="]" horiz-adv-x="284" 
d="M23 -120h123v796h-123v32h163v-860h-163v32z" />
    <glyph glyph-name="asciicircum" unicode="^" 
d="M216 670h51l151 -381h-49l-75 198l-51 133h-4l-51 -133l-75 -198h-48z" />
    <glyph glyph-name="underscore" unicode="_" horiz-adv-x="500" 
d="M12 -78h476v-41h-476v41z" />
    <glyph glyph-name="grave" unicode="`" horiz-adv-x="536" 
d="M148 725l38 34l136 -159l-28 -26z" />
    <glyph glyph-name="a" unicode="a" horiz-adv-x="494" 
d="M96 22q-39 34 -39 99q0 79 73 121.5t234 59.5q1 64 -23.5 105.5t-86.5 41.5q-76 0 -152 -55l-23 37q36 25 82.5 43.5t98.5 18.5q82 0 119 -51t37 -137v-305h-43l-6 62h-2q-89 -74 -169 -74q-61 0 -100 34zM282.5 50q36.5 18 81.5 56v159q-139 -17 -197 -50.5t-58 -90.5
q0 -47 27 -69.5t71 -22.5q39 0 75.5 18z" />
    <glyph glyph-name="b" unicode="b" horiz-adv-x="544" 
d="M212 4.5q-38 16.5 -72 44.5h-2l-5 -49h-43v718h52v-206l-3 -92q88 73 163 73q94 0 143.5 -65.5t49.5 -179.5q0 -79 -29 -138t-77.5 -90.5t-105.5 -31.5q-33 0 -71 16.5zM362.5 60q36.5 27 57.5 76t21 112q0 93 -36 147t-112 54q-68 0 -151 -77v-279q35 -31 71 -45.5
t66 -14.5q47 0 83.5 27z" />
    <glyph glyph-name="c" unicode="c" horiz-adv-x="450" 
d="M157.5 18q-49.5 30 -78 87t-28.5 135t30.5 135.5t81 87.5t110.5 30q45 0 78.5 -15.5t62.5 -42.5l-29 -36q-26 24 -52.5 37t-58.5 13q-48 0 -86.5 -26.5t-61 -74.5t-22.5 -108q0 -61 21 -108t59.5 -73t88.5 -26q68 0 126 54l26 -36q-72 -63 -155 -63q-63 0 -112.5 30z" />
    <glyph glyph-name="d" unicode="d" horiz-adv-x="546" 
d="M105 54q-54 66 -54 186q0 75 29 132.5t78 89t106 31.5q40 0 72.5 -14t70.5 -44l-3 87v196h52v-718h-43l-6 61h-2q-73 -73 -155 -73q-91 0 -145 66zM331.5 52q35.5 19 72.5 58v279q-35 32 -68 46t-68 14q-45 0 -82.5 -27.5t-59 -75t-21.5 -106.5q0 -96 40.5 -151.5
t113.5 -55.5q37 0 72.5 19z" />
    <glyph glyph-name="e" unicode="e" horiz-adv-x="485" 
d="M445 232h-344q1 -62 25.5 -107.5t64.5 -69.5t89 -24q68 0 127 42l21 -37q-35 -23 -70.5 -35.5t-82.5 -12.5q-62 0 -113.5 30.5t-81 87.5t-29.5 134q0 76 29.5 133.5t78 88.5t103.5 31q87 0 136.5 -59t49.5 -164q0 -20 -3 -38zM400 273q0 87 -36.5 132t-101.5 45
q-37 0 -71.5 -20t-58.5 -60t-29 -97h297z" />
    <glyph glyph-name="f" unicode="f" horiz-adv-x="268" 
d="M150 580v-99h109v-44h-109v-437h-52v437h-66v40l66 4v102q0 71 31.5 109t91.5 38q37 0 72 -16l-13 -41q-27 13 -56 13q-74 0 -74 -106z" />
    <glyph glyph-name="g" unicode="g" horiz-adv-x="490" 
d="M104 -194q-54 36 -54 97q0 31 19.5 61t52.5 53v4q-19 12 -31 32t-12 46q0 28 16 51t37 38v4q-26 22 -43.5 56t-17.5 75q0 49 23 87.5t62 60.5t86 22q39 0 65 -12h164v-42h-109q23 -20 36.5 -51t13.5 -66q0 -49 -22.5 -87.5t-61.5 -60t-86 -21.5q-20 0 -41 5t-37 15
q-17 -15 -27 -31t-10 -37q0 -60 90 -60h102q81 0 120.5 -27.5t39.5 -84.5q0 -42 -29 -79.5t-81 -60.5t-120 -23q-91 0 -145 36zM327.5 229q35.5 37 35.5 94q0 58 -35 93.5t-86 35.5t-85.5 -35.5t-34.5 -93.5q0 -38 16.5 -68t44 -46.5t59.5 -16.5q50 0 85.5 37zM344.5 -173
q39.5 17 61 44t21.5 56q0 38 -26.5 54.5t-81.5 16.5h-100q-28 0 -60 8q-30 -21 -45 -46.5t-15 -50.5q0 -45 41 -72t114 -27q51 0 90.5 17z" />
    <glyph glyph-name="h" unicode="h" horiz-adv-x="531" 
d="M90 718h52v-206l-2 -105q43 42 81.5 64t84.5 22q75 0 110.5 -45.5t35.5 -139.5v-308h-52v301q0 76 -25 111.5t-81 35.5q-40 0 -73.5 -20.5t-78.5 -67.5v-360h-52v718z" />
    <glyph glyph-name="i" unicode="i" horiz-adv-x="232" 
d="M90 481h52v-481h-52v481zM88 606.5q-12 12.5 -12 31.5q0 18 12 30t29 12t29 -12t12 -30q0 -19 -12 -31.5t-29 -12.5t-29 12.5z" />
    <glyph glyph-name="j" unicode="j" horiz-adv-x="232" 
d="M146 668q12 -12 12 -30q0 -19 -12 -31.5t-29 -12.5t-29 12.5t-12 31.5q0 18 12 30t29 12t29 -12zM92 481h51v-564q0 -72 -27.5 -108t-85.5 -36q-33 0 -63 12l11 41q29 -9 50 -9q37 0 50.5 26t13.5 77v561z" />
    <glyph glyph-name="k" unicode="k" horiz-adv-x="469" 
d="M90 718h51v-521h2l232 284h58l-157 -191l183 -290h-57l-156 253l-105 -123v-130h-51v718z" />
    <glyph glyph-name="l" unicode="l" horiz-adv-x="240" 
d="M90 71v647h52v-653q0 -16 6 -24t15 -8q8 0 18 2l8 -42q-3 -1 -12.5 -3t-22.5 -2q-64 0 -64 83z" />
    <glyph glyph-name="m" unicode="m" horiz-adv-x="815" 
d="M90 481h43l6 -73h2q35 39 74 62t78 23q103 0 133 -97q42 47 82 72t80 25q144 0 144 -185v-308h-51v301q0 75 -25.5 111t-78.5 36q-33 0 -66.5 -21.5t-73.5 -66.5v-360h-51v301q0 75 -25.5 111t-79.5 36q-63 0 -139 -88v-360h-52v481z" />
    <glyph glyph-name="n" unicode="n" horiz-adv-x="534" 
d="M90 481h43l6 -73h2q41 41 80 63t85 22q75 0 110.5 -45.5t35.5 -139.5v-308h-52v301q0 76 -25 111.5t-81 35.5q-40 0 -73.5 -20.5t-78.5 -67.5v-360h-52v481z" />
    <glyph glyph-name="o" unicode="o" horiz-adv-x="536" 
d="M159.5 18.5q-49.5 30.5 -79 87.5t-29.5 134q0 78 29.5 135.5t79 87.5t108.5 30t109 -30t79.5 -87.5t29.5 -135.5q0 -77 -29.5 -134t-79.5 -87.5t-109 -30.5t-108.5 30.5zM352.5 59q37.5 26 58.5 73t21 108t-21 108.5t-58.5 74t-84.5 26.5t-84 -26.5t-58.5 -74
t-21.5 -108.5t21.5 -108t58.5 -73t84 -26t84.5 26z" />
    <glyph glyph-name="p" unicode="p" horiz-adv-x="546" 
d="M90 481h43l6 -59h2q88 71 161 71q95 0 144 -65t49 -180q0 -79 -29 -138t-77.5 -90.5t-105.5 -31.5q-66 0 -142 59l1 -88v-174h-52v696zM362.5 60q36.5 27 57.5 76t21 112q0 93 -36 147t-112 54q-65 0 -151 -77v-279q37 -31 72.5 -45.5t64.5 -14.5q47 0 83.5 27z" />
    <glyph glyph-name="q" unicode="q" horiz-adv-x="546" 
d="M404 -32l3 94q-78 -74 -157 -74q-91 0 -145 66t-54 186q0 75 29 132.5t78 89t106 31.5q41 0 73.5 -14t68.5 -43h2l6 45h42v-696h-52v183zM331.5 52q35.5 19 72.5 58v279q-35 32 -68 46t-68 14q-45 0 -82.5 -27.5t-59 -75t-21.5 -106.5q0 -96 40.5 -151.5t113.5 -55.5
q37 0 72.5 19z" />
    <glyph glyph-name="r" unicode="r" horiz-adv-x="323" 
d="M90 481h43l6 -89h2q26 47 61 74t76 27q29 0 48 -10l-11 -46q-12 5 -21 6.5t-23 1.5q-35 0 -69.5 -29t-59.5 -92v-324h-52v481z" />
    <glyph glyph-name="s" unicode="s" horiz-adv-x="408" 
d="M113 6.5q-46 18.5 -81 48.5l28 36q35 -29 70 -44.5t81 -15.5q52 0 81.5 26t29.5 65t-31 61.5t-85 42.5q-47 16 -78 32t-52.5 42t-21.5 64q0 55 42 92t115 37q39 0 75.5 -14t64.5 -36l-26 -36q-29 21 -55.5 32.5t-58.5 11.5q-51 0 -78.5 -24.5t-27.5 -59.5q0 -25 15 -42.5
t37 -28t61 -24.5q56 -21 84 -35t49.5 -41t21.5 -71q0 -37 -19.5 -68.5t-56.5 -50t-88 -18.5q-50 0 -96 18.5z" />
    <glyph glyph-name="t" unicode="t" horiz-adv-x="317" 
d="M130 26.5q-28 38.5 -28 109.5v301h-74v40l76 4l6 139h43v-139h138v-44h-138v-304q0 -50 18 -75.5t63 -25.5q12 0 29 4.5t30 10.5l13 -41q-50 -18 -81 -18q-67 0 -95 38.5z" />
    <glyph glyph-name="u" unicode="u" horiz-adv-x="532" 
d="M118.5 33.5q-35.5 45.5 -35.5 139.5v308h51v-301q0 -75 25.5 -110.5t80.5 -35.5q41 0 74.5 22t76.5 73v352h51v-481h-43l-5 80h-3q-38 -45 -76.5 -68.5t-85.5 -23.5q-75 0 -110.5 45.5z" />
    <glyph glyph-name="v" unicode="v" horiz-adv-x="440" 
d="M12 481h55l105 -296q22 -68 48 -139h4l48 139l105 296h51l-176 -481h-61z" />
    <glyph glyph-name="w" unicode="w" horiz-adv-x="691" 
d="M24 481h54l84 -305q23 -87 32 -130h4l35 130l85 305h58l85 -305l14 -49l21 -81h4l34 130l82 305h51l-136 -481h-66l-82 291q-7 24 -19 72q-5 22 -17 66h-4q-21 -90 -37 -139l-80 -290h-62z" />
    <glyph glyph-name="x" unicode="x" horiz-adv-x="414" 
d="M176 252l-149 229h57l75 -119q12 -22 50 -79h4q12 18 25 40l24 39l71 119h54l-149 -234l162 -247h-56l-83 128q-27 45 -56 88h-4q-8 -12 -22 -36l-32 -52l-79 -128h-54z" />
    <glyph glyph-name="y" unicode="y" horiz-adv-x="442" 
d="M25 -207l12 43q23 -7 39 -7q41 0 71 33t49 90l13 40l-197 489h55l112 -295l52 -136h4q8 24 14.5 44t11.5 35l18 57l99 295h52l-189 -538q-54 -160 -165 -160q-28 0 -51 10z" />
    <glyph glyph-name="z" unicode="z" horiz-adv-x="408" 
d="M28 27l279 410h-248v44h314v-27l-279 -410h288v-44h-354v27z" />
    <glyph glyph-name="braceleft" unicode="{" horiz-adv-x="284" 
d="M139 -124.5q-26 27.5 -26 101.5q0 38 4 104t4 99q0 80 -86 80v36q86 0 86 79q0 34 -4 100t-4 104q0 73 26 101t85 28h36v-32h-29q-43 0 -59 -23.5t-16 -77.5q0 -30 2 -90q3 -46 3 -100q0 -47 -11.5 -71.5t-40.5 -33.5v-4q29 -9 40.5 -34t11.5 -71q0 -53 -3 -100
q-2 -60 -2 -90q0 -54 16 -77.5t59 -23.5h29v-32h-36q-59 0 -85 27.5z" />
    <glyph glyph-name="bar" unicode="|" horiz-adv-x="229" 
d="M94 750h41v-1000h-41v1000z" />
    <glyph glyph-name="braceright" unicode="}" horiz-adv-x="284" 
d="M23 -120h30q43 0 59 23.5t16 77.5q0 45 -3 90q0 14 -1.5 44.5t-1.5 55.5q0 45 12 70.5t41 34.5v4q-29 9 -41 34t-12 71q0 25 1.5 55.5t1.5 44.5q3 45 3 90q0 54 -16 77.5t-59 23.5h-30v32h36q59 0 85.5 -28t26.5 -101q0 -49 -5 -104q-4 -66 -4 -100q0 -79 86 -79v-36
q-86 0 -86 -80q0 -33 4 -99q5 -55 5 -104q0 -74 -26.5 -101.5t-85.5 -27.5h-36v32z" />
    <glyph glyph-name="asciitilde" unicode="~" 
d="M280.5 277.5q-22.5 12.5 -54.5 36.5q-25 20 -42 30t-34 10q-46 0 -78 -63l-32 20q22 42 51.5 63t60.5 21q27 0 49.5 -12.5t54.5 -36.5q25 -20 42 -30t34 -10q23 0 42 14.5t37 48.5l32 -22q-23 -41 -52.5 -61.5t-60.5 -20.5q-27 0 -49.5 12.5z" />
    <glyph glyph-name="uni00A0" unicode="&#xa0;" horiz-adv-x="200" 
 />
    <glyph glyph-name="exclamdown" unicode="&#xa1;" horiz-adv-x="265" 
d="M100 409.5q-13 13.5 -13 35.5q0 21 13 34.5t32 13.5t32.5 -13.5t13.5 -34.5q0 -22 -13.5 -35.5t-32.5 -13.5t-32 13.5zM107 -114l7 412h37l7 -412l1 -75h-53z" />
    <glyph glyph-name="cent" unicode="&#xa2;" 
d="M294 78v-107h-38v108q-87 9 -140.5 70t-53.5 162q0 99 55 160t139 71v111h38v-109q42 -1 73.5 -17t60.5 -42l-27 -33q-50 45 -107 48v-377q64 3 119 52l26 -33q-69 -60 -145 -64zM152.5 185.5q38.5 -49.5 103.5 -60.5v372q-63 -11 -102.5 -61t-39.5 -125
q0 -76 38.5 -125.5z" />
    <glyph glyph-name="sterling" unicode="&#xa3;" 
d="M432 45v-45h-376v31q53 30 79.5 81t26.5 111q0 28 -9 69h-99v36l66 3h23l-7 24q-12 43 -18 69t-6 54q0 80 47 126.5t126 46.5q89 0 146 -72l-33 -31q-23 28 -49.5 43.5t-62.5 15.5q-58 0 -90 -36.5t-32 -92.5q0 -27 5.5 -53t15.5 -62l9 -32h164v-39h-155q7 -38 7 -70
q0 -57 -17 -97t-53 -76v-4h292z" />
    <glyph glyph-name="currency" unicode="&#xa4;" 
d="M30 143l65 67q-37 49 -37 118q0 72 37 121l-65 68l29 31l67 -69q24 20 53.5 31.5t61.5 11.5q31 0 61 -11.5t54 -31.5l67 69l29 -31l-65 -68q38 -53 38 -121q0 -65 -38 -118l65 -67l-29 -31l-67 68q-23 -21 -53 -32t-62 -11q-67 0 -116 43l-66 -68zM308 197q31 19 49 53.5
t18 77.5q0 44 -18 78.5t-49 54t-67 19.5t-66.5 -19.5t-48.5 -54t-18 -78.5q0 -43 18 -77.5t48.5 -53.5t66.5 -19t67 19z" />
    <glyph glyph-name="yen" unicode="&#xa5;" 
d="M215 164h-166v36h166v70h-166v36h150l-171 333h56l91 -189q42 -88 64 -137h4q11 20 18.5 37t14.5 30q18 40 34 70l91 189h53l-172 -333h151v-36h-167v-70h167v-36h-167v-164h-51v164z" />
    <glyph glyph-name="brokenbar" unicode="&#xa6;" horiz-adv-x="229" 
d="M135 668v-473v-360h-41v466v367h41z" />
    <glyph glyph-name="section" unicode="&#xa7;" 
d="M411 208q-22 -30 -64 -52q33 -35 33 -84q0 -36 -19.5 -65t-53 -45.5t-73.5 -16.5q-50 0 -91 17.5t-72 47.5l33 32q28 -27 58 -40.5t72 -13.5q43 0 70 24t27 57q0 29 -16.5 49t-40.5 33t-67 32q-52 23 -83 41t-53 49.5t-22 77.5q0 44 23.5 75.5t64.5 54.5q-33 33 -33 81
q0 31 15.5 58.5t47 44.5t76.5 17q77 0 143 -55l-27 -34q-27 22 -54 34t-60 12q-46 0 -69 -21.5t-23 -52.5q0 -27 16 -46.5t39.5 -33t64.5 -30.5q51 -22 83 -41t54.5 -51t22.5 -79q0 -46 -22 -76zM368.5 222q17.5 21 17.5 58q0 35 -18.5 59.5t-45.5 40t-73 35.5
q-57 26 -79 39q-37 -20 -55.5 -43t-18.5 -57q0 -33 18 -56.5t45 -38.5t72 -35q8 -4 35 -16t47 -25q38 18 55.5 39z" />
    <glyph glyph-name="dieresis" unicode="&#xa8;" horiz-adv-x="536" 
d="M150 607q-11 11 -11 28t11 28t28 11q16 0 27.5 -11t11.5 -28q0 -16 -11.5 -27.5t-27.5 -11.5q-17 0 -28 11zM330.5 607.5q-11.5 11.5 -11.5 27.5q0 17 11.5 28t27.5 11q17 0 28 -11t11 -28t-11 -28t-28 -11q-16 0 -27.5 11.5z" />
    <glyph glyph-name="copyright" unicode="&#xa9;" horiz-adv-x="742" 
d="M211 30.5q-73 41.5 -116.5 117.5t-43.5 175q0 98 43.5 173t116.5 116t160 41t160 -41t116.5 -116t43.5 -173q0 -99 -43.5 -175t-116.5 -117.5t-160 -41.5t-160 41.5zM512.5 59q64.5 38 103 107t38.5 157q0 87 -38.5 154.5t-103 105t-141.5 37.5t-141.5 -37.5t-103 -105
t-38.5 -154.5q0 -88 38.5 -157t103 -107t141.5 -38t141.5 38zM288 148.5q-40 23.5 -63.5 68t-23.5 105.5q0 57 24.5 99.5t66 65.5t89.5 23q38 0 66 -14t55 -41l-25 -30q-24 23 -45.5 33.5t-50.5 10.5q-59 0 -96 -40.5t-37 -106.5q0 -72 35.5 -114.5t95.5 -42.5t112 49
l22 -31q-32 -28 -62.5 -43t-74.5 -15q-48 0 -88 23.5z" />
    <glyph glyph-name="ordfeminine" unicode="&#xaa;" horiz-adv-x="339" 
d="M67.5 420.5q-26.5 24.5 -26.5 67.5q0 52 48.5 79.5t155.5 38.5q0 41 -15 64.5t-52 23.5q-28 0 -57 -11t-50 -26l-16 31q25 17 59 29.5t69 12.5q55 0 79.5 -33t24.5 -94v-199h-33l-6 39h-5q-51 -47 -105 -47q-44 0 -70.5 24.5zM245 479v98q-87 -9 -124 -30.5t-37 -55.5
q0 -30 17 -45t48 -15q47 0 96 48z" />
    <glyph glyph-name="guillemotleft" unicode="&#xab;" horiz-adv-x="405" 
d="M43 231v42l138 160l26 -22l-122 -159l122 -160l-26 -21zM187 231v42l138 160l26 -22l-122 -159l122 -160l-26 -21z" />
    <glyph glyph-name="logicalnot" unicode="&#xac;" 
d="M402 309h-368v42h414v-242h-46v200z" />
    <glyph glyph-name="uni00AD" unicode="&#xad;" horiz-adv-x="301" 
d="M41 272h221v-44h-221v44z" />
    <glyph glyph-name="registered" unicode="&#xae;" horiz-adv-x="405" 
d="M110 347.5q-42 24.5 -66.5 68.5t-24.5 101t24.5 101.5t66.5 69.5t92 25t92 -25t67 -69.5t25 -101.5q0 -56 -25 -100.5t-67 -69t-92 -24.5t-92 24.5zM278.5 375q34.5 21 54.5 58t20 84t-20 84.5t-54.5 59t-76.5 21.5t-76 -21.5t-54 -59t-20 -84.5t20 -84t54 -58t76 -21
t76.5 21zM134 624h70q33 0 55 -15.5t22 -49.5q0 -19 -11 -34.5t-28 -20.5l48 -86h-39l-38 74h-46v-74h-33v206zM195 521q50 0 50 36q0 37 -46 37h-32v-73h28z" />
    <glyph glyph-name="macron" unicode="&#xaf;" horiz-adv-x="536" 
d="M143 645h250v-40h-250v40z" />
    <glyph glyph-name="degree" unicode="&#xb0;" horiz-adv-x="315" 
d="M75.5 477q-34.5 33 -34.5 86q0 55 34.5 88t82.5 33q47 0 81.5 -33t34.5 -88q0 -53 -34.5 -86t-81.5 -33q-48 0 -82.5 33zM214.5 502q22.5 24 22.5 61q0 38 -22 62.5t-57 24.5t-57.5 -24.5t-22.5 -62.5q0 -37 22.5 -61t57.5 -24q34 0 56.5 24z" />
    <glyph glyph-name="plusminus" unicode="&#xb1;" 
d="M218 309h-184v42h184v200h46v-200h184v-42h-184v-197h-46v197zM34 42h414v-42h-414v42z" />
    <glyph glyph-name="acute" unicode="&#xb4;" horiz-adv-x="536" 
d="M214 600l136 159l38 -34l-146 -151z" />
    <glyph glyph-name="paragraph" unicode="&#xb6;" horiz-adv-x="523" 
d="M108 291q-67 51 -67 159t63 158.5t172 50.5h44v-419h-29q-116 0 -183 51zM374 659h53v-739h-53v739z" />
    <glyph glyph-name="periodcentered" unicode="&#xb7;" horiz-adv-x="225" 
d="M80 287.5q-13 13.5 -13 34.5q0 23 13 36.5t32 13.5t32.5 -14t13.5 -36q0 -21 -13.5 -34.5t-32.5 -13.5t-32 13.5z" />
    <glyph glyph-name="cedilla" unicode="&#xb8;" horiz-adv-x="536" 
d="M182 -188q62 4 87 16t25 36q0 21 -18 32.5t-60 17.5l42 88h38l-30 -67q35 -8 53.5 -24t18.5 -45q0 -78 -149 -86z" />
    <glyph glyph-name="ordmasculine" unicode="&#xba;" horiz-adv-x="361" 
d="M105 416q-34 20 -53.5 58t-19.5 89t19.5 89t53 58t74.5 20t74.5 -20t53.5 -58t20 -89t-20 -89t-53.5 -58t-74.5 -20q-40 0 -74 20zM254.5 468.5q28.5 36.5 28.5 94.5q0 59 -28.5 95t-75.5 36q-46 0 -74.5 -36t-28.5 -95q0 -58 28.5 -94.5t74.5 -36.5q47 0 75.5 36.5z" />
    <glyph glyph-name="guillemotright" unicode="&#xbb;" horiz-adv-x="405" 
d="M54 92l122 160l-122 159l26 22l138 -160v-42l-138 -160zM198 92l122 160l-122 159l26 22l138 -160v-42l-138 -160z" />
    <glyph glyph-name="onequarter" unicode="&#xbc;" horiz-adv-x="773" 
d="M589 670l-367 -682h-41l367 682h41zM159 275v321h-84v30q29 6 50 15t40 24h36v-390h-42zM731 112h-58v-112h-41v112h-176v23l174 255h43v-244h58v-34zM632 146v85l5 105h-4l-126 -190h125z" />
    <glyph glyph-name="onehalf" unicode="&#xbd;" horiz-adv-x="790" 
d="M527 670h42l-367 -682h-42zM159 596h-84v30q29 6 50 15t40 24h36v-390h-42v321zM483 27q74 68 112.5 108.5t58.5 73.5t20 64q0 42 -23 67t-61 25q-25 0 -48 -17t-41 -44l-28 25q20 31 53 52t69 21q57 0 90 -31.5t33 -92.5q0 -38 -19.5 -74t-50 -69t-95.5 -97h187v-38
h-257v27z" />
    <glyph glyph-name="threequarters" unicode="&#xbe;" horiz-adv-x="790" 
d="M272.5 294q-37.5 -31 -94.5 -31q-44 0 -80 21t-59 53l32 24q18 -28 46 -45t60 -17q38 0 63.5 21.5t25.5 58.5q0 38 -35.5 58t-98.5 20v31q54 0 86 23.5t32 57.5q0 32 -22 51.5t-58 19.5q-23 0 -45.5 -14t-41.5 -37l-28 25q50 62 120 62q51 0 85 -28t34 -75q0 -35 -20 -60
t-54 -38q38 -7 64 -33t26 -64q0 -53 -37.5 -84zM632 670l-367 -682h-42l367 682h42zM748 112h-58v-112h-41v112h-176v23l174 255h43v-244h58v-34zM649 146v85l5 105h-4l-126 -190h125z" />
    <glyph glyph-name="questiondown" unicode="&#xbf;" horiz-adv-x="407" 
d="M185.5 409.5q-13.5 13.5 -13.5 35.5q0 21 13.5 34.5t32.5 13.5t32.5 -13.5t13.5 -34.5q0 -22 -13.5 -35.5t-32.5 -13.5t-32.5 13.5zM92.5 -157.5q-42.5 43.5 -42.5 110.5q0 42 18.5 75.5t55.5 82.5q38 47 57 83t19 81q0 7 -2 23h46q2 -20 2 -30q0 -50 -20 -88t-58 -86
q-33 -42 -49.5 -72t-16.5 -65q0 -48 28.5 -80.5t81.5 -32.5q36 0 69 16.5t58 45.5l31 -28q-72 -79 -163 -79q-72 0 -114.5 43.5z" />
    <glyph glyph-name="Agrave" unicode="&#xc0;" horiz-adv-x="530" 
d="M392 221h-256l-75 -221h-54l230 659h55l231 -659h-57zM378 265l-40 119q-45 133 -72 226h-4q-25 -90 -71 -226l-40 -119h227zM147 818l33 37l127 -124l-23 -26z" />
    <glyph glyph-name="Aacute" unicode="&#xc1;" horiz-adv-x="530" 
d="M392 221h-256l-75 -221h-54l230 659h55l231 -659h-57zM378 265l-40 119q-45 133 -72 226h-4q-25 -90 -71 -226l-40 -119h227zM221 731l127 124l33 -37l-137 -113z" />
    <glyph glyph-name="Acircumflex" unicode="&#xc2;" horiz-adv-x="530" 
d="M392 221h-256l-75 -221h-54l230 659h55l231 -659h-57zM378 265l-40 119q-45 133 -72 226h-4q-25 -90 -71 -226l-40 -119h227zM127 726l111 113h52l111 -113l-23 -20l-112 97h-4l-112 -97z" />
    <glyph glyph-name="Atilde" unicode="&#xc3;" horiz-adv-x="530" 
d="M392 221h-256l-75 -221h-54l230 659h55l231 -659h-57zM378 265l-40 119q-45 133 -72 226h-4q-25 -90 -71 -226l-40 -119h227zM293 728.5q-20 11.5 -43 32.5q-19 17 -32 25t-30 8q-22 0 -36.5 -20t-17.5 -54l-37 3q2 50 26 81.5t64 31.5q28 0 48 -11.5t43 -32.5
q18 -17 31.5 -25.5t30.5 -8.5q21 0 35 19.5t19 54.5l37 -2q-2 -50 -26 -81.5t-64 -31.5q-28 0 -48 11.5z" />
    <glyph glyph-name="Adieresis" unicode="&#xc4;" horiz-adv-x="530" 
d="M392 221h-256l-75 -221h-54l230 659h55l231 -659h-57zM378 265l-40 119q-45 133 -72 226h-4q-25 -90 -71 -226l-40 -119h227zM137 733.5q-11 10.5 -11 28.5q0 17 11 28t28 11t28 -11t11 -28q0 -18 -11 -28.5t-28 -10.5t-28 10.5zM335 733.5q-11 10.5 -11 28.5q0 17 11 28
t28 11t28 -11t11 -28q0 -18 -11 -28.5t-28 -10.5t-28 10.5z" />
    <glyph glyph-name="Aring" unicode="&#xc5;" horiz-adv-x="530" 
d="M392 221h-256l-75 -221h-54l230 659h55l231 -659h-57zM378 265l-40 119q-45 133 -72 226h-4q-25 -90 -71 -226l-40 -119h227zM200 723q-25 24 -25 63t25 63t64 24q38 0 63.5 -24t25.5 -63q0 -38 -26 -62.5t-63 -24.5q-39 0 -64 24zM303 743q16 16 16 43t-16 43t-39 16
q-24 0 -40.5 -16t-16.5 -43t16.5 -43t40.5 -16q23 0 39 16z" />
    <glyph glyph-name="AE" unicode="&#xc6;" horiz-adv-x="812" 
d="M764 45v-45h-355v212h-219l-115 -212h-56l360 659h375v-46h-292v-241h243v-46h-243v-281h302zM409 256v358h-4l-121 -229l-70 -129h195z" />
    <glyph glyph-name="Ccedilla" unicode="&#xc7;" horiz-adv-x="566" 
d="M188 30q-63 42 -98.5 119.5t-35.5 180.5t36 180t100 118.5t148 41.5q54 0 98.5 -22.5t74.5 -56.5l-31 -35q-59 67 -142 67q-69 0 -120.5 -35.5t-79.5 -101.5t-28 -155t27.5 -156t78 -103t119.5 -36q49 0 88.5 19.5t74.5 60.5l31 -34q-40 -46 -87.5 -70t-109.5 -24
q-81 0 -144 42z" />
    <glyph glyph-name="Egrave" unicode="&#xc8;" horiz-adv-x="517" 
d="M96 659h364v-46h-311v-241h261v-46h-261v-281h321v-45h-374v659zM166 818l33 37l127 -124l-23 -26z" />
    <glyph glyph-name="Eacute" unicode="&#xc9;" horiz-adv-x="517" 
d="M96 659h364v-46h-311v-241h261v-46h-261v-281h321v-45h-374v659zM240 731l127 124l33 -37l-137 -113z" />
    <glyph glyph-name="Ecircumflex" unicode="&#xca;" horiz-adv-x="517" 
d="M96 659h364v-46h-311v-241h261v-46h-261v-281h321v-45h-374v659zM146 726l111 113h52l111 -113l-23 -20l-112 97h-4l-112 -97z" />
    <glyph glyph-name="Edieresis" unicode="&#xcb;" horiz-adv-x="517" 
d="M96 659h364v-46h-311v-241h261v-46h-261v-281h321v-45h-374v659zM156 733.5q-11 10.5 -11 28.5q0 17 11 28t28 11t28 -11t11 -28q0 -18 -11 -28.5t-28 -10.5t-28 10.5zM354 733.5q-11 10.5 -11 28.5q0 17 11 28t28 11t28 -11t11 -28q0 -18 -11 -28.5t-28 -10.5t-28 10.5z
" />
    <glyph glyph-name="Igrave" unicode="&#xcc;" horiz-adv-x="245" 
d="M96 659h53v-659h-53v659zM5 818l33 37l127 -124l-23 -26z" />
    <glyph glyph-name="Iacute" unicode="&#xcd;" horiz-adv-x="245" 
d="M96 659h53v-659h-53v659zM79 731l127 124l33 -37l-137 -113z" />
    <glyph glyph-name="Icircumflex" unicode="&#xce;" horiz-adv-x="245" 
d="M96 659h53v-659h-53v659zM-15 726l111 113h52l111 -113l-23 -20l-112 97h-4l-112 -97z" />
    <glyph glyph-name="Idieresis" unicode="&#xcf;" horiz-adv-x="245" 
d="M96 659h53v-659h-53v659zM-5 733.5q-11 10.5 -11 28.5q0 17 11 28t28 11t28 -11t11 -28q0 -18 -11 -28.5t-28 -10.5t-28 10.5zM193 733.5q-11 10.5 -11 28.5q0 17 11 28t28 11t28 -11t11 -28q0 -18 -11 -28.5t-28 -10.5t-28 10.5z" />
    <glyph glyph-name="Eth" unicode="&#xd0;" horiz-adv-x="627" 
d="M497 572.5q76 -86.5 76 -241.5t-76 -243t-224 -88h-156v330h-81v33l81 3v293h154q150 0 226 -86.5zM455.5 121.5q62.5 76.5 62.5 209.5t-62.5 208t-188.5 75h-97v-248h160v-36h-160v-285h97q126 0 188.5 76.5z" />
    <glyph glyph-name="Ntilde" unicode="&#xd1;" horiz-adv-x="638" 
d="M96 659h55l270 -455l74 -133h4l-2 38q-1 20 -3 69.5t-2 88.5v392h50v-659h-55l-270 455l-74 132h-4l2 -38q1 -18 3 -65.5t2 -86.5v-397h-50v659zM353 728.5q-20 11.5 -43 32.5q-19 17 -32 25t-30 8q-22 0 -36.5 -20t-17.5 -54l-37 3q2 50 26 81.5t64 31.5q28 0 48 -11.5
t43 -32.5q18 -17 31.5 -25.5t30.5 -8.5q21 0 35 19.5t19 54.5l37 -2q-2 -50 -26 -81.5t-64 -31.5q-28 0 -48 11.5z" />
    <glyph glyph-name="Ograve" unicode="&#xd2;" horiz-adv-x="655" 
d="M186 30.5q-62 42.5 -97 120t-35 180.5t35 179.5t97 118t141 41.5q80 0 142 -41.5t96.5 -118t34.5 -179.5t-34.5 -180.5t-96.5 -120t-142 -42.5q-79 0 -141 42.5zM441.5 72.5q49.5 36.5 76.5 103t27 155.5t-27 155t-76.5 101.5t-114.5 35.5t-114 -35.5t-76 -101.5
t-27 -155q0 -88 27 -155t76.5 -103.5t113.5 -36.5q65 0 114.5 36.5zM210 818l33 37l127 -124l-23 -26z" />
    <glyph glyph-name="Oacute" unicode="&#xd3;" horiz-adv-x="655" 
d="M186 30.5q-62 42.5 -97 120t-35 180.5t35 179.5t97 118t141 41.5q80 0 142 -41.5t96.5 -118t34.5 -179.5t-34.5 -180.5t-96.5 -120t-142 -42.5q-79 0 -141 42.5zM441.5 72.5q49.5 36.5 76.5 103t27 155.5t-27 155t-76.5 101.5t-114.5 35.5t-114 -35.5t-76 -101.5
t-27 -155q0 -88 27 -155t76.5 -103.5t113.5 -36.5q65 0 114.5 36.5zM284 731l127 124l33 -37l-137 -113z" />
    <glyph glyph-name="Ocircumflex" unicode="&#xd4;" horiz-adv-x="655" 
d="M186 30.5q-62 42.5 -97 120t-35 180.5t35 179.5t97 118t141 41.5q80 0 142 -41.5t96.5 -118t34.5 -179.5t-34.5 -180.5t-96.5 -120t-142 -42.5q-79 0 -141 42.5zM441.5 72.5q49.5 36.5 76.5 103t27 155.5t-27 155t-76.5 101.5t-114.5 35.5t-114 -35.5t-76 -101.5
t-27 -155q0 -88 27 -155t76.5 -103.5t113.5 -36.5q65 0 114.5 36.5zM190 726l111 113h52l111 -113l-23 -20l-112 97h-4l-112 -97z" />
    <glyph glyph-name="Otilde" unicode="&#xd5;" horiz-adv-x="655" 
d="M186 30.5q-62 42.5 -97 120t-35 180.5t35 179.5t97 118t141 41.5q80 0 142 -41.5t96.5 -118t34.5 -179.5t-34.5 -180.5t-96.5 -120t-142 -42.5q-79 0 -141 42.5zM441.5 72.5q49.5 36.5 76.5 103t27 155.5t-27 155t-76.5 101.5t-114.5 35.5t-114 -35.5t-76 -101.5
t-27 -155q0 -88 27 -155t76.5 -103.5t113.5 -36.5q65 0 114.5 36.5zM356 728.5q-20 11.5 -43 32.5q-19 17 -32 25t-30 8q-22 0 -36.5 -20t-17.5 -54l-37 3q2 50 26 81.5t64 31.5q28 0 48 -11.5t43 -32.5q18 -17 31.5 -25.5t30.5 -8.5q21 0 35 19.5t19 54.5l37 -2
q-2 -50 -26 -81.5t-64 -31.5q-28 0 -48 11.5z" />
    <glyph glyph-name="Odieresis" unicode="&#xd6;" horiz-adv-x="655" 
d="M186 30.5q-62 42.5 -97 120t-35 180.5t35 179.5t97 118t141 41.5q80 0 142 -41.5t96.5 -118t34.5 -179.5t-34.5 -180.5t-96.5 -120t-142 -42.5q-79 0 -141 42.5zM441.5 72.5q49.5 36.5 76.5 103t27 155.5t-27 155t-76.5 101.5t-114.5 35.5t-114 -35.5t-76 -101.5
t-27 -155q0 -88 27 -155t76.5 -103.5t113.5 -36.5q65 0 114.5 36.5zM200 733.5q-11 10.5 -11 28.5q0 17 11 28t28 11t28 -11t11 -28q0 -18 -11 -28.5t-28 -10.5t-28 10.5zM398 733.5q-11 10.5 -11 28.5q0 17 11 28t28 11t28 -11t11 -28q0 -18 -11 -28.5t-28 -10.5t-28 10.5z
" />
    <glyph glyph-name="multiply" unicode="&#xd7;" 
d="M51 165l160 165l-160 165l30 32l160 -167l160 167l30 -32l-160 -165l160 -165l-30 -32l-160 167l-160 -167z" />
    <glyph glyph-name="Oslash" unicode="&#xd8;" horiz-adv-x="655" 
d="M585 465q18 -61 18 -134q0 -103 -34.5 -180.5t-96.5 -120t-142 -42.5q-52 0 -98 19t-81 55l-64 -86l-32 24l70 93q-68 93 -68 238q0 103 35 179.5t97 118t141 41.5q104 0 177 -70l61 82l32 -23l-67 -89q34 -44 52 -105zM159 138l317 421q-58 64 -146 64q-65 0 -114 -35.5
t-76 -101.5t-27 -155q0 -118 46 -193zM444.5 72.5q49.5 36.5 76.5 103t27 155.5q0 119 -48 195l-317 -422q28 -33 65.5 -50.5t81.5 -17.5q65 0 114.5 36.5z" />
    <glyph glyph-name="Ugrave" unicode="&#xd9;" horiz-adv-x="636" 
d="M156 50q-62 62 -62 206v403h53v-399q0 -120 47 -172t124 -52q78 0 126 52t48 172v399h51v-403q0 -144 -63 -206t-162 -62q-100 0 -162 62zM200 818l33 37l127 -124l-23 -26z" />
    <glyph glyph-name="Uacute" unicode="&#xda;" horiz-adv-x="636" 
d="M156 50q-62 62 -62 206v403h53v-399q0 -120 47 -172t124 -52q78 0 126 52t48 172v399h51v-403q0 -144 -63 -206t-162 -62q-100 0 -162 62zM274 731l127 124l33 -37l-137 -113z" />
    <glyph glyph-name="Ucircumflex" unicode="&#xdb;" horiz-adv-x="636" 
d="M156 50q-62 62 -62 206v403h53v-399q0 -120 47 -172t124 -52q78 0 126 52t48 172v399h51v-403q0 -144 -63 -206t-162 -62q-100 0 -162 62zM180 726l111 113h52l111 -113l-23 -20l-112 97h-4l-112 -97z" />
    <glyph glyph-name="Udieresis" unicode="&#xdc;" horiz-adv-x="636" 
d="M156 50q-62 62 -62 206v403h53v-399q0 -120 47 -172t124 -52q78 0 126 52t48 172v399h51v-403q0 -144 -63 -206t-162 -62q-100 0 -162 62zM190 733.5q-11 10.5 -11 28.5q0 17 11 28t28 11t28 -11t11 -28q0 -18 -11 -28.5t-28 -10.5t-28 10.5zM388 733.5
q-11 10.5 -11 28.5q0 17 11 28t28 11t28 -11t11 -28q0 -18 -11 -28.5t-28 -10.5t-28 10.5z" />
    <glyph glyph-name="Yacute" unicode="&#xdd;" horiz-adv-x="452" 
d="M200 265l-198 394h56l98 -203q33 -72 68 -142h4q2 5 5.5 11t7.5 14q7 14 26 50t32 67l97 203h54l-197 -394v-265h-53v265zM183 731l127 124l33 -37l-137 -113z" />
    <glyph glyph-name="Thorn" unicode="&#xde;" horiz-adv-x="567" 
d="M96 659h53v-117h131q116 0 176 -43t60 -142q0 -96 -62 -145t-174 -49h-131v-163h-53v659zM268 207q99 0 146.5 35.5t47.5 114.5q0 78 -46 109.5t-148 31.5h-119v-291h119z" />
    <glyph glyph-name="germandbls" unicode="&#xdf;" horiz-adv-x="549" 
d="M234 39l24 38q28 -24 55 -35t57 -11q46 0 72.5 28t26.5 67q0 31 -13.5 52.5t-33.5 35t-54 30.5q-35 18 -56 32.5t-35.5 37.5t-14.5 57q0 33 12.5 57t36.5 55t35.5 53t11.5 51q0 43 -24.5 70t-69.5 27q-57 0 -90 -42.5t-33 -127.5v-514h-51v529q0 92 47.5 145.5
t128.5 53.5q66 0 105 -38.5t39 -97.5q0 -37 -14 -64t-40 -60q-22 -28 -33 -48t-11 -44q0 -34 22 -53.5t66 -41.5q39 -20 62 -36.5t40 -44.5t17 -71q0 -61 -41.5 -101t-106.5 -40q-76 0 -137 51z" />
    <glyph glyph-name="agrave" unicode="&#xe0;" horiz-adv-x="494" 
d="M96 22q-39 34 -39 99q0 79 73 121.5t234 59.5q1 64 -23.5 105.5t-86.5 41.5q-76 0 -152 -55l-23 37q36 25 82.5 43.5t98.5 18.5q82 0 119 -51t37 -137v-305h-43l-6 62h-2q-89 -74 -169 -74q-61 0 -100 34zM282.5 50q36.5 18 81.5 56v159q-139 -17 -197 -50.5t-58 -90.5
q0 -47 27 -69.5t71 -22.5q39 0 75.5 18zM145 725l38 34l136 -159l-28 -26z" />
    <glyph glyph-name="aacute" unicode="&#xe1;" horiz-adv-x="494" 
d="M96 22q-39 34 -39 99q0 79 73 121.5t234 59.5q1 64 -23.5 105.5t-86.5 41.5q-76 0 -152 -55l-23 37q36 25 82.5 43.5t98.5 18.5q82 0 119 -51t37 -137v-305h-43l-6 62h-2q-89 -74 -169 -74q-61 0 -100 34zM282.5 50q36.5 18 81.5 56v159q-139 -17 -197 -50.5t-58 -90.5
q0 -47 27 -69.5t71 -22.5q39 0 75.5 18zM211 600l136 159l38 -34l-146 -151z" />
    <glyph glyph-name="acircumflex" unicode="&#xe2;" horiz-adv-x="494" 
d="M96 22q-39 34 -39 99q0 79 73 121.5t234 59.5q1 64 -23.5 105.5t-86.5 41.5q-76 0 -152 -55l-23 37q36 25 82.5 43.5t98.5 18.5q82 0 119 -51t37 -137v-305h-43l-6 62h-2q-89 -74 -169 -74q-61 0 -100 34zM282.5 50q36.5 18 81.5 56v159q-139 -17 -197 -50.5t-58 -90.5
q0 -47 27 -69.5t71 -22.5q39 0 75.5 18zM124 594l116 144h50l116 -144l-25 -22l-114 123h-4l-114 -123z" />
    <glyph glyph-name="atilde" unicode="&#xe3;" horiz-adv-x="494" 
d="M96 22q-39 34 -39 99q0 79 73 121.5t234 59.5q1 64 -23.5 105.5t-86.5 41.5q-76 0 -152 -55l-23 37q36 25 82.5 43.5t98.5 18.5q82 0 119 -51t37 -137v-305h-43l-6 62h-2q-89 -74 -169 -74q-61 0 -100 34zM282.5 50q36.5 18 81.5 56v159q-139 -17 -197 -50.5t-58 -90.5
q0 -47 27 -69.5t71 -22.5q39 0 75.5 18zM294 592.5q-19 13.5 -42 38.5q-20 21 -33 31t-29 10q-25 0 -37.5 -24.5t-14.5 -65.5l-38 3q3 56 24 91.5t67 35.5q26 0 45 -13.5t42 -38.5q20 -21 33 -31t30 -10q24 0 36.5 25t14.5 65l38 -3q-3 -55 -23.5 -91t-66.5 -36
q-27 0 -46 13.5z" />
    <glyph glyph-name="adieresis" unicode="&#xe4;" horiz-adv-x="494" 
d="M96 22q-39 34 -39 99q0 79 73 121.5t234 59.5q1 64 -23.5 105.5t-86.5 41.5q-76 0 -152 -55l-23 37q36 25 82.5 43.5t98.5 18.5q82 0 119 -51t37 -137v-305h-43l-6 62h-2q-89 -74 -169 -74q-61 0 -100 34zM282.5 50q36.5 18 81.5 56v159q-139 -17 -197 -50.5t-58 -90.5
q0 -47 27 -69.5t71 -22.5q39 0 75.5 18zM147 607q-11 11 -11 28t11 28t28 11q16 0 27.5 -11t11.5 -28q0 -16 -11.5 -27.5t-27.5 -11.5q-17 0 -28 11zM327.5 607.5q-11.5 11.5 -11.5 27.5q0 17 11.5 28t27.5 11q17 0 28 -11t11 -28t-11 -28t-28 -11q-16 0 -27.5 11.5z" />
    <glyph glyph-name="aring" unicode="&#xe5;" horiz-adv-x="494" 
d="M96 22q-39 34 -39 99q0 79 73 121.5t234 59.5q1 64 -23.5 105.5t-86.5 41.5q-76 0 -152 -55l-23 37q36 25 82.5 43.5t98.5 18.5q82 0 119 -51t37 -137v-305h-43l-6 62h-2q-89 -74 -169 -74q-61 0 -100 34zM282.5 50q36.5 18 81.5 56v159q-139 -17 -197 -50.5t-58 -90.5
q0 -47 27 -69.5t71 -22.5q39 0 75.5 18zM194 576q-28 27 -28 69t28 69t71 27t71 -27t28 -69t-28 -69t-71 -27t-71 27zM310.5 596q18.5 19 18.5 49t-18.5 49t-45.5 19t-45.5 -19t-18.5 -49t18.5 -49t45.5 -19t45.5 19z" />
    <glyph glyph-name="ae" unicode="&#xe6;" horiz-adv-x="784" 
d="M103.5 22q-39.5 34 -39.5 98q0 79 73 121.5t229 60.5q2 64 -22.5 105.5t-87.5 41.5q-39 0 -77 -16t-69 -39l-23 37q36 25 81 43.5t93 18.5q56 0 91.5 -31t48.5 -85q27 54 70.5 85t95.5 31q85 0 132.5 -59t47.5 -165q0 -19 -3 -37h-329q0 -58 22.5 -103.5t60.5 -71
t85 -25.5q36 0 64.5 10.5t58.5 31.5l21 -38q-36 -23 -69.5 -35.5t-80.5 -12.5q-58 0 -99 27t-72 71q-48 -46 -102 -72t-100 -26q-61 0 -100.5 34zM699 270q0 87 -35 133.5t-98 46.5q-38 0 -71 -22.5t-54 -63.5t-26 -94h284zM301.5 56q47.5 24 85.5 65q-9 20 -14.5 51.5
t-6.5 65.5v27q-134 -17 -192 -51t-58 -90q0 -47 27.5 -69.5t71.5 -22.5q39 0 86.5 24z" />
    <glyph glyph-name="ccedilla" unicode="&#xe7;" horiz-adv-x="450" 
d="M319.5 -89q18.5 -16 18.5 -45q0 -78 -149 -86l-7 32q62 4 87 16t25 36q0 21 -18 32.5t-60 17.5l36 75q-58 4 -103.5 35t-71.5 86.5t-26 129.5q0 78 30.5 135.5t81 87.5t110.5 30q45 0 78.5 -15.5t62.5 -42.5l-29 -36q-26 24 -52.5 37t-58.5 13q-48 0 -86.5 -26.5
t-61 -74.5t-22.5 -108q0 -61 21 -108t59.5 -73t88.5 -26q68 0 126 54l26 -36q-62 -55 -135 -62l-24 -54q35 -8 53.5 -24z" />
    <glyph glyph-name="egrave" unicode="&#xe8;" horiz-adv-x="485" 
d="M445 232h-344q1 -62 25.5 -107.5t64.5 -69.5t89 -24q68 0 127 42l21 -37q-35 -23 -70.5 -35.5t-82.5 -12.5q-62 0 -113.5 30.5t-81 87.5t-29.5 134q0 76 29.5 133.5t78 88.5t103.5 31q87 0 136.5 -59t49.5 -164q0 -20 -3 -38zM400 273q0 87 -36.5 132t-101.5 45
q-37 0 -71.5 -20t-58.5 -60t-29 -97h297zM143 725l38 34l136 -159l-28 -26z" />
    <glyph glyph-name="eacute" unicode="&#xe9;" horiz-adv-x="485" 
d="M445 232h-344q1 -62 25.5 -107.5t64.5 -69.5t89 -24q68 0 127 42l21 -37q-35 -23 -70.5 -35.5t-82.5 -12.5q-62 0 -113.5 30.5t-81 87.5t-29.5 134q0 76 29.5 133.5t78 88.5t103.5 31q87 0 136.5 -59t49.5 -164q0 -20 -3 -38zM400 273q0 87 -36.5 132t-101.5 45
q-37 0 -71.5 -20t-58.5 -60t-29 -97h297zM209 600l136 159l38 -34l-146 -151z" />
    <glyph glyph-name="ecircumflex" unicode="&#xea;" horiz-adv-x="485" 
d="M445 232h-344q1 -62 25.5 -107.5t64.5 -69.5t89 -24q68 0 127 42l21 -37q-35 -23 -70.5 -35.5t-82.5 -12.5q-62 0 -113.5 30.5t-81 87.5t-29.5 134q0 76 29.5 133.5t78 88.5t103.5 31q87 0 136.5 -59t49.5 -164q0 -20 -3 -38zM400 273q0 87 -36.5 132t-101.5 45
q-37 0 -71.5 -20t-58.5 -60t-29 -97h297zM122 594l116 144h50l116 -144l-25 -22l-114 123h-4l-114 -123z" />
    <glyph glyph-name="edieresis" unicode="&#xeb;" horiz-adv-x="485" 
d="M445 232h-344q1 -62 25.5 -107.5t64.5 -69.5t89 -24q68 0 127 42l21 -37q-35 -23 -70.5 -35.5t-82.5 -12.5q-62 0 -113.5 30.5t-81 87.5t-29.5 134q0 76 29.5 133.5t78 88.5t103.5 31q87 0 136.5 -59t49.5 -164q0 -20 -3 -38zM400 273q0 87 -36.5 132t-101.5 45
q-37 0 -71.5 -20t-58.5 -60t-29 -97h297zM145 607q-11 11 -11 28t11 28t28 11q16 0 27.5 -11t11.5 -28q0 -16 -11.5 -27.5t-27.5 -11.5q-17 0 -28 11zM325.5 607.5q-11.5 11.5 -11.5 27.5q0 17 11.5 28t27.5 11q17 0 28 -11t11 -28t-11 -28t-28 -11q-16 0 -27.5 11.5z" />
    <glyph glyph-name="igrave" unicode="&#xec;" horiz-adv-x="232" 
d="M90 481h52v-481h-52v481zM-3 725l38 34l136 -159l-28 -26z" />
    <glyph glyph-name="iacute" unicode="&#xed;" horiz-adv-x="232" 
d="M90 481h52v-481h-52v481zM63 600l136 159l38 -34l-146 -151z" />
    <glyph glyph-name="icircumflex" unicode="&#xee;" horiz-adv-x="232" 
d="M90 481h52v-481h-52v481zM-24 594l116 144h50l116 -144l-25 -22l-114 123h-4l-114 -123z" />
    <glyph glyph-name="idieresis" unicode="&#xef;" horiz-adv-x="232" 
d="M90 481h52v-481h-52v481zM-1 607q-11 11 -11 28t11 28t28 11q16 0 27.5 -11t11.5 -28q0 -16 -11.5 -27.5t-27.5 -11.5q-17 0 -28 11zM179.5 607.5q-11.5 11.5 -11.5 27.5q0 17 11.5 28t27.5 11q17 0 28 -11t11 -28t-11 -28t-28 -11q-16 0 -27.5 11.5z" />
    <glyph glyph-name="eth" unicode="&#xf0;" horiz-adv-x="537" 
d="M472 253q0 -79 -25.5 -139t-72 -93t-107.5 -33q-54 0 -102 28.5t-77.5 81t-29.5 122.5q0 65 26.5 116t73.5 79t108 28q41 0 78.5 -18.5t65.5 -54.5q-24 127 -114 215l-141 -73l-17 30l131 68q-46 39 -121 81l25 34q85 -46 138 -94l142 74l17 -30l-133 -69
q135 -137 135 -353zM382.5 93.5q38.5 60.5 38.5 158.5q0 34 -3 62q-35 49 -71.5 67.5t-77.5 18.5q-75 0 -117.5 -51.5t-42.5 -128.5q0 -54 21.5 -96.5t58 -66.5t79.5 -24q76 0 114.5 60.5z" />
    <glyph glyph-name="ntilde" unicode="&#xf1;" horiz-adv-x="534" 
d="M90 481h43l6 -73h2q41 41 80 63t85 22q75 0 110.5 -45.5t35.5 -139.5v-308h-52v301q0 76 -25 111.5t-81 35.5q-40 0 -73.5 -20.5t-78.5 -67.5v-360h-52v481zM313 592.5q-19 13.5 -42 38.5q-20 21 -33 31t-29 10q-25 0 -37.5 -24.5t-14.5 -65.5l-38 3q3 56 24 91.5
t67 35.5q26 0 45 -13.5t42 -38.5q20 -21 33 -31t30 -10q24 0 36.5 25t14.5 65l38 -3q-3 -55 -23.5 -91t-66.5 -36q-27 0 -46 13.5z" />
    <glyph glyph-name="ograve" unicode="&#xf2;" horiz-adv-x="536" 
d="M159.5 18.5q-49.5 30.5 -79 87.5t-29.5 134q0 78 29.5 135.5t79 87.5t108.5 30t109 -30t79.5 -87.5t29.5 -135.5q0 -77 -29.5 -134t-79.5 -87.5t-109 -30.5t-108.5 30.5zM352.5 59q37.5 26 58.5 73t21 108t-21 108.5t-58.5 74t-84.5 26.5t-84 -26.5t-58.5 -74
t-21.5 -108.5t21.5 -108t58.5 -73t84 -26t84.5 26zM148 725l38 34l136 -159l-28 -26z" />
    <glyph glyph-name="oacute" unicode="&#xf3;" horiz-adv-x="536" 
d="M159.5 18.5q-49.5 30.5 -79 87.5t-29.5 134q0 78 29.5 135.5t79 87.5t108.5 30t109 -30t79.5 -87.5t29.5 -135.5q0 -77 -29.5 -134t-79.5 -87.5t-109 -30.5t-108.5 30.5zM352.5 59q37.5 26 58.5 73t21 108t-21 108.5t-58.5 74t-84.5 26.5t-84 -26.5t-58.5 -74
t-21.5 -108.5t21.5 -108t58.5 -73t84 -26t84.5 26zM214 600l136 159l38 -34l-146 -151z" />
    <glyph glyph-name="ocircumflex" unicode="&#xf4;" horiz-adv-x="536" 
d="M159.5 18.5q-49.5 30.5 -79 87.5t-29.5 134q0 78 29.5 135.5t79 87.5t108.5 30t109 -30t79.5 -87.5t29.5 -135.5q0 -77 -29.5 -134t-79.5 -87.5t-109 -30.5t-108.5 30.5zM352.5 59q37.5 26 58.5 73t21 108t-21 108.5t-58.5 74t-84.5 26.5t-84 -26.5t-58.5 -74
t-21.5 -108.5t21.5 -108t58.5 -73t84 -26t84.5 26zM127 594l116 144h50l116 -144l-25 -22l-114 123h-4l-114 -123z" />
    <glyph glyph-name="otilde" unicode="&#xf5;" horiz-adv-x="536" 
d="M159.5 18.5q-49.5 30.5 -79 87.5t-29.5 134q0 78 29.5 135.5t79 87.5t108.5 30t109 -30t79.5 -87.5t29.5 -135.5q0 -77 -29.5 -134t-79.5 -87.5t-109 -30.5t-108.5 30.5zM352.5 59q37.5 26 58.5 73t21 108t-21 108.5t-58.5 74t-84.5 26.5t-84 -26.5t-58.5 -74
t-21.5 -108.5t21.5 -108t58.5 -73t84 -26t84.5 26zM297 592.5q-19 13.5 -42 38.5q-20 21 -33 31t-29 10q-25 0 -37.5 -24.5t-14.5 -65.5l-38 3q3 56 24 91.5t67 35.5q26 0 45 -13.5t42 -38.5q20 -21 33 -31t30 -10q24 0 36.5 25t14.5 65l38 -3q-3 -55 -23.5 -91t-66.5 -36
q-27 0 -46 13.5z" />
    <glyph glyph-name="odieresis" unicode="&#xf6;" horiz-adv-x="536" 
d="M159.5 18.5q-49.5 30.5 -79 87.5t-29.5 134q0 78 29.5 135.5t79 87.5t108.5 30t109 -30t79.5 -87.5t29.5 -135.5q0 -77 -29.5 -134t-79.5 -87.5t-109 -30.5t-108.5 30.5zM352.5 59q37.5 26 58.5 73t21 108t-21 108.5t-58.5 74t-84.5 26.5t-84 -26.5t-58.5 -74
t-21.5 -108.5t21.5 -108t58.5 -73t84 -26t84.5 26zM150 607q-11 11 -11 28t11 28t28 11q16 0 27.5 -11t11.5 -28q0 -16 -11.5 -27.5t-27.5 -11.5q-17 0 -28 11zM330.5 607.5q-11.5 11.5 -11.5 27.5q0 17 11.5 28t27.5 11q17 0 28 -11t11 -28t-11 -28t-28 -11
q-16 0 -27.5 11.5z" />
    <glyph glyph-name="divide" unicode="&#xf7;" 
d="M211.5 479q-11.5 12 -11.5 31t12 30.5t29 11.5q18 0 29.5 -11.5t11.5 -30.5t-11.5 -31t-29.5 -12t-29.5 12zM34 351h414v-42h-414v42zM212 118.5q-12 12.5 -12 31.5t12 30.5t29 11.5q18 0 29.5 -11.5t11.5 -30.5t-12 -31.5t-29 -12.5t-29 12.5z" />
    <glyph glyph-name="oslash" unicode="&#xf8;" horiz-adv-x="536" 
d="M433 412q53 -69 53 -172q0 -77 -29.5 -134t-79.5 -87.5t-109 -30.5q-39 0 -75.5 14t-64.5 40l-54 -65l-28 23l57 69q-52 70 -52 171q0 78 29.5 135.5t79 87.5t108.5 30q39 0 75.5 -14t65.5 -40l53 64l28 -23zM136 109l242 292q-46 49 -110 49q-47 0 -84.5 -26.5
t-59 -74.5t-21.5 -108q0 -79 33 -132zM400 371l-242 -292q45 -47 110 -47q47 0 84.5 26t59 73t21.5 107q0 78 -33 133z" />
    <glyph glyph-name="ugrave" unicode="&#xf9;" horiz-adv-x="532" 
d="M118.5 33.5q-35.5 45.5 -35.5 139.5v308h51v-301q0 -75 25.5 -110.5t80.5 -35.5q41 0 74.5 22t76.5 73v352h51v-481h-43l-5 80h-3q-38 -45 -76.5 -68.5t-85.5 -23.5q-75 0 -110.5 45.5zM148 725l38 34l136 -159l-28 -26z" />
    <glyph glyph-name="uacute" unicode="&#xfa;" horiz-adv-x="532" 
d="M118.5 33.5q-35.5 45.5 -35.5 139.5v308h51v-301q0 -75 25.5 -110.5t80.5 -35.5q41 0 74.5 22t76.5 73v352h51v-481h-43l-5 80h-3q-38 -45 -76.5 -68.5t-85.5 -23.5q-75 0 -110.5 45.5zM214 600l136 159l38 -34l-146 -151z" />
    <glyph glyph-name="ucircumflex" unicode="&#xfb;" horiz-adv-x="532" 
d="M118.5 33.5q-35.5 45.5 -35.5 139.5v308h51v-301q0 -75 25.5 -110.5t80.5 -35.5q41 0 74.5 22t76.5 73v352h51v-481h-43l-5 80h-3q-38 -45 -76.5 -68.5t-85.5 -23.5q-75 0 -110.5 45.5zM127 594l116 144h50l116 -144l-25 -22l-114 123h-4l-114 -123z" />
    <glyph glyph-name="udieresis" unicode="&#xfc;" horiz-adv-x="532" 
d="M118.5 33.5q-35.5 45.5 -35.5 139.5v308h51v-301q0 -75 25.5 -110.5t80.5 -35.5q41 0 74.5 22t76.5 73v352h51v-481h-43l-5 80h-3q-38 -45 -76.5 -68.5t-85.5 -23.5q-75 0 -110.5 45.5zM150 607q-11 11 -11 28t11 28t28 11q16 0 27.5 -11t11.5 -28q0 -16 -11.5 -27.5
t-27.5 -11.5q-17 0 -28 11zM330.5 607.5q-11.5 11.5 -11.5 27.5q0 17 11.5 28t27.5 11q17 0 28 -11t11 -28t-11 -28t-28 -11q-16 0 -27.5 11.5z" />
    <glyph glyph-name="yacute" unicode="&#xfd;" horiz-adv-x="442" 
d="M25 -207l12 43q23 -7 39 -7q41 0 71 33t49 90l13 40l-197 489h55l112 -295l52 -136h4q8 24 14.5 44t11.5 35l18 57l99 295h52l-189 -538q-54 -160 -165 -160q-28 0 -51 10zM178 600l136 159l38 -34l-146 -151z" />
    <glyph glyph-name="thorn" unicode="&#xfe;" horiz-adv-x="546" 
d="M90 718h52v-205l-1 -89q90 69 160 69q95 0 144.5 -65.5t49.5 -179.5q0 -79 -29 -138t-77.5 -90.5t-105.5 -31.5q-65 0 -142 58l1 -87v-174h-52v933zM362.5 60q36.5 27 57.5 76t21 112q0 93 -36 147t-112 54q-65 0 -151 -77v-279q37 -31 72.5 -45.5t64.5 -14.5
q47 0 83.5 27z" />
    <glyph glyph-name="ydieresis" unicode="&#xff;" horiz-adv-x="442" 
d="M25 -207l12 43q23 -7 39 -7q41 0 71 33t49 90l13 40l-197 489h55l112 -295l52 -136h4q8 24 14.5 44t11.5 35l18 57l99 295h52l-189 -538q-54 -160 -165 -160q-28 0 -51 10zM114 607q-11 11 -11 28t11 28t28 11q16 0 27.5 -11t11.5 -28q0 -16 -11.5 -27.5t-27.5 -11.5
q-17 0 -28 11zM294.5 607.5q-11.5 11.5 -11.5 27.5q0 17 11.5 28t27.5 11q17 0 28 -11t11 -28t-11 -28t-28 -11q-16 0 -27.5 11.5z" />
    <glyph glyph-name="Amacron" unicode="&#x100;" horiz-adv-x="530" 
d="M392 221h-256l-75 -221h-54l230 659h55l231 -659h-57zM378 265l-40 119q-45 133 -72 226h-4q-25 -90 -71 -226l-40 -119h227zM138 782h252v-40h-252v40z" />
    <glyph glyph-name="amacron" unicode="&#x101;" horiz-adv-x="494" 
d="M96 22q-39 34 -39 99q0 79 73 121.5t234 59.5q1 64 -23.5 105.5t-86.5 41.5q-76 0 -152 -55l-23 37q36 25 82.5 43.5t98.5 18.5q82 0 119 -51t37 -137v-305h-43l-6 62h-2q-89 -74 -169 -74q-61 0 -100 34zM282.5 50q36.5 18 81.5 56v159q-139 -17 -197 -50.5t-58 -90.5
q0 -47 27 -69.5t71 -22.5q39 0 75.5 18zM140 645h250v-40h-250v40z" />
    <glyph glyph-name="Abreve" unicode="&#x102;" horiz-adv-x="530" 
d="M392 221h-256l-75 -221h-54l230 659h55l231 -659h-57zM378 265l-40 119q-45 133 -72 226h-4q-25 -90 -71 -226l-40 -119h227zM167.5 745.5q-34.5 36.5 -41.5 88.5l36 6q7 -41 32.5 -67.5t69.5 -26.5t69.5 26.5t32.5 67.5l36 -6q-7 -52 -41.5 -88.5t-96.5 -36.5
t-96.5 36.5z" />
    <glyph glyph-name="abreve" unicode="&#x103;" horiz-adv-x="494" 
d="M96 22q-39 34 -39 99q0 79 73 121.5t234 59.5q1 64 -23.5 105.5t-86.5 41.5q-76 0 -152 -55l-23 37q36 25 82.5 43.5t98.5 18.5q82 0 119 -51t37 -137v-305h-43l-6 62h-2q-89 -74 -169 -74q-61 0 -100 34zM282.5 50q36.5 18 81.5 56v159q-139 -17 -197 -50.5t-58 -90.5
q0 -47 27 -69.5t71 -22.5q39 0 75.5 18zM158 614.5q-37 44.5 -43 103.5l36 6q7 -47 36 -81.5t78 -34.5t78 34.5t36 81.5l36 -6q-6 -59 -42.5 -103.5t-107.5 -44.5q-70 0 -107 44.5z" />
    <glyph glyph-name="Ccaron" unicode="&#x10c;" horiz-adv-x="566" 
d="M188 30q-63 42 -98.5 119.5t-35.5 180.5t36 180t100 118.5t148 41.5q54 0 98.5 -22.5t74.5 -56.5l-31 -35q-59 67 -142 67q-69 0 -120.5 -35.5t-79.5 -101.5t-28 -155t27.5 -156t78 -103t119.5 -36q49 0 88.5 19.5t74.5 60.5l31 -34q-40 -46 -87.5 -70t-109.5 -24
q-81 0 -144 42zM186 822l23 20l112 -97h4l112 97l23 -20l-111 -113h-52z" />
    <glyph glyph-name="ccaron" unicode="&#x10d;" horiz-adv-x="450" 
d="M157.5 18q-49.5 30 -78 87t-28.5 135t30.5 135.5t81 87.5t110.5 30q45 0 78.5 -15.5t62.5 -42.5l-29 -36q-26 24 -52.5 37t-58.5 13q-48 0 -86.5 -26.5t-61 -74.5t-22.5 -108q0 -61 21 -108t59.5 -73t88.5 -26q68 0 126 54l26 -36q-72 -63 -155 -63q-63 0 -112.5 30z
M129 716l25 23l114 -123h4l114 123l25 -23l-116 -143h-50z" />
    <glyph glyph-name="Emacron" unicode="&#x112;" horiz-adv-x="517" 
d="M96 659h364v-46h-311v-241h261v-46h-261v-281h321v-45h-374v659zM157 782h252v-40h-252v40z" />
    <glyph glyph-name="emacron" unicode="&#x113;" horiz-adv-x="485" 
d="M445 232h-344q1 -62 25.5 -107.5t64.5 -69.5t89 -24q68 0 127 42l21 -37q-35 -23 -70.5 -35.5t-82.5 -12.5q-62 0 -113.5 30.5t-81 87.5t-29.5 134q0 76 29.5 133.5t78 88.5t103.5 31q87 0 136.5 -59t49.5 -164q0 -20 -3 -38zM400 273q0 87 -36.5 132t-101.5 45
q-37 0 -71.5 -20t-58.5 -60t-29 -97h297zM138 645h250v-40h-250v40z" />
    <glyph glyph-name="Ebreve" unicode="&#x114;" horiz-adv-x="517" 
d="M96 659h364v-46h-311v-241h261v-46h-261v-281h321v-45h-374v659zM186.5 745.5q-34.5 36.5 -41.5 88.5l36 6q7 -41 32.5 -67.5t69.5 -26.5t69.5 26.5t32.5 67.5l36 -6q-7 -52 -41.5 -88.5t-96.5 -36.5t-96.5 36.5z" />
    <glyph glyph-name="ebreve" unicode="&#x115;" horiz-adv-x="485" 
d="M445 232h-344q1 -62 25.5 -107.5t64.5 -69.5t89 -24q68 0 127 42l21 -37q-35 -23 -70.5 -35.5t-82.5 -12.5q-62 0 -113.5 30.5t-81 87.5t-29.5 134q0 76 29.5 133.5t78 88.5t103.5 31q87 0 136.5 -59t49.5 -164q0 -20 -3 -38zM400 273q0 87 -36.5 132t-101.5 45
q-37 0 -71.5 -20t-58.5 -60t-29 -97h297zM156 614.5q-37 44.5 -43 103.5l36 6q7 -47 36 -81.5t78 -34.5t78 34.5t36 81.5l36 -6q-6 -59 -42.5 -103.5t-107.5 -44.5q-70 0 -107 44.5z" />
    <glyph glyph-name="Eogonek" unicode="&#x118;" horiz-adv-x="517" 
d="M353.5 -184.5q-24.5 21.5 -24.5 61.5q0 37 21 70t52 53h-306v659h364v-46h-311v-241h261v-46h-261v-281h321v-45h-3q-36 -7 -65 -40t-29 -75q0 -24 15 -37.5t35 -13.5q21 0 43 14l17 -30q-12 -10 -31.5 -17t-36.5 -7q-37 0 -61.5 21.5z" />
    <glyph glyph-name="eogonek" unicode="&#x119;" horiz-adv-x="485" 
d="M296 -182.5q-23 21.5 -23 61.5q0 33 18.5 64.5t43.5 53.5q-26 -9 -60 -9q-62 0 -113.5 30.5t-81 87.5t-29.5 134q0 76 29.5 133.5t78 88.5t103.5 31q87 0 136.5 -59t49.5 -164q0 -20 -3 -38h-342q2 -89 50.5 -145t126.5 -56q68 0 127 42l21 -37q-62 -46 -87.5 -81
t-25.5 -69q0 -24 14 -37.5t35 -13.5q22 0 42 14l17 -28q-12 -11 -31.5 -18t-35.5 -7q-37 0 -60 21.5zM400 273q0 87 -36.5 132t-101.5 45q-39 0 -74 -21.5t-57.5 -61.5t-27.5 -94h297z" />
    <glyph glyph-name="Gdotaccent" unicode="&#x120;" horiz-adv-x="607" 
d="M190.5 30q-64.5 42 -100.5 119t-36 181q0 103 37 180t103.5 118.5t153.5 41.5q106 0 181 -79l-30 -35q-62 67 -150 67q-73 0 -127 -35.5t-83 -101.5t-29 -155q0 -136 62 -215.5t172 -79.5q43 0 81 12.5t61 34.5v199h-154v45h204v-264q-32 -34 -82.5 -54.5t-113.5 -20.5
q-85 0 -149.5 42zM316.5 732q-12.5 12 -12.5 31q0 18 12.5 30t30.5 12t30.5 -12t12.5 -30q0 -19 -12.5 -31t-30.5 -12t-30.5 12z" />
    <glyph glyph-name="gdotaccent" unicode="&#x121;" horiz-adv-x="490" 
d="M104 -194q-54 36 -54 97q0 31 19.5 61t52.5 53v4q-19 12 -31 32t-12 46q0 28 16 51t37 38v4q-26 22 -43.5 56t-17.5 75q0 49 23 87.5t62 60.5t86 22q39 0 65 -12h164v-42h-109q23 -20 36.5 -51t13.5 -66q0 -49 -22.5 -87.5t-61.5 -60t-86 -21.5q-20 0 -41 5t-37 15
q-17 -15 -27 -31t-10 -37q0 -60 90 -60h102q81 0 120.5 -27.5t39.5 -84.5q0 -42 -29 -79.5t-81 -60.5t-120 -23q-91 0 -145 36zM327.5 229q35.5 37 35.5 94q0 58 -35 93.5t-86 35.5t-85.5 -35.5t-34.5 -93.5q0 -38 16.5 -68t44 -46.5t59.5 -16.5q50 0 85.5 37zM344.5 -173
q39.5 17 61 44t21.5 56q0 38 -26.5 54.5t-81.5 16.5h-100q-28 0 -60 8q-30 -21 -45 -46.5t-15 -50.5q0 -45 41 -72t114 -27q51 0 90.5 17zM224 606.5q-12 12.5 -12 31.5q0 18 12 30t29 12t29 -12t12 -30q0 -19 -12 -31.5t-29 -12.5t-29 12.5z" />
    <glyph glyph-name="Hbar" unicode="&#x126;" horiz-adv-x="674" 
d="M639 494h-74v-494h-53v326h-343v-326h-53v494h-80v32l80 4v129h53v-129h343v129h53v-129h74v-36zM512 494h-343v-122h343v122z" />
    <glyph glyph-name="hbar" unicode="&#x127;" horiz-adv-x="531" 
d="M416.5 412.5q35.5 -45.5 35.5 -139.5v-273h-52v266q0 76 -25 111.5t-81 35.5q-40 0 -73.5 -20.5t-78.5 -67.5v-325h-52v579h-76v31l76 5v103h52v-103h187v-36h-187v-102l-2 -105q43 42 81.5 64t84.5 22q75 0 110.5 -45.5z" />
    <glyph glyph-name="Imacron" unicode="&#x12a;" horiz-adv-x="245" 
d="M96 659h53v-659h-53v659zM-4 782h252v-40h-252v40z" />
    <glyph glyph-name="imacron" unicode="&#x12b;" horiz-adv-x="232" 
d="M90 481h52v-481h-52v481zM-8 645h250v-40h-250v40z" />
    <glyph glyph-name="dotlessi" unicode="&#x131;" horiz-adv-x="232" 
d="M90 481h52v-481h-52v481z" />
    <glyph glyph-name="Lslash" unicode="&#x141;" horiz-adv-x="472" 
d="M454 45v-45h-353v254l-78 -42l-21 36l99 52v359h53v-335l183 97l21 -36l-204 -106v-234h300z" />
    <glyph glyph-name="lslash" unicode="&#x142;" horiz-adv-x="243" 
d="M183 35l8 -42q-3 -1 -12.5 -3t-22.5 -2q-64 0 -64 83v287l-64 -41l-20 35l84 53v313h52v-284l56 37l20 -34l-76 -50v-322q0 -16 6 -24t15 -8q8 0 18 2z" />
    <glyph glyph-name="Omacron" unicode="&#x14c;" horiz-adv-x="655" 
d="M186 30.5q-62 42.5 -97 120t-35 180.5t35 179.5t97 118t141 41.5q80 0 142 -41.5t96.5 -118t34.5 -179.5t-34.5 -180.5t-96.5 -120t-142 -42.5q-79 0 -141 42.5zM441.5 72.5q49.5 36.5 76.5 103t27 155.5t-27 155t-76.5 101.5t-114.5 35.5t-114 -35.5t-76 -101.5
t-27 -155q0 -88 27 -155t76.5 -103.5t113.5 -36.5q65 0 114.5 36.5zM201 782h252v-40h-252v40z" />
    <glyph glyph-name="omacron" unicode="&#x14d;" horiz-adv-x="536" 
d="M159.5 18.5q-49.5 30.5 -79 87.5t-29.5 134q0 78 29.5 135.5t79 87.5t108.5 30t109 -30t79.5 -87.5t29.5 -135.5q0 -77 -29.5 -134t-79.5 -87.5t-109 -30.5t-108.5 30.5zM352.5 59q37.5 26 58.5 73t21 108t-21 108.5t-58.5 74t-84.5 26.5t-84 -26.5t-58.5 -74
t-21.5 -108.5t21.5 -108t58.5 -73t84 -26t84.5 26zM143 645h250v-40h-250v40z" />
    <glyph glyph-name="Obreve" unicode="&#x14e;" horiz-adv-x="655" 
d="M186 30.5q-62 42.5 -97 120t-35 180.5t35 179.5t97 118t141 41.5q80 0 142 -41.5t96.5 -118t34.5 -179.5t-34.5 -180.5t-96.5 -120t-142 -42.5q-79 0 -141 42.5zM441.5 72.5q49.5 36.5 76.5 103t27 155.5t-27 155t-76.5 101.5t-114.5 35.5t-114 -35.5t-76 -101.5
t-27 -155q0 -88 27 -155t76.5 -103.5t113.5 -36.5q65 0 114.5 36.5zM230.5 745.5q-34.5 36.5 -41.5 88.5l36 6q7 -41 32.5 -67.5t69.5 -26.5t69.5 26.5t32.5 67.5l36 -6q-7 -52 -41.5 -88.5t-96.5 -36.5t-96.5 36.5z" />
    <glyph glyph-name="obreve" unicode="&#x14f;" horiz-adv-x="536" 
d="M159.5 18.5q-49.5 30.5 -79 87.5t-29.5 134q0 78 29.5 135.5t79 87.5t108.5 30t109 -30t79.5 -87.5t29.5 -135.5q0 -77 -29.5 -134t-79.5 -87.5t-109 -30.5t-108.5 30.5zM352.5 59q37.5 26 58.5 73t21 108t-21 108.5t-58.5 74t-84.5 26.5t-84 -26.5t-58.5 -74
t-21.5 -108.5t21.5 -108t58.5 -73t84 -26t84.5 26zM161 614.5q-37 44.5 -43 103.5l36 6q7 -47 36 -81.5t78 -34.5t78 34.5t36 81.5l36 -6q-6 -59 -42.5 -103.5t-107.5 -44.5q-70 0 -107 44.5z" />
    <glyph glyph-name="OE" unicode="&#x152;" horiz-adv-x="836" 
d="M135 88.5q-81 88.5 -81 242.5t81 241t234 87h410v-46h-292v-241h242v-46h-242v-281h302v-45h-422q-151 0 -232 88.5zM434 45v569h-60q-131 0 -197.5 -75.5t-66.5 -207.5q0 -133 66.5 -209.5t197.5 -76.5h60z" />
    <glyph glyph-name="oe" unicode="&#x153;" horiz-adv-x="847" 
d="M157.5 18.5q-48.5 30.5 -77.5 87.5t-29 134q0 78 29 135.5t78 87.5t106 30q59 0 109 -36t75 -102q26 64 73.5 101t104.5 37q86 0 134.5 -59.5t48.5 -164.5q0 -19 -3 -37h-333q0 -57 22.5 -103t60.5 -71.5t85 -25.5q68 0 128 42l20 -38q-34 -23 -69.5 -35.5t-83.5 -12.5
q-62 0 -111.5 36.5t-76.5 100.5q-28 -68 -75 -102.5t-110 -34.5q-57 0 -105.5 30.5zM762 270q0 87 -36.5 133.5t-100.5 46.5q-38 0 -71.5 -23t-55 -64t-25.5 -93h289zM346 59q36 26 56.5 73t20.5 108t-20.5 108.5t-56.5 74t-82 26.5t-82.5 -26.5t-57 -74t-20.5 -108.5
t20.5 -108t57 -73t82.5 -26t82 26z" />
    <glyph glyph-name="Sacute" unicode="&#x15a;" horiz-adv-x="523" 
d="M144.5 14.5q-56.5 26.5 -98.5 72.5l33 36q37 -41 86.5 -64t104.5 -23q73 0 116 35t43 92q0 38 -15 62t-38 39t-64 33l-99 44q-59 26 -96 63t-37 102q0 47 25 84.5t69.5 58.5t99.5 21q56 0 104 -22t82 -57l-30 -35q-64 67 -156 67q-63 0 -102 -31t-39 -83
q0 -34 16.5 -57.5t39 -37t57.5 -29.5l99 -43q66 -29 102 -68t36 -107q0 -50 -26.5 -91t-75 -64.5t-111.5 -23.5q-69 0 -125.5 26.5zM229 731l127 124l33 -37l-137 -113z" />
    <glyph glyph-name="sacute" unicode="&#x15b;" horiz-adv-x="408" 
d="M113 6.5q-46 18.5 -81 48.5l28 36q35 -29 70 -44.5t81 -15.5q52 0 81.5 26t29.5 65t-31 61.5t-85 42.5q-47 16 -78 32t-52.5 42t-21.5 64q0 55 42 92t115 37q39 0 75.5 -14t64.5 -36l-26 -36q-29 21 -55.5 32.5t-58.5 11.5q-51 0 -78.5 -24.5t-27.5 -59.5q0 -25 15 -42.5
t37 -28t61 -24.5q56 -21 84 -35t49.5 -41t21.5 -71q0 -37 -19.5 -68.5t-56.5 -50t-88 -18.5q-50 0 -96 18.5zM159 600l136 159l38 -34l-146 -151z" />
    <glyph glyph-name="Scaron" unicode="&#x160;" horiz-adv-x="523" 
d="M144.5 14.5q-56.5 26.5 -98.5 72.5l33 36q37 -41 86.5 -64t104.5 -23q73 0 116 35t43 92q0 38 -15 62t-38 39t-64 33l-99 44q-59 26 -96 63t-37 102q0 47 25 84.5t69.5 58.5t99.5 21q56 0 104 -22t82 -57l-30 -35q-64 67 -156 67q-63 0 -102 -31t-39 -83
q0 -34 16.5 -57.5t39 -37t57.5 -29.5l99 -43q66 -29 102 -68t36 -107q0 -50 -26.5 -91t-75 -64.5t-111.5 -23.5q-69 0 -125.5 26.5zM135 822l23 20l112 -97h4l112 97l23 -20l-111 -113h-52z" />
    <glyph glyph-name="scaron" unicode="&#x161;" horiz-adv-x="408" 
d="M113 6.5q-46 18.5 -81 48.5l28 36q35 -29 70 -44.5t81 -15.5q52 0 81.5 26t29.5 65t-31 61.5t-85 42.5q-47 16 -78 32t-52.5 42t-21.5 64q0 55 42 92t115 37q39 0 75.5 -14t64.5 -36l-26 -36q-29 21 -55.5 32.5t-58.5 11.5q-51 0 -78.5 -24.5t-27.5 -59.5q0 -25 15 -42.5
t37 -28t61 -24.5q56 -21 84 -35t49.5 -41t21.5 -71q0 -37 -19.5 -68.5t-56.5 -50t-88 -18.5q-50 0 -96 18.5zM72 716l25 23l114 -123h4l114 123l25 -23l-116 -143h-50z" />
    <glyph glyph-name="Umacron" unicode="&#x16a;" horiz-adv-x="636" 
d="M156 50q-62 62 -62 206v403h53v-399q0 -120 47 -172t124 -52q78 0 126 52t48 172v399h51v-403q0 -144 -63 -206t-162 -62q-100 0 -162 62zM191 782h252v-40h-252v40z" />
    <glyph glyph-name="umacron" unicode="&#x16b;" horiz-adv-x="532" 
d="M118.5 33.5q-35.5 45.5 -35.5 139.5v308h51v-301q0 -75 25.5 -110.5t80.5 -35.5q41 0 74.5 22t76.5 73v352h51v-481h-43l-5 80h-3q-38 -45 -76.5 -68.5t-85.5 -23.5q-75 0 -110.5 45.5zM143 645h250v-40h-250v40z" />
    <glyph glyph-name="Ydieresis" unicode="&#x178;" horiz-adv-x="452" 
d="M200 265l-198 394h56l98 -203q33 -72 68 -142h4q2 5 5.5 11t7.5 14q7 14 26 50t32 67l97 203h54l-197 -394v-265h-53v265zM99 733.5q-11 10.5 -11 28.5q0 17 11 28t28 11t28 -11t11 -28q0 -18 -11 -28.5t-28 -10.5t-28 10.5zM297 733.5q-11 10.5 -11 28.5q0 17 11 28
t28 11t28 -11t11 -28q0 -18 -11 -28.5t-28 -10.5t-28 10.5z" />
    <glyph glyph-name="Zcaron" unicode="&#x17d;" horiz-adv-x="539" 
d="M49 31l373 582h-340v46h406v-31l-373 -583h377v-45h-443v31zM142 822l23 20l112 -97h4l112 97l23 -20l-111 -113h-52z" />
    <glyph glyph-name="zcaron" unicode="&#x17e;" horiz-adv-x="408" 
d="M28 27l279 410h-248v44h314v-27l-279 -410h288v-44h-354v27zM82 716l25 23l114 -123h4l114 123l25 -23l-116 -143h-50z" />
    <glyph glyph-name="uni018F" unicode="&#x18f;" horiz-adv-x="650" 
d="M525.5 581.5q70.5 -88.5 70.5 -250.5q0 -107 -33.5 -184.5t-95 -118t-144.5 -40.5q-81 0 -140 42.5t-90 118.5t-31 176v14h481q-2 138 -57.5 212.5t-160.5 74.5q-48 0 -92 -18t-76 -49l-27 36q35 34 86 54.5t111 20.5q128 0 198.5 -88.5zM477.5 102.5
q57.5 69.5 64.5 194.5h-427q2 -80 29 -139.5t73 -92t106 -32.5q97 0 154.5 69.5z" />
    <glyph glyph-name="florin" unicode="&#x192;" 
d="M273 471l-7 -65h135v-43h-140l-29 -260q-10 -98 -46 -149.5t-108 -51.5q-39 0 -66 16l13 40q24 -12 53 -12q49 0 73 42.5t32 120.5l28 254h-94v39l68 4h30l7 62q11 99 46.5 150.5t103.5 51.5q36 0 74 -17l-13 -42q-15 7 -28.5 11t-31.5 4q-84 0 -100 -155z" />
    <glyph glyph-name="Gcaron" unicode="&#x1e6;" horiz-adv-x="607" 
d="M190.5 30q-64.5 42 -100.5 119t-36 181q0 103 37 180t103.5 118.5t153.5 41.5q106 0 181 -79l-30 -35q-62 67 -150 67q-73 0 -127 -35.5t-83 -101.5t-29 -155q0 -136 62 -215.5t172 -79.5q43 0 81 12.5t61 34.5v199h-154v45h204v-264q-32 -34 -82.5 -54.5t-113.5 -20.5
q-85 0 -149.5 42zM210 822l23 20l112 -97h4l112 97l23 -20l-111 -113h-52z" />
    <glyph glyph-name="gcaron" unicode="&#x1e7;" horiz-adv-x="490" 
d="M104 -194q-54 36 -54 97q0 31 19.5 61t52.5 53v4q-19 12 -31 32t-12 46q0 28 16 51t37 38v4q-26 22 -43.5 56t-17.5 75q0 49 23 87.5t62 60.5t86 22q39 0 65 -12h164v-42h-109q23 -20 36.5 -51t13.5 -66q0 -49 -22.5 -87.5t-61.5 -60t-86 -21.5q-20 0 -41 5t-37 15
q-17 -15 -27 -31t-10 -37q0 -60 90 -60h102q81 0 120.5 -27.5t39.5 -84.5q0 -42 -29 -79.5t-81 -60.5t-120 -23q-91 0 -145 36zM327.5 229q35.5 37 35.5 94q0 58 -35 93.5t-86 35.5t-85.5 -35.5t-34.5 -93.5q0 -38 16.5 -68t44 -46.5t59.5 -16.5q50 0 85.5 37zM344.5 -173
q39.5 17 61 44t21.5 56q0 38 -26.5 54.5t-81.5 16.5h-100q-28 0 -60 8q-30 -21 -45 -46.5t-15 -50.5q0 -45 41 -72t114 -27q51 0 90.5 17zM112 716l25 23l114 -123h4l114 123l25 -23l-116 -143h-50z" />
    <glyph glyph-name="uni0250" unicode="&#x250;" horiz-adv-x="501" 
d="M126.5 41.5q-43.5 53.5 -43.5 143.5v296h43l5 -71h2q39 39 85.5 61t93.5 22q57 0 93.5 -31t36.5 -91q0 -83 -73.5 -128t-234.5 -64q-1 -60 30 -103.5t108 -43.5q71 0 143 56l22 -37q-34 -25 -78 -44t-93 -19q-96 0 -139.5 53.5zM331.5 270.5q58.5 35.5 58.5 95.5
q0 43 -25 63.5t-64 20.5q-81 0 -167 -87v-146q139 18 197.5 53.5z" />
    <glyph glyph-name="uni0254" unicode="&#x254;" horiz-adv-x="450" 
d="M25 51l26 36q58 -54 125 -54q50 0 88.5 26t60 73t21.5 108t-21 108.5t-58 74t-81 26.5q-38 0 -66.5 -12.5t-54.5 -37.5l-29 36q33 28 68 43t86 15q57 0 104.5 -30t76 -87t28.5 -136q0 -78 -29 -135t-79 -87t-112 -30q-82 0 -154 63z" />
    <glyph glyph-name="uni0259" unicode="&#x259;" horiz-adv-x="485" 
d="M91.5 49q-53.5 61 -53.5 171q0 28 2 40h342q-2 84 -44 137t-115 53q-39 0 -71 -11.5t-64 -33.5l-20 38q73 50 161 50q60 0 106.5 -29.5t73 -86.5t26.5 -135q0 -77 -26.5 -134.5t-72.5 -88.5t-104 -31q-87 0 -140.5 61zM336.5 81q39.5 50 46.5 138h-298q0 -93 39.5 -140.5
t106.5 -47.5q66 0 105.5 50z" />
    <glyph glyph-name="uni025B" unicode="&#x25b;" horiz-adv-x="429" 
d="M105.5 27.5q-52.5 39.5 -52.5 102.5q0 50 31 80.5t77 43.5v4q-38 14 -59.5 44t-21.5 66q0 60 47 92.5t117 32.5q79 0 142 -50l-23 -36q-30 22 -58 32.5t-61 10.5q-49 0 -80.5 -22.5t-31.5 -65.5q0 -40 33.5 -64.5t100.5 -24.5h48v-41h-63q-70 0 -108 -25.5t-38 -72.5
t39 -75t102 -28q38 0 70 12t67 39l25 -37q-41 -30 -79.5 -43.5t-88.5 -13.5q-82 0 -134.5 39.5z" />
    <glyph glyph-name="uni0283" unicode="&#x283;" horiz-adv-x="232" 
d="M-34 -215l11 41q29 -9 50 -9q37 0 50.5 26t13.5 77v668q0 73 29.5 108.5t92.5 35.5q27 0 53 -12l-11 -41q-3 1 -15.5 5t-23.5 4q-43 0 -58.5 -26t-15.5 -77v-668q0 -72 -27 -108t-85 -36q-34 0 -64 12z" />
    <glyph glyph-name="uni028E" unicode="&#x28e;" horiz-adv-x="442" 
d="M212 570q54 160 165 160q28 0 51 -10l-12 -43q-18 8 -38 8q-41 0 -71.5 -33.5t-49.5 -90.5l-24 -72l197 -489h-55l-113 296q-29 80 -51 135h-4q-4 -11 -24 -74l-20 -61l-99 -296h-52z" />
    <glyph glyph-name="uni0292" unicode="&#x292;" horiz-adv-x="408" 
d="M83.5 -206q-44.5 21 -80.5 55l28 35q32 -31 69.5 -49t91.5 -18q40 0 73 21.5t53 60t20 87.5q0 71 -39.5 111t-112.5 40q-20 0 -32 -4t-34 -15l-25 34l211 285h-260v44h324v-27l-207 -281q21 4 47 4q83 0 132 -53t49 -136q0 -66 -27.5 -115t-73 -74.5t-96.5 -25.5
q-66 0 -110.5 21z" />
    <glyph glyph-name="uni0294" unicode="&#x294;" horiz-adv-x="402" 
d="M154 328q92 50 133 99t41 117q0 65 -37 103.5t-104 38.5q-52 0 -89.5 -21t-67.5 -56l-29 35q35 38 79.5 62t107.5 24q85 0 139 -49t54 -137q0 -81 -44 -135.5t-131 -108.5v-300h-52v328z" />
    <glyph glyph-name="uni0295" unicode="&#x295;" horiz-adv-x="413" 
d="M201 300q-87 54 -131 108.5t-44 135.5q0 88 56.5 137t145.5 49q60 0 102 -24t76 -62l-29 -35q-29 35 -64 56t-83 21q-72 0 -111.5 -38.5t-39.5 -103.5q0 -68 41 -117t132 -99v-328h-51v300z" />
    <glyph glyph-name="uni02A7" unicode="&#x2a7;" horiz-adv-x="360" 
d="M281 -215l11 41q27 -9 50 -9q37 0 50 26t13 77v668q0 72 29.5 108t93.5 36q27 0 53 -12l-11 -41q-3 1 -15.5 5t-24.5 4q-43 0 -58 -26t-15 -77v-668q0 -72 -27.5 -108t-85.5 -36q-33 0 -63 12zM130 26.5q-28 38.5 -28 109.5v301h-74v40l76 4l6 139h43v-139h138v-44h-138
v-304q0 -50 18 -75.5t63 -25.5q12 0 29 4.5t30 10.5l13 -41q-50 -18 -81 -18q-67 0 -95 38.5z" />
    <glyph glyph-name="uni02B9" unicode="&#x2b9;" horiz-adv-x="225" 
 />
    <glyph glyph-name="circumflex" unicode="&#x2c6;" horiz-adv-x="536" 
d="M127 594l116 144h50l116 -144l-25 -22l-114 123h-4l-114 -123z" />
    <glyph glyph-name="caron" unicode="&#x2c7;" horiz-adv-x="536" 
d="M127 716l25 23l114 -123h4l114 123l25 -23l-116 -143h-50z" />
    <glyph glyph-name="uni02C8" unicode="&#x2c8;" horiz-adv-x="99" 
d="M26 721h47l-6 -191h-35z" />
    <glyph glyph-name="uni02D0" unicode="&#x2d0;" horiz-adv-x="225" 
d="M70 407h84l-20 -111h-43zM91 157h43l20 -113h-84z" />
    <glyph glyph-name="breve" unicode="&#x2d8;" horiz-adv-x="536" 
d="M161 614.5q-37 44.5 -43 103.5l36 6q7 -47 36 -81.5t78 -34.5t78 34.5t36 81.5l36 -6q-6 -59 -42.5 -103.5t-107.5 -44.5q-70 0 -107 44.5z" />
    <glyph glyph-name="dotaccent" unicode="&#x2d9;" horiz-adv-x="536" 
d="M239 606.5q-12 12.5 -12 31.5q0 18 12 30t29 12t29 -12t12 -30q0 -19 -12 -31.5t-29 -12.5t-29 12.5z" />
    <glyph glyph-name="ring" unicode="&#x2da;" horiz-adv-x="536" 
d="M197 576q-28 27 -28 69t28 69t71 27t71 -27t28 -69t-28 -69t-71 -27t-71 27zM313.5 596q18.5 19 18.5 49t-18.5 49t-45.5 19t-45.5 -19t-18.5 -49t18.5 -49t45.5 -19t45.5 19z" />
    <glyph glyph-name="ogonek" unicode="&#x2db;" horiz-adv-x="536" 
 />
    <glyph glyph-name="tilde" unicode="&#x2dc;" horiz-adv-x="536" 
d="M297 592.5q-19 13.5 -42 38.5q-20 21 -33 31t-29 10q-25 0 -37.5 -24.5t-14.5 -65.5l-38 3q3 56 24 91.5t67 35.5q26 0 45 -13.5t42 -38.5q20 -21 33 -31t30 -10q24 0 36.5 25t14.5 65l38 -3q-3 -55 -23.5 -91t-66.5 -36q-27 0 -46 13.5z" />
    <glyph glyph-name="hungarumlaut" unicode="&#x2dd;" horiz-adv-x="536" 
d="M187 584l87 168l39 -21l-95 -162zM325 584l86 168l39 -21l-95 -162z" />
    <glyph glyph-name="gravecomb" unicode="&#x300;" horiz-adv-x="0" 
d="M-120 725l38 34l136 -159l-28 -26z" />
    <glyph glyph-name="acutecomb" unicode="&#x301;" horiz-adv-x="0" 
d="M-54 600l136 159l38 -34l-146 -151z" />
    <glyph glyph-name="uni0302" unicode="&#x302;" horiz-adv-x="0" 
d="M-141 594l116 144h50l116 -144l-25 -22l-114 123h-4l-114 -123z" />
    <glyph glyph-name="tildecomb" unicode="&#x303;" horiz-adv-x="0" 
d="M29 592.5q-19 13.5 -42 38.5q-20 21 -33 31t-29 10q-25 0 -37.5 -24.5t-14.5 -65.5l-38 3q3 56 24 91.5t67 35.5q26 0 45 -13.5t42 -38.5q20 -21 33 -31t30 -10q24 0 36.5 25t14.5 65l38 -3q-3 -55 -23.5 -91t-66.5 -36q-27 0 -46 13.5z" />
    <glyph glyph-name="uni0304" unicode="&#x304;" horiz-adv-x="0" 
d="M-125 645h250v-40h-250v40z" />
    <glyph glyph-name="uni0306" unicode="&#x306;" horiz-adv-x="0" 
d="M-107 614.5q-37 44.5 -43 103.5l36 6q7 -47 36 -81.5t78 -34.5t78 34.5t36 81.5l36 -6q-6 -59 -42.5 -103.5t-107.5 -44.5q-70 0 -107 44.5z" />
    <glyph glyph-name="uni0307" unicode="&#x307;" horiz-adv-x="0" 
d="M-29 606.5q-12 12.5 -12 31.5q0 18 12 30t29 12t29 -12t12 -30q0 -19 -12 -31.5t-29 -12.5t-29 12.5z" />
    <glyph glyph-name="uni0308" unicode="&#x308;" horiz-adv-x="0" 
d="M-118 607q-11 11 -11 28t11 28t28 11q16 0 27.5 -11t11.5 -28q0 -16 -11.5 -27.5t-27.5 -11.5q-17 0 -28 11zM62.5 607.5q-11.5 11.5 -11.5 27.5q0 17 11.5 28t27.5 11q17 0 28 -11t11 -28t-11 -28t-28 -11q-16 0 -27.5 11.5z" />
    <glyph glyph-name="uni030A" unicode="&#x30a;" horiz-adv-x="0" 
d="M-71 576q-28 27 -28 69t28 69t71 27t71 -27t28 -69t-28 -69t-71 -27t-71 27zM45.5 596q18.5 19 18.5 49t-18.5 49t-45.5 19t-45.5 -19t-18.5 -49t18.5 -49t45.5 -19t45.5 19z" />
    <glyph glyph-name="uni030B" unicode="&#x30b;" horiz-adv-x="0" 
d="M-81 584l87 168l39 -21l-95 -162zM57 584l86 168l39 -21l-95 -162z" />
    <glyph glyph-name="uni030C" unicode="&#x30c;" horiz-adv-x="0" 
d="M-141 716l25 23l114 -123h4l114 123l25 -23l-116 -143h-50z" />
    <glyph glyph-name="uni031E" unicode="&#x31e;" horiz-adv-x="0" 
d="M-19 -139h-71v36h180v-36h-71v-106h-38v106z" />
    <glyph glyph-name="dotbelowcomb" unicode="&#x323;" horiz-adv-x="0" 
d="M-29 -184.5q-12 12.5 -12 31.5q0 18 12 30t29 12t29 -12t12 -30q0 -19 -12 -31.5t-29 -12.5t-29 12.5z" />
    <glyph glyph-name="uni0327" unicode="&#x327;" horiz-adv-x="0" 
d="M-86 -188q62 4 87 16t25 36q0 21 -18 32.5t-60 17.5l42 88h38l-30 -67q35 -8 53.5 -24t18.5 -45q0 -78 -149 -86z" />
    <glyph glyph-name="uni032E" unicode="&#x32e;" horiz-adv-x="0" 
d="M-107 -186.5q-37 44.5 -43 103.5l36 6q7 -47 36 -81.5t78 -34.5t78 34.5t36 81.5l36 -6q-6 -59 -42.5 -103.5t-107.5 -44.5q-70 0 -107 44.5z" />
    <glyph glyph-name="uni0331" unicode="&#x331;" horiz-adv-x="0" 
d="M-125 -122h250v-40h-250v40z" />
    <glyph glyph-name="uni0361" unicode="&#x361;" horiz-adv-x="0" 
d="M-453 586q209 129 453 129t453 -129l-17 -29q-93 58 -205.5 88t-230.5 30t-230.5 -30t-205.5 -88z" />
    <glyph glyph-name="theta" unicode="&#x3b8;" horiz-adv-x="509" 
d="M395 634q50 -96 50 -272q0 -374 -190 -374q-191 0 -191 374q0 176 50.5 272t140.5 96t140 -96zM157 609q-37 -77 -40 -225h276q-3 148 -40.5 225t-97.5 77q-61 0 -98 -77zM354 107q37 74 39 236h-276q4 -310 138 -310q62 0 99 74z" />
    <glyph glyph-name="pi" unicode="&#x3c0;" horiz-adv-x="562" 
d="M401.5 12.5q-20.5 24.5 -20.5 75.5q0 40 1 96.5t2 116.5l3 135h-200q0 -97 -7.5 -200.5t-21.5 -238.5l-53 3q34 236 34 436h-115v41l68 4h445v-45h-100q-4 -81 -6 -186t-2 -168q0 -25 11.5 -37t34.5 -12q8 0 40 5l9 -41q-12 -3 -26.5 -6t-30.5 -3q-45 0 -65.5 24.5z" />
    <glyph glyph-name="chi" unicode="&#x3c7;" horiz-adv-x="459" 
d="M10 -179l194 342l-189 315l51 15l163 -282h4l142 270h55l-173 -318l206 -339l-49 -15l-181 309h-4l-169 -309z" />
    <glyph glyph-name="uni05B0" unicode="&#x5b0;" horiz-adv-x="0" 
d="M84 -85q8 -9 8 -21t-8 -21t-20 -9t-20.5 9t-8.5 21t8.5 21t20.5 9t20 -9zM84 -177.5q8 -9.5 8 -21.5q0 -13 -8 -22t-20 -9t-20.5 9.5t-8.5 21.5q0 11 8.5 21t20.5 10t20 -9.5z" />
    <glyph glyph-name="uni05B1" unicode="&#x5b1;" horiz-adv-x="0" 
d="M84 -85q8 -9 8 -21t-8 -21t-20 -9t-20.5 9t-8.5 21t8.5 21t20.5 9t20 -9zM188 -85q8 -9 8 -21t-8 -21t-20 -9t-20.5 9t-8.5 21t8.5 21t20.5 9t20 -9zM292 -85q8 -9 8 -21t-8 -21t-20 -9t-20.5 9t-8.5 21t8.5 21t20.5 9t20 -9zM135 -177.5q8 -9.5 8 -21.5q0 -13 -8 -22
t-20 -9t-20.5 9.5t-8.5 21.5q0 11 8.5 21t20.5 10t20 -9.5zM292 -177.5q8 -9.5 8 -21.5q0 -13 -8 -22t-20 -9t-20.5 9.5t-8.5 21.5q0 11 8.5 21t20.5 10t20 -9.5z" />
    <glyph glyph-name="uni05B2" unicode="&#x5b2;" horiz-adv-x="0" 
d="M281 -85q8 -9 8 -21t-8 -21t-20 -9t-20.5 9t-8.5 21t8.5 21t20.5 9t20 -9zM191 -119h-156v34h156v-34zM281 -177.5q8 -9.5 8 -21.5q0 -13 -8 -22t-20 -9t-20.5 9.5t-8.5 21.5q0 11 8.5 21t20.5 10t20 -9.5z" />
    <glyph glyph-name="uni05B3" unicode="&#x5b3;" horiz-adv-x="0" 
d="M281 -85q8 -9 8 -21t-8 -21t-20 -9t-20.5 9t-8.5 21t8.5 21t20.5 9t20 -9zM191 -119h-68l8 -100h-37l8 100h-67v34h156v-34zM281 -177.5q8 -9.5 8 -21.5q0 -13 -8 -22t-20 -9t-20.5 9.5t-8.5 21.5q0 11 8.5 21t20.5 10t20 -9.5z" />
    <glyph glyph-name="uni05B4" unicode="&#x5b4;" horiz-adv-x="0" 
d="M84 -85q8 -9 8 -21t-8 -21t-20 -9t-20.5 9t-8.5 21t8.5 21t20.5 9t20 -9z" />
    <glyph glyph-name="uni05B5" unicode="&#x5b5;" horiz-adv-x="0" 
d="M84 -85q8 -9 8 -21t-8 -21t-20 -9t-20.5 9t-8.5 21t8.5 21t20.5 9t20 -9zM191 -85q8 -9 8 -21t-8 -21t-20 -9t-20.5 9t-8.5 21t8.5 21t20.5 9t20 -9z" />
    <glyph glyph-name="uni05B6" unicode="&#x5b6;" horiz-adv-x="0" 
d="M84 -85q8 -9 8 -21t-8 -21t-20 -9t-20.5 9t-8.5 21t8.5 21t20.5 9t20 -9zM191 -85q8 -9 8 -21t-8 -21t-20 -9t-20.5 9t-8.5 21t8.5 21t20.5 9t20 -9zM137 -168q8 -9 8 -20q0 -13 -8 -22.5t-20 -9.5t-20.5 9.5t-8.5 22.5q0 11 8.5 20t20.5 9t20 -9z" />
    <glyph glyph-name="uni05B7" unicode="&#x5b7;" horiz-adv-x="0" 
d="M191 -103h-156v34h156v-34z" />
    <glyph glyph-name="uni05B8" unicode="&#x5b8;" horiz-adv-x="0" 
d="M191 -103h-68l8 -100h-37l8 100h-67v34h156v-34z" />
    <glyph glyph-name="uni05B9" unicode="&#x5b9;" horiz-adv-x="0" 
d="M84 561q8 -9 8 -21q0 -13 -8 -22t-20 -9q-13 0 -21 9t-8 22q0 12 8.5 21t20.5 9t20 -9z" />
    <glyph glyph-name="uni05BA" unicode="&#x5ba;" horiz-adv-x="0" 
d="M43.5 518.5q-8.5 9.5 -8.5 21.5t8.5 21t20.5 9t20 -9t8 -21q0 -13 -8 -22t-20 -9t-20.5 9.5z" />
    <glyph glyph-name="uni05BB" unicode="&#x5bb;" horiz-adv-x="0" 
d="M84 -85q8 -9 8 -21t-8 -21t-20 -9t-20.5 9t-8.5 21t8.5 21t20.5 9t20 -9zM149 -143q8 -9 8 -21q0 -13 -8 -22t-20 -9t-20.5 9.5t-8.5 21.5t8.5 21t20.5 9t20 -9zM214.5 -202q8.5 -9 8.5 -21t-8.5 -21t-20.5 -9t-20.5 9t-8.5 21t8.5 21t20.5 9t20.5 -9z" />
    <glyph glyph-name="uni05BC" unicode="&#x5bc;" horiz-adv-x="0" 
d="M84 312q8 -9 8 -21q0 -13 -8 -22t-20 -9q-13 0 -21 9t-8 22q0 11 8.5 20.5t20.5 9.5t20 -9z" />
    <glyph glyph-name="uni05BE" unicode="&#x5be;" horiz-adv-x="311" 
d="M45 550h221v-45h-221v45z" />
    <glyph glyph-name="uni05BF" unicode="&#x5bf;" horiz-adv-x="0" 
d="M221 535h-189v35h189v-35z" />
    <glyph glyph-name="uni05C0" unicode="&#x5c0;" horiz-adv-x="206" 
d="M83 645h40v-745h-40v745z" />
    <glyph glyph-name="uni05C1" unicode="&#x5c1;" horiz-adv-x="0" 
d="M84 574.5q8 -9.5 8 -20.5q0 -13 -8 -22.5t-20 -9.5t-20.5 10t-8.5 22q0 11 8.5 20.5t20.5 9.5t20 -9.5z" />
    <glyph glyph-name="uni05C2" unicode="&#x5c2;" horiz-adv-x="0" 
d="M84 574.5q8 -9.5 8 -20.5q0 -13 -8 -22.5t-20 -9.5t-20.5 10t-8.5 22q0 11 8.5 20.5t20.5 9.5t20 -9.5z" />
    <glyph glyph-name="uni05C3" unicode="&#x5c3;" horiz-adv-x="259" 
d="M79 413l51 51l50 -51l-50 -51zM79 68l51 51l50 -51l-50 -51z" />
    <glyph glyph-name="uni05C7" unicode="&#x5c7;" horiz-adv-x="0" 
d="M127 -103h-40l12 -100h-37l12 100h-39v34h92v-34z" />
    <glyph glyph-name="uni05D0" unicode="&#x5d0;" horiz-adv-x="541" 
d="M443 0l-241 358l-113 -358h-53l109 344l26 63l-91 143h57l91 -143l101 -150l22 80l67 213h54l-111 -341l142 -209h-60z" />
    <glyph glyph-name="uni05D1" unicode="&#x5d1;" horiz-adv-x="521" 
d="M479 46v-46h-127h-296v46h296v320q0 74 -32 106.5t-90 32.5h-174v45h184q166 0 166 -185v-319h73z" />
    <glyph glyph-name="uni05D2" unicode="&#x5d2;" horiz-adv-x="355" 
d="M254 0l-27 145q-56 -114 -178 -158l-20 46q66 24 111 64t76 106v191q0 54 -12.5 80t-50.5 32l-65 10l8 45l73 -12q57 -10 79 -45t22 -107v-195l37 -202h-53z" />
    <glyph glyph-name="uni05D3" unicode="&#x5d3;" horiz-adv-x="533" 
d="M320 388q0 75 27 117h-288v45h414v-45h-73q-26 -43 -26 -117v-388h-54v388z" />
    <glyph glyph-name="uni05D4" unicode="&#x5d4;" horiz-adv-x="537" 
d="M409 366q0 74 -31.5 106.5t-89.5 32.5h-225v45h234q167 0 167 -185v-365h-55v366zM63 269l8 67h47v-336h-55v269z" />
    <glyph glyph-name="uni05D5" unicode="&#x5d5;" horiz-adv-x="213" 
d="M83 433l-13 117h54l14 -117v-433h-55v433z" />
    <glyph glyph-name="uni05D6" unicode="&#x5d6;" horiz-adv-x="356" 
d="M136 388q0 73 27 117h-103v45h236v-45h-80q-25 -42 -25 -117v-388h-55v388z" />
    <glyph glyph-name="uni05D7" unicode="&#x5d7;" horiz-adv-x="553" 
d="M435.5 499q42.5 -51 42.5 -151v-348h-54v349q0 77 -30.5 116.5t-91.5 39.5h-181v-505h-54v537v13h245q81 0 123.5 -51z" />
    <glyph glyph-name="uni05D8" unicode="&#x5d8;" horiz-adv-x="541" 
d="M52 550h55l61 -508q120 12 197.5 80t72.5 212v23q0 68 -35 108t-104 44l-50 3l4 46l54 -4q177 -13 183 -188l1 -28q6 -171 -98 -255.5t-274 -92.5z" />
    <glyph glyph-name="uni05D9" unicode="&#x5d9;" horiz-adv-x="213" 
d="M83 433l-13 117h54l14 -117v-147l-1 -63l-54 -13v223z" />
    <glyph glyph-name="uni05DA" unicode="&#x5da;" horiz-adv-x="500" 
d="M371 366q0 74 -32 106.5t-90 32.5h-189v45h199q166 0 166 -185v-565h-54v566z" />
    <glyph glyph-name="uni05DB" unicode="&#x5db;" horiz-adv-x="467" 
d="M50 46h123q179 0 179 200v59q0 200 -179 200h-123v45h131q108 0 167 -62.5t59 -184.5v-56q0 -122 -59 -184.5t-167 -62.5h-131v46z" />
    <glyph glyph-name="uni05DC" unicode="&#x5dc;" horiz-adv-x="469" 
d="M419 550v-48l-198 -502h-54l197 505h-318v212h52v-167h321z" />
    <glyph glyph-name="uni05DD" unicode="&#x5dd;" horiz-adv-x="576" 
d="M502 365v-365h-55h-349h-15v550h54h198q167 0 167 -185zM447 46v320q0 74 -31.5 106.5t-89.5 32.5h-189v-459h310z" />
    <glyph glyph-name="uni05DE" unicode="&#x5de;" horiz-adv-x="592" 
d="M480 64q-58 -75 -166 -75q-37 0 -79 9l6 45q33 -8 70 -8q174 0 174 247q0 227 -154 227q-58 0 -92.5 -33t-49.5 -87l-73 -389h-55l76 390l-77 160h56l55 -122q20 63 64.5 94.5t100.5 31.5q91 0 146.5 -63t55.5 -210q0 -142 -58 -217z" />
    <glyph glyph-name="uni05DF" unicode="&#x5df;" horiz-adv-x="213" 
d="M83 433l-13 117h54l14 -117v-633h-55v633z" />
    <glyph glyph-name="uni05E0" unicode="&#x5e0;" horiz-adv-x="363" 
d="M52 46h183v348q0 52 -21.5 78t-64.5 33l-66 11l9 45l73 -12q124 -22 124 -154v-395h-237v46z" />
    <glyph glyph-name="uni05E1" unicode="&#x5e1;" horiz-adv-x="551" 
d="M399 74q-105 -75 -280 -84l-62 515l-5 45h262q85 0 132.5 -54.5t50.5 -147.5l1 -29q6 -170 -99 -245zM371 114q78 60 73 205v23q0 71 -35.5 117t-99.5 46h-197l56 -463q125 12 203 72z" />
    <glyph glyph-name="uni05E2" unicode="&#x5e2;" horiz-adv-x="516" 
d="M460 550q-1 -208 -17 -309t-72 -156.5t-179 -79.5l-151 -30l-8 44l160 31l23 5l-135 495h55l129 -480q66 26 95.5 79t37 138.5t7.5 262.5h55z" />
    <glyph glyph-name="uni05E3" unicode="&#x5e3;" horiz-adv-x="542" 
d="M415.5 488.5q50.5 -61.5 51.5 -183.5v-505h-55v505q0 100 -37 150t-112 50h-116l-20 -101q-8 -40 -8 -64q0 -35 14 -56t45 -31l-17 -38q-48 11 -71 41t-23 80q0 27 8 69l30 145h166q94 0 144.5 -61.5z" />
    <glyph glyph-name="uni05E4" unicode="&#x5e4;" horiz-adv-x="535" 
d="M83 46h151q86 0 137 45t51 156v58q0 200 -151 200h-115l-29 -120q-8 -35 -8 -57q0 -37 20 -58.5t66 -29.5l-14 -42q-64 10 -93 41t-29 86q0 31 7 63l38 162h164q95 0 146.5 -62t51.5 -183v-56q0 -133 -65 -191t-170 -58h-158v46z" />
    <glyph glyph-name="uni05E5" unicode="&#x5e5;" horiz-adv-x="443" 
d="M249 121l108 -321h-56l-250 750h54l121 -360l140 360h53z" />
    <glyph glyph-name="uni05E6" unicode="&#x5e6;" horiz-adv-x="502" 
d="M456 0h-57h-357v46h329l-305 504h57l152 -251l109 251h56l-135 -301z" />
    <glyph glyph-name="uni05E7" unicode="&#x5e7;" horiz-adv-x="535" 
d="M212 45q55 7 93.5 26.5t65 70t32.5 141.5l18 222h-363v45h422l-3 -42l-18 -218q-7 -144 -73 -214t-168 -76zM63 286l8 68h47v-554h-55v486z" />
    <glyph glyph-name="uni05E8" unicode="&#x5e8;" horiz-adv-x="467" 
d="M338 366q0 74 -31.5 106.5t-89.5 32.5h-171v45h180q167 0 167 -185v-365h-55v366z" />
    <glyph glyph-name="uni05E9" unicode="&#x5e9;" horiz-adv-x="614" 
d="M446.5 99q-108.5 -104 -325.5 -109l-69 560h53l36 -296q51 28 79.5 57t42.5 71t16 108v58h53v-57q-3 -75 -22 -126t-58 -88t-105 -69l20 -168q164 11 249 100.5t84 272.5l-1 137h54l1 -136q1 -211 -107.5 -315z" />
    <glyph glyph-name="uni05EA" unicode="&#x5ea;" horiz-adv-x="595" 
d="M24 28q60 5 84.5 36t23.5 90v396h226q166 0 166 -185v-365h-54v366q0 74 -32 106.5t-90 32.5h-162v-346q0 -81 -37 -123t-119 -49z" />
    <glyph glyph-name="uni05F3" unicode="&#x5f3;" horiz-adv-x="194" 
d="M50 521l86 168l40 -21l-95 -162z" />
    <glyph glyph-name="uni05F4" unicode="&#x5f4;" horiz-adv-x="366" 
d="M50 521l86 168l40 -21l-95 -162zM187 521l87 168l39 -21l-95 -162z" />
    <glyph glyph-name="uni1E06" unicode="&#x1e06;" horiz-adv-x="580" 
d="M96 659h181q103 0 161 -40t58 -121q0 -52 -26 -90t-75 -53v-4q65 -12 103 -52.5t38 -106.5q0 -93 -66 -142.5t-180 -49.5h-194v659zM260 370q184 0 184 123q0 65 -44.5 93.5t-134.5 28.5h-116v-245h111zM278 44q99 0 152.5 36.5t53.5 111.5q0 68 -53 102t-153 34h-129
v-284h129zM171 -122h250v-40h-250v40z" />
    <glyph glyph-name="uni1E07" unicode="&#x1e07;" horiz-adv-x="544" 
d="M212 4.5q-38 16.5 -72 44.5h-2l-5 -49h-43v718h52v-206l-3 -92q88 73 163 73q94 0 143.5 -65.5t49.5 -179.5q0 -79 -29 -138t-77.5 -90.5t-105.5 -31.5q-33 0 -71 16.5zM362.5 60q36.5 27 57.5 76t21 112q0 93 -36 147t-112 54q-68 0 -151 -77v-279q35 -31 71 -45.5
t66 -14.5q47 0 83.5 27zM153 -122h250v-40h-250v40z" />
    <glyph glyph-name="uni1E0C" unicode="&#x1e0c;" horiz-adv-x="606" 
d="M96 659h154q150 0 226 -86.5t76 -241.5t-76 -243t-224 -88h-156v659zM246 45q126 0 188.5 76.5t62.5 209.5t-62.5 208t-188.5 75h-97v-569h97zM272 -184.5q-12 12.5 -12 31.5q0 18 12 30t29 12t29 -12t12 -30q0 -19 -12 -31.5t-29 -12.5t-29 12.5z" />
    <glyph glyph-name="uni1E0D" unicode="&#x1e0d;" horiz-adv-x="546" 
d="M105 54q-54 66 -54 186q0 75 29 132.5t78 89t106 31.5q40 0 72.5 -14t70.5 -44l-3 87v196h52v-718h-43l-6 61h-2q-73 -73 -155 -73q-91 0 -145 66zM331.5 52q35.5 19 72.5 58v279q-35 32 -68 46t-68 14q-45 0 -82.5 -27.5t-59 -75t-21.5 -106.5q0 -96 40.5 -151.5
t113.5 -55.5q37 0 72.5 19zM264 -184.5q-12 12.5 -12 31.5q0 18 12 30t29 12t29 -12t12 -30q0 -19 -12 -31.5t-29 -12.5t-29 12.5z" />
    <glyph glyph-name="uni1E0E" unicode="&#x1e0e;" horiz-adv-x="606" 
d="M96 659h154q150 0 226 -86.5t76 -241.5t-76 -243t-224 -88h-156v659zM246 45q126 0 188.5 76.5t62.5 209.5t-62.5 208t-188.5 75h-97v-569h97zM176 -122h250v-40h-250v40z" />
    <glyph glyph-name="uni1E0F" unicode="&#x1e0f;" horiz-adv-x="546" 
d="M105 54q-54 66 -54 186q0 75 29 132.5t78 89t106 31.5q40 0 72.5 -14t70.5 -44l-3 87v196h52v-718h-43l-6 61h-2q-73 -73 -155 -73q-91 0 -145 66zM331.5 52q35.5 19 72.5 58v279q-35 32 -68 46t-68 14q-45 0 -82.5 -27.5t-59 -75t-21.5 -106.5q0 -96 40.5 -151.5
t113.5 -55.5q37 0 72.5 19zM168 -122h250v-40h-250v40z" />
    <glyph glyph-name="uni1E20" unicode="&#x1e20;" horiz-adv-x="607" 
d="M190.5 30q-64.5 42 -100.5 119t-36 181q0 103 37 180t103.5 118.5t153.5 41.5q106 0 181 -79l-30 -35q-62 67 -150 67q-73 0 -127 -35.5t-83 -101.5t-29 -155q0 -136 62 -215.5t172 -79.5q43 0 81 12.5t61 34.5v199h-154v45h204v-264q-32 -34 -82.5 -54.5t-113.5 -20.5
q-85 0 -149.5 42zM221 782h252v-40h-252v40z" />
    <glyph glyph-name="uni1E21" unicode="&#x1e21;" horiz-adv-x="490" 
d="M104 -194q-54 36 -54 97q0 31 19.5 61t52.5 53v4q-19 12 -31 32t-12 46q0 28 16 51t37 38v4q-26 22 -43.5 56t-17.5 75q0 49 23 87.5t62 60.5t86 22q39 0 65 -12h164v-42h-109q23 -20 36.5 -51t13.5 -66q0 -49 -22.5 -87.5t-61.5 -60t-86 -21.5q-20 0 -41 5t-37 15
q-17 -15 -27 -31t-10 -37q0 -60 90 -60h102q81 0 120.5 -27.5t39.5 -84.5q0 -42 -29 -79.5t-81 -60.5t-120 -23q-91 0 -145 36zM327.5 229q35.5 37 35.5 94q0 58 -35 93.5t-86 35.5t-85.5 -35.5t-34.5 -93.5q0 -38 16.5 -68t44 -46.5t59.5 -16.5q50 0 85.5 37zM344.5 -173
q39.5 17 61 44t21.5 56q0 38 -26.5 54.5t-81.5 16.5h-100q-28 0 -60 8q-30 -21 -45 -46.5t-15 -50.5q0 -45 41 -72t114 -27q51 0 90.5 17zM128 645h250v-40h-250v40z" />
    <glyph glyph-name="uni1E24" unicode="&#x1e24;" horiz-adv-x="641" 
d="M96 659h53v-287h343v287h53v-659h-53v326h-343v-326h-53v659zM291 -184.5q-12 12.5 -12 31.5q0 18 12 30t29 12t29 -12t12 -30q0 -19 -12 -31.5t-29 -12.5t-29 12.5z" />
    <glyph glyph-name="uni1E25" unicode="&#x1e25;" horiz-adv-x="531" 
d="M90 718h52v-206l-2 -105q43 42 81.5 64t84.5 22q75 0 110.5 -45.5t35.5 -139.5v-308h-52v301q0 76 -25 111.5t-81 35.5q-40 0 -73.5 -20.5t-78.5 -67.5v-360h-52v718zM254 -184.5q-12 12.5 -12 31.5q0 18 12 30t29 12t29 -12t12 -30q0 -19 -12 -31.5t-29 -12.5t-29 12.5z
" />
    <glyph glyph-name="uni1E2A" unicode="&#x1e2a;" horiz-adv-x="641" 
d="M96 659h53v-287h343v287h53v-659h-53v326h-343v-326h-53v659zM213 -186.5q-37 44.5 -43 103.5l36 6q7 -47 36 -81.5t78 -34.5t78 34.5t36 81.5l36 -6q-6 -59 -42.5 -103.5t-107.5 -44.5q-70 0 -107 44.5z" />
    <glyph glyph-name="uni1E2B" unicode="&#x1e2b;" horiz-adv-x="531" 
d="M90 718h52v-206l-2 -105q43 42 81.5 64t84.5 22q75 0 110.5 -45.5t35.5 -139.5v-308h-52v301q0 76 -25 111.5t-81 35.5q-40 0 -73.5 -20.5t-78.5 -67.5v-360h-52v718zM176 -186.5q-37 44.5 -43 103.5l36 6q7 -47 36 -81.5t78 -34.5t78 34.5t36 81.5l36 -6
q-6 -59 -42.5 -103.5t-107.5 -44.5q-70 0 -107 44.5z" />
    <glyph glyph-name="uni1E32" unicode="&#x1e32;" horiz-adv-x="562" 
d="M96 659h53v-360h2l310 360h63l-210 -246l239 -413h-60l-214 372l-130 -149v-223h-53v659zM297 -184.5q-12 12.5 -12 31.5q0 18 12 30t29 12t29 -12t12 -30q0 -19 -12 -31.5t-29 -12.5t-29 12.5z" />
    <glyph glyph-name="uni1E33" unicode="&#x1e33;" horiz-adv-x="469" 
d="M90 718h51v-521h2l232 284h58l-157 -191l183 -290h-57l-156 253l-105 -123v-130h-51v718zM231 -184.5q-12 12.5 -12 31.5q0 18 12 30t29 12t29 -12t12 -30q0 -19 -12 -31.5t-29 -12.5t-29 12.5z" />
    <glyph glyph-name="uni1E34" unicode="&#x1e34;" horiz-adv-x="562" 
d="M96 659h53v-360h2l310 360h63l-210 -246l239 -413h-60l-214 372l-130 -149v-223h-53v659zM201 -122h250v-40h-250v40z" />
    <glyph glyph-name="uni1E35" unicode="&#x1e35;" horiz-adv-x="469" 
d="M90 718h51v-521h2l232 284h58l-157 -191l183 -290h-57l-156 253l-105 -123v-130h-51v718zM135 -122h250v-40h-250v40z" />
    <glyph glyph-name="uni1E62" unicode="&#x1e62;" horiz-adv-x="523" 
d="M144.5 14.5q-56.5 26.5 -98.5 72.5l33 36q37 -41 86.5 -64t104.5 -23q73 0 116 35t43 92q0 38 -15 62t-38 39t-64 33l-99 44q-59 26 -96 63t-37 102q0 47 25 84.5t69.5 58.5t99.5 21q56 0 104 -22t82 -57l-30 -35q-64 67 -156 67q-63 0 -102 -31t-39 -83
q0 -34 16.5 -57.5t39 -37t57.5 -29.5l99 -43q66 -29 102 -68t36 -107q0 -50 -26.5 -91t-75 -64.5t-111.5 -23.5q-69 0 -125.5 26.5zM241 -184.5q-12 12.5 -12 31.5q0 18 12 30t29 12t29 -12t12 -30q0 -19 -12 -31.5t-29 -12.5t-29 12.5z" />
    <glyph glyph-name="uni1E63" unicode="&#x1e63;" horiz-adv-x="408" 
d="M113 6.5q-46 18.5 -81 48.5l28 36q35 -29 70 -44.5t81 -15.5q52 0 81.5 26t29.5 65t-31 61.5t-85 42.5q-47 16 -78 32t-52.5 42t-21.5 64q0 55 42 92t115 37q39 0 75.5 -14t64.5 -36l-26 -36q-29 21 -55.5 32.5t-58.5 11.5q-51 0 -78.5 -24.5t-27.5 -59.5q0 -25 15 -42.5
t37 -28t61 -24.5q56 -21 84 -35t49.5 -41t21.5 -71q0 -37 -19.5 -68.5t-56.5 -50t-88 -18.5q-50 0 -96 18.5zM189 -184.5q-12 12.5 -12 31.5q0 18 12 30t29 12t29 -12t12 -30q0 -19 -12 -31.5t-29 -12.5t-29 12.5z" />
    <glyph glyph-name="uni1E6C" unicode="&#x1e6c;" horiz-adv-x="527" 
d="M237 613h-208v46h469v-46h-208v-613h-53v613zM234 -184.5q-12 12.5 -12 31.5q0 18 12 30t29 12t29 -12t12 -30q0 -19 -12 -31.5t-29 -12.5t-29 12.5z" />
    <glyph glyph-name="uni1E6D" unicode="&#x1e6d;" horiz-adv-x="317" 
d="M130 26.5q-28 38.5 -28 109.5v301h-74v40l76 4l6 139h43v-139h138v-44h-138v-304q0 -50 18 -75.5t63 -25.5q12 0 29 4.5t30 10.5l13 -41q-50 -18 -81 -18q-67 0 -95 38.5zM170 -184.5q-12 12.5 -12 31.5q0 18 12 30t29 12t29 -12t12 -30q0 -19 -12 -31.5t-29 -12.5
t-29 12.5z" />
    <glyph glyph-name="uni1E6E" unicode="&#x1e6e;" horiz-adv-x="527" 
d="M237 613h-208v46h469v-46h-208v-613h-53v613zM138 -122h250v-40h-250v40z" />
    <glyph glyph-name="uni1E6F" unicode="&#x1e6f;" horiz-adv-x="317" 
d="M130 26.5q-28 38.5 -28 109.5v301h-74v40l76 4l6 139h43v-139h138v-44h-138v-304q0 -50 18 -75.5t63 -25.5q12 0 29 4.5t30 10.5l13 -41q-50 -18 -81 -18q-67 0 -95 38.5zM74 -122h250v-40h-250v40z" />
    <glyph glyph-name="uni1E7E" unicode="&#x1e7e;" horiz-adv-x="496" 
d="M4 659h56l119 -380l27 -87q33 -107 41 -133h4q24 71 46 146l23 74l118 380h54l-214 -659h-59zM221 -184.5q-12 12.5 -12 31.5q0 18 12 30t29 12t29 -12t12 -30q0 -19 -12 -31.5t-29 -12.5t-29 12.5z" />
    <glyph glyph-name="uni1E7F" unicode="&#x1e7f;" horiz-adv-x="440" 
d="M12 481h55l105 -296q22 -68 48 -139h4l48 139l105 296h51l-176 -481h-61zM192 -184.5q-12 12.5 -12 31.5q0 18 12 30t29 12t29 -12t12 -30q0 -19 -12 -31.5t-29 -12.5t-29 12.5z" />
    <glyph glyph-name="uni1E92" unicode="&#x1e92;" horiz-adv-x="539" 
d="M49 31l373 582h-340v46h406v-31l-373 -583h377v-45h-443v31zM253 -184.5q-12 12.5 -12 31.5q0 18 12 30t29 12t29 -12t12 -30q0 -19 -12 -31.5t-29 -12.5t-29 12.5z" />
    <glyph glyph-name="uni1E93" unicode="&#x1e93;" horiz-adv-x="408" 
d="M28 27l279 410h-248v44h314v-27l-279 -410h288v-44h-354v27zM190 -184.5q-12 12.5 -12 31.5q0 18 12 30t29 12t29 -12t12 -30q0 -19 -12 -31.5t-29 -12.5t-29 12.5z" />
    <glyph glyph-name="uni1E94" unicode="&#x1e94;" horiz-adv-x="539" 
d="M49 31l373 582h-340v46h406v-31l-373 -583h377v-45h-443v31zM157 -122h250v-40h-250v40z" />
    <glyph glyph-name="uni1E95" unicode="&#x1e95;" horiz-adv-x="408" 
d="M28 27l279 410h-248v44h314v-27l-279 -410h288v-44h-354v27zM94 -122h250v-40h-250v40z" />
    <glyph glyph-name="uni1E96" unicode="&#x1e96;" horiz-adv-x="531" 
d="M90 718h52v-206l-2 -105q43 42 81.5 64t84.5 22q75 0 110.5 -45.5t35.5 -139.5v-308h-52v301q0 76 -25 111.5t-81 35.5q-40 0 -73.5 -20.5t-78.5 -67.5v-360h-52v718zM158 -122h250v-40h-250v40z" />
    <glyph glyph-name="uni1EA0" unicode="&#x1ea0;" horiz-adv-x="530" 
d="M392 221h-256l-75 -221h-54l230 659h55l231 -659h-57zM378 265l-40 119q-45 133 -72 226h-4q-25 -90 -71 -226l-40 -119h227zM235 -184.5q-12 12.5 -12 31.5q0 18 12 30t29 12t29 -12t12 -30q0 -19 -12 -31.5t-29 -12.5t-29 12.5z" />
    <glyph glyph-name="uni1EA1" unicode="&#x1ea1;" horiz-adv-x="494" 
d="M96 22q-39 34 -39 99q0 79 73 121.5t234 59.5q1 64 -23.5 105.5t-86.5 41.5q-76 0 -152 -55l-23 37q36 25 82.5 43.5t98.5 18.5q82 0 119 -51t37 -137v-305h-43l-6 62h-2q-89 -74 -169 -74q-61 0 -100 34zM282.5 50q36.5 18 81.5 56v159q-139 -17 -197 -50.5t-58 -90.5
q0 -47 27 -69.5t71 -22.5q39 0 75.5 18zM216 -184.5q-12 12.5 -12 31.5q0 18 12 30t29 12t29 -12t12 -30q0 -19 -12 -31.5t-29 -12.5t-29 12.5z" />
    <glyph glyph-name="uni1EB8" unicode="&#x1eb8;" horiz-adv-x="517" 
d="M96 659h364v-46h-311v-241h261v-46h-261v-281h321v-45h-374v659zM261 -184.5q-12 12.5 -12 31.5q0 18 12 30t29 12t29 -12t12 -30q0 -19 -12 -31.5t-29 -12.5t-29 12.5z" />
    <glyph glyph-name="uni1EB9" unicode="&#x1eb9;" horiz-adv-x="485" 
d="M445 232h-344q1 -62 25.5 -107.5t64.5 -69.5t89 -24q68 0 127 42l21 -37q-35 -23 -70.5 -35.5t-82.5 -12.5q-62 0 -113.5 30.5t-81 87.5t-29.5 134q0 76 29.5 133.5t78 88.5t103.5 31q87 0 136.5 -59t49.5 -164q0 -20 -3 -38zM400 273q0 87 -36.5 132t-101.5 45
q-37 0 -71.5 -20t-58.5 -60t-29 -97h297zM224 -184.5q-12 12.5 -12 31.5q0 18 12 30t29 12t29 -12t12 -30q0 -19 -12 -31.5t-29 -12.5t-29 12.5z" />
    <glyph glyph-name="uni1ECC" unicode="&#x1ecc;" horiz-adv-x="655" 
d="M186 30.5q-62 42.5 -97 120t-35 180.5t35 179.5t97 118t141 41.5q80 0 142 -41.5t96.5 -118t34.5 -179.5t-34.5 -180.5t-96.5 -120t-142 -42.5q-79 0 -141 42.5zM441.5 72.5q49.5 36.5 76.5 103t27 155.5t-27 155t-76.5 101.5t-114.5 35.5t-114 -35.5t-76 -101.5
t-27 -155q0 -88 27 -155t76.5 -103.5t113.5 -36.5q65 0 114.5 36.5zM298 -184.5q-12 12.5 -12 31.5q0 18 12 30t29 12t29 -12t12 -30q0 -19 -12 -31.5t-29 -12.5t-29 12.5z" />
    <glyph glyph-name="uni1ECD" unicode="&#x1ecd;" horiz-adv-x="536" 
d="M159.5 18.5q-49.5 30.5 -79 87.5t-29.5 134q0 78 29.5 135.5t79 87.5t108.5 30t109 -30t79.5 -87.5t29.5 -135.5q0 -77 -29.5 -134t-79.5 -87.5t-109 -30.5t-108.5 30.5zM352.5 59q37.5 26 58.5 73t21 108t-21 108.5t-58.5 74t-84.5 26.5t-84 -26.5t-58.5 -74
t-21.5 -108.5t21.5 -108t58.5 -73t84 -26t84.5 26zM239 -184.5q-12 12.5 -12 31.5q0 18 12 30t29 12t29 -12t12 -30q0 -19 -12 -31.5t-29 -12.5t-29 12.5z" />
    <glyph glyph-name="uni200E" unicode="&#x200e;" horiz-adv-x="0" 
d="M14 792l63 66h-191v36h191l-63 63l25 27l105 -109l-105 -108z" />
    <glyph glyph-name="uni200F" unicode="&#x200f;" horiz-adv-x="0" 
d="M-144 875l105 109l25 -26l-63 -64h193v-36h-192l62 -66l-25 -24z" />
    <glyph glyph-name="uni2010" unicode="&#x2010;" horiz-adv-x="301" 
d="M41 272h221v-44h-221v44z" />
    <glyph glyph-name="endash" unicode="&#x2013;" horiz-adv-x="480" 
d="M41 271h398v-40h-398v40z" />
    <glyph glyph-name="emdash" unicode="&#x2014;" horiz-adv-x="800" 
d="M41 271h718v-40h-718v40z" />
    <glyph glyph-name="quoteleft" unicode="&#x2018;" horiz-adv-x="225" 
d="M134.5 542.5q12.5 -10.5 12.5 -29.5q0 -20 -11.5 -31t-29.5 -11q-23 0 -36 18.5t-13 52.5q0 53 23 92t67 68l19 -27q-36 -27 -52.5 -55t-16.5 -68q3 1 9 1q16 0 28.5 -10.5z" />
    <glyph glyph-name="quoteright" unicode="&#x2019;" horiz-adv-x="225" 
d="M154 680.5q13 -18.5 13 -52.5q0 -101 -89 -160l-19 27q35 27 52 55t17 68q-3 -1 -9 -1q-17 0 -29.5 11t-12.5 29q0 20 11.5 31t30.5 11q22 0 35 -18.5z" />
    <glyph glyph-name="quotesinglbase" unicode="&#x201a;" horiz-adv-x="225" 
d="M154 78.5q13 -18.5 13 -52.5q0 -101 -89 -160l-19 27q35 27 52 55t17 68q-3 -1 -9 -1q-17 0 -29.5 11t-12.5 29q0 20 11.5 31t30.5 11q22 0 35 -18.5z" />
    <glyph glyph-name="quotedblleft" unicode="&#x201c;" horiz-adv-x="373" 
d="M134.5 542.5q12.5 -10.5 12.5 -29.5q0 -20 -11.5 -31t-29.5 -11q-23 0 -36 18.5t-13 52.5q0 53 23 92t67 68l19 -27q-36 -27 -52.5 -55t-16.5 -68q3 1 9 1q16 0 28.5 -10.5zM282.5 542.5q12.5 -10.5 12.5 -29.5q0 -20 -11.5 -31t-29.5 -11q-23 0 -36 18.5t-13 52.5
q0 53 23 92t67 68l19 -27q-36 -27 -52.5 -55t-16.5 -68q3 1 9 1q16 0 28.5 -10.5z" />
    <glyph glyph-name="quotedblright" unicode="&#x201d;" horiz-adv-x="373" 
d="M154 680.5q13 -18.5 13 -52.5q0 -101 -89 -160l-19 27q35 27 52 55t17 68q-3 -1 -9 -1q-17 0 -29.5 11t-12.5 29q0 20 11.5 31t30.5 11q22 0 35 -18.5zM302 680.5q13 -18.5 13 -52.5q0 -101 -89 -160l-19 27q35 27 52 55t17 68q-3 -1 -9 -1q-17 0 -29.5 11t-12.5 29
q0 20 11.5 31t30.5 11q22 0 35 -18.5z" />
    <glyph glyph-name="quotedblbase" unicode="&#x201e;" horiz-adv-x="373" 
d="M154 78.5q13 -18.5 13 -52.5q0 -101 -89 -160l-19 27q35 27 52 55t17 68q-3 -1 -9 -1q-17 0 -29.5 11t-12.5 29q0 20 11.5 31t30.5 11q22 0 35 -18.5zM302 78.5q13 -18.5 13 -52.5q0 -101 -89 -160l-19 27q35 27 52 55t17 68q-3 -1 -9 -1q-17 0 -29.5 11t-12.5 29
q0 20 11.5 31t30.5 11q22 0 35 -18.5z" />
    <glyph glyph-name="dagger" unicode="&#x2020;" horiz-adv-x="427" 
d="M193 517l-134 -4v48l134 -3l-4 154h48l-3 -154l134 3v-48l-134 4l3 -597h-48z" />
    <glyph glyph-name="daggerdbl" unicode="&#x2021;" horiz-adv-x="427" 
d="M193 74l-134 -3v48l134 -4l-4 201l4 201l-134 -4v48l134 -3l-4 154h48l-3 -154l134 3v-48l-134 4l3 -201l-3 -201l134 4v-48l-134 3l3 -154h-48z" />
    <glyph glyph-name="bullet" unicode="&#x2022;" horiz-adv-x="285" 
d="M70.5 183q-30.5 31 -30.5 81q0 49 31 80.5t72 31.5t71.5 -31.5t30.5 -80.5q0 -50 -30.5 -81t-71.5 -31q-42 0 -72.5 31z" />
    <glyph glyph-name="ellipsis" unicode="&#x2026;" horiz-adv-x="999" 
d="M134 1.5q-13 13.5 -13 34.5q0 23 13 36.5t32 13.5t32.5 -14t13.5 -36q0 -21 -13.5 -34.5t-32.5 -13.5t-32 13.5zM468 1.5q-13 13.5 -13 34.5q0 23 13 36.5t32 13.5t32.5 -14t13.5 -36q0 -21 -13.5 -34.5t-32.5 -13.5t-32 13.5zM802 1.5q-13 13.5 -13 34.5q0 23 13 36.5
t32 13.5t32.5 -14t13.5 -36q0 -21 -13.5 -34.5t-32.5 -13.5t-32 13.5z" />
    <glyph glyph-name="uni202D" unicode="&#x202d;" horiz-adv-x="0" 
d="M-57 792l63 66h-162v36h160l-61 63l26 27l104 -109l-104 -108zM41 792l82 83l-82 82l25 27l105 -109l-105 -108z" />
    <glyph glyph-name="uni202E" unicode="&#x202e;" horiz-adv-x="0" 
d="M-171 914l105 107l25 -26l-80 -81l80 -83l-25 -26zM-71 914l102 107l28 -26l-63 -66h161v-34h-161l63 -64l-28 -26z" />
    <glyph glyph-name="perthousand" unicode="&#x2030;" horiz-adv-x="1167" 
d="M80 313.5q-38 54.5 -38 153.5q0 97 38 151.5t105 54.5q66 0 104 -54.5t38 -151.5q0 -99 -38 -153.5t-104 -54.5q-67 0 -105 54.5zM562 670h41l-367 -682h-41zM257.5 340.5q26.5 45.5 26.5 126.5t-26.5 125t-72.5 44q-47 0 -73.5 -44t-26.5 -125q0 -82 27 -127t73 -45
t72.5 45.5zM518 42.5q-38 54.5 -38 153.5q0 98 38 152t104 54q67 0 105 -54t38 -152q0 -99 -38 -153.5t-105 -54.5q-66 0 -104 54.5zM877.5 42.5q-38.5 54.5 -38.5 153.5q0 98 38.5 152t104.5 54q67 0 105 -54t38 -152q0 -99 -38 -153.5t-105 -54.5q-66 0 -104.5 54.5z
M695 69.5q27 45.5 27 126.5t-27 125.5t-73 44.5t-72.5 -44.5t-26.5 -125.5t26.5 -126.5t72.5 -45.5t73 45.5zM1054.5 69.5q26.5 45.5 26.5 126.5t-26.5 125.5t-72.5 44.5t-72.5 -44.5t-26.5 -125.5t26.5 -126.5t72.5 -45.5t72.5 45.5z" />
    <glyph glyph-name="guilsinglleft" unicode="&#x2039;" horiz-adv-x="261" 
d="M43 231v42l138 160l26 -22l-122 -159l122 -160l-26 -21z" />
    <glyph glyph-name="guilsinglright" unicode="&#x203a;" horiz-adv-x="261" 
d="M54 92l122 160l-122 159l26 22l138 -160v-42l-138 -160z" />
    <glyph glyph-name="fraction" unicode="&#x2044;" horiz-adv-x="81" 
d="M202 670h41l-367 -682h-41z" />
    <glyph glyph-name="uni20AA" unicode="&#x20aa;" horiz-adv-x="699" 
d="M72 550h216q78 0 113.5 -49.5t35.5 -152.5v-157h-47v158q0 80 -23 118t-81 38h-159v-505h-55v550zM229 365h47v-315q123 6 189.5 44.5t92.5 114.5t25 204l-1 137h55l1 -137q1 -147 -38 -236t-128.5 -131.5t-242.5 -45.5v365z" />
    <glyph glyph-name="Euro" unicode="&#x20ac;" 
d="M477 82q-33 -46 -73.5 -70t-93.5 -24q-88 0 -147 68.5t-74 187.5h-66v32l62 4q-1 13 -1 41q0 23 1 34h-62v32l65 4q14 122 77 191t160 69q43 0 80.5 -22t62.5 -56l-33 -31q-49 66 -111 66q-75 0 -122 -57.5t-59 -159.5h273v-36h-276q-1 -11 -1 -34q0 -28 1 -41h236v-36
h-232q12 -100 56 -156t113 -56q40 0 71 19t60 59z" />
    <glyph glyph-name="uni210A" unicode="&#x210a;" horiz-adv-x="548" 
d="M89 -174l22 39q67 -49 148 -49q71 0 108 40t38 111l1 107q-73 -73 -155 -73q-91 0 -145 64.5t-54 180.5q0 74 29 130t78 86.5t106 30.5q40 0 72.5 -14t67.5 -42h2l5 44h45v-519q0 -87 -52.5 -138t-145.5 -51t-170 53zM332 64q35 19 73 58v267q-36 32 -68.5 46t-67.5 14
q-45 0 -82.5 -26.5t-59 -72.5t-21.5 -103q0 -92 40.5 -147t113.5 -55q37 0 72 19z" />
    <glyph glyph-name="trademark" unicode="&#x2122;" horiz-adv-x="615" 
d="M108 637h-106v39h254v-39h-106v-268h-42v268zM308 676h56l51 -124l30 -84h4l30 84l50 124h56v-307h-41v156l5 100h-4l-80 -209h-37l-81 209h-4l5 -100v-156h-40v307z" />
    <glyph glyph-name="estimated" unicode="&#x212e;" horiz-adv-x="800" 
d="M222.5 33q-81.5 45 -129 122t-47.5 169t47.5 169t129 122t177.5 45t177.5 -45t129 -122t47.5 -169v-8h-574q-4 0 -4 -4v-184q0 -8 8 -20q41 -47 97.5 -73.5t120.5 -26.5q66 0 125.5 30t102.5 82h52q-51 -61 -124.5 -96.5t-157.5 -35.5q-96 0 -177.5 45zM620 334q6 0 6 6
v184q0 12 -10 22q-43 44 -98.5 69t-115.5 25q-63 0 -119 -26t-99 -72q-8 -12 -8 -22v-180q0 -6 4 -6h440z" />
    <glyph glyph-name="partialdiff" unicode="&#x2202;" horiz-adv-x="504" 
d="M412 595.5q54 -74.5 54 -230.5q0 -112 -31.5 -197.5t-89.5 -132.5t-134 -47q-46 0 -86 23t-64 66.5t-24 100.5q0 99 57.5 160t159.5 61q43 0 84.5 -20t75.5 -55q1 13 1 40q0 138 -41 200t-113 62q-33 0 -63.5 -13.5t-53.5 -38.5l-27 32q29 30 67 47t81 17q93 0 147 -74.5
zM343 98.5q51 65.5 66 175.5q-71 82 -153 82q-84 0 -126.5 -49.5t-42.5 -125.5q0 -43 17.5 -77t47 -52.5t64.5 -18.5q76 0 127 65.5z" />
    <glyph glyph-name="product" unicode="&#x220f;" horiz-adv-x="656" 
d="M93 639h470v-759h-55v713h-362v-713h-53v759z" />
    <glyph glyph-name="summation" unicode="&#x2211;" horiz-adv-x="490" 
d="M20 -83l253 342l-242 343v37h428v-45h-361v-4l233 -329l-244 -332v-4h403v-45h-470v37z" />
    <glyph glyph-name="minus" unicode="&#x2212;" 
d="M34 351h414v-42h-414v42z" />
    <glyph glyph-name="uni2215" unicode="&#x2215;" horiz-adv-x="81" 
d="M202 670h41l-367 -682h-41z" />
    <glyph glyph-name="uni2219" unicode="&#x2219;" horiz-adv-x="489" 
d="M207 288.5q-13 13.5 -13 34.5q0 23 13 36.5t32 13.5t32.5 -14t13.5 -36q0 -21 -13.5 -34.5t-32.5 -13.5t-32 13.5z" />
    <glyph glyph-name="radical" unicode="&#x221a;" horiz-adv-x="542" 
d="M133 333l-69 -31l-17 34l114 52l124 -371q5 -12 16 -55h4l5 27q1 11 5 28l188 803h42l-218 -923h-44z" />
    <glyph glyph-name="infinity" unicode="&#x221e;" horiz-adv-x="767" 
d="M461 194q-45 31 -97 93h-4q-4 -5 -32.5 -36t-66.5 -51.5t-78 -20.5q-38 0 -70.5 19.5t-52 54t-19.5 75.5q0 69 43 111t108 42q54 0 94.5 -31t77.5 -79h4q41 56 88.5 91t106.5 35q72 0 117 -45.5t45 -117.5q0 -75 -44.5 -123t-115.5 -48q-59 0 -104 31zM650 247.5
q31 33.5 31 83.5q0 55 -32.5 89.5t-89.5 34.5q-46 0 -86.5 -30t-82.5 -90q49 -64 89.5 -92.5t87.5 -28.5q52 0 83 33.5zM269.5 249.5q37.5 28.5 68.5 75.5q-38 51 -74 78t-76 27q-45 0 -74 -26.5t-29 -73.5t30.5 -78t73.5 -31t80.5 28.5z" />
    <glyph glyph-name="integral" unicode="&#x222b;" horiz-adv-x="305" 
d="M57 -152l7 41q18 -4 35 -4q41 0 54.5 42t13.5 131q0 47 -5.5 105.5t-16.5 151.5q-11 92 -16.5 149.5t-5.5 104.5q0 105 24.5 162.5t91.5 57.5q29 0 41 -7l-7 -40q-16 4 -34 4q-40 0 -54 -43t-14 -132q0 -48 5.5 -107t16.5 -150q2 -14 8 -72t9.5 -103t3.5 -77
q0 -106 -24.5 -163t-89.5 -57q-31 0 -43 6z" />
    <glyph glyph-name="approxequal" unicode="&#x2248;" 
d="M280.5 380.5q-22.5 12.5 -54.5 36.5q-25 20 -42 30t-34 10q-46 0 -78 -63l-32 20q22 42 51.5 63t60.5 21q27 0 49.5 -12.5t54.5 -36.5q25 -20 42 -30t34 -10q23 0 42 14.5t37 48.5l32 -22q-23 -41 -52.5 -61.5t-60.5 -20.5q-27 0 -49.5 12.5zM280.5 174.5
q-22.5 12.5 -54.5 36.5q-25 20 -42 30t-34 10q-46 0 -78 -63l-32 20q22 42 51.5 63t60.5 21q27 0 49.5 -12.5t54.5 -36.5q25 -20 42 -30t34 -10q23 0 42 14.5t37 48.5l32 -22q-23 -41 -52.5 -61.5t-60.5 -20.5q-27 0 -49.5 12.5z" />
    <glyph glyph-name="notequal" unicode="&#x2260;" 
d="M144 206h-110v42h135l100 164h-235v42h260l78 128h45l-78 -128h109v-42h-135l-99 -164h234v-42h-260l-78 -128h-45z" />
    <glyph glyph-name="lessequal" unicode="&#x2264;" 
d="M34 311v51l414 159v-48l-228 -86l-133 -48v-4l361 -134v-49zM34 42h414v-42h-414v42z" />
    <glyph glyph-name="greaterequal" unicode="&#x2265;" 
d="M34 201l361 134v4l-133 48l-228 86v48l414 -159v-51l-414 -159v49zM34 42h414v-42h-414v42z" />
    <glyph glyph-name="lozenge" unicode="&#x25ca;" horiz-adv-x="502" 
d="M59 330l165 340h54l166 -340l-166 -340h-54zM253 34l67 138l74 158l-74 157l-67 139h-4l-67 -139l-74 -157l74 -158l67 -138h4z" />
    <glyph glyph-name="uni25CC" unicode="&#x25cc;" horiz-adv-x="600" 
d="M334 480q9 -9 9 -25q0 -15 -9 -24.5t-24 -9.5q-13 0 -22.5 9.5t-9.5 24.5q0 16 9.5 25t22.5 9q15 0 24 -9zM211 457.5q9 -8.5 9 -25.5q0 -15 -9 -24t-23 -9q-13 0 -22 9t-9 24q0 17 8.5 25.5t22.5 8.5t23 -8.5zM390 395.5q-9 9.5 -9 24.5q0 16 9 24.5t22 8.5
q14 0 23 -8.5t9 -24.5q0 -14 -8 -24q7 4 15 4q14 0 23 -9t9 -24q0 -16 -8.5 -25t-23.5 -9q-13 0 -22 9.5t-9 24.5q0 13 8 23q-7 -4 -16 -4q-13 0 -22 9.5zM133 376.5q9 -8.5 9 -24.5t-9 -25.5t-24 -9.5q-13 0 -22 9.5t-9 25.5t9 24.5t22 8.5q15 0 24 -8.5zM105.5 216
q-9.5 -9 -24.5 -9q-13 0 -21.5 9t-8.5 25t8.5 24.5t21.5 8.5q15 0 24.5 -8.5t9.5 -24.5t-9.5 -25zM529.5 265.5q9.5 -8.5 9.5 -24.5t-8.5 -25t-23.5 -9t-24 9t-9 25t9 24.5t24 8.5q13 0 22.5 -8.5zM133 156q9 -9 9 -25t-9 -25t-24 -9q-13 0 -22 9.5t-9 24.5q0 16 9 25t22 9
q15 0 24 -9zM502 156q9 -9 9 -25t-8.5 -25t-23.5 -9q-13 0 -22.5 9.5t-9.5 24.5q0 16 9.5 25t22.5 9q14 0 23 -9zM211 74q9 -8 9 -23q0 -17 -8.5 -26.5t-23.5 -9.5q-13 0 -22 9.5t-9 26.5q0 14 9 22.5t22 8.5q14 0 23 -8zM423 74q9 -8 9 -23q0 -17 -8.5 -26.5t-23.5 -9.5
q-13 0 -22 9.5t-9 26.5q0 14 9 22.5t22 8.5q14 0 23 -8zM318 46q9 -9 9 -24q0 -16 -9 -25t-24 -9q-13 0 -22 9t-9 25q0 15 9 24t22 9q15 0 24 -9z" />
    <glyph glyph-name="dotlessj" unicode="&#xf6be;" horiz-adv-x="219" 
d="M-33 -215l11 41q29 -9 50 -9q37 0 50.5 26t13.5 77v561h51v-564q0 -72 -27.5 -108t-85.5 -36q-33 0 -63 12z" />
    <glyph glyph-name="uniFB2A" unicode="&#xfb2a;" horiz-adv-x="614" 
d="M446.5 99q-108.5 -104 -325.5 -109l-69 560h53l36 -296q51 28 79.5 57t42.5 71t16 108v58h53v-57q-3 -75 -22 -126t-58 -88t-105 -69l20 -168q164 11 249 100.5t84 272.5l-1 137h54l1 -136q1 -211 -107.5 -315zM542 674.5q8 -9.5 8 -20.5q0 -13 -8 -22.5t-20 -9.5
t-20.5 10t-8.5 22q0 11 8.5 20.5t20.5 9.5t20 -9.5z" />
    <glyph glyph-name="uniFB2B" unicode="&#xfb2b;" horiz-adv-x="614" 
d="M446.5 99q-108.5 -104 -325.5 -109l-69 560h53l36 -296q51 28 79.5 57t42.5 71t16 108v58h53v-57q-3 -75 -22 -126t-58 -88t-105 -69l20 -168q164 11 249 100.5t84 272.5l-1 137h54l1 -136q1 -211 -107.5 -315zM88 674.5q8 -9.5 8 -20.5q0 -13 -8 -22.5t-20 -9.5
t-20.5 10t-8.5 22q0 11 8.5 20.5t20.5 9.5t20 -9.5z" />
    <glyph glyph-name="uniFB2C" unicode="&#xfb2c;" horiz-adv-x="614" 
d="M446.5 99q-108.5 -104 -325.5 -109l-69 560h53l36 -296q51 28 79.5 57t42.5 71t16 108v58h53v-57q-3 -75 -22 -126t-58 -88t-105 -69l20 -168q164 11 249 100.5t84 272.5l-1 137h54l1 -136q1 -211 -107.5 -315zM391 310q8 -9 8 -21q0 -13 -8 -22t-20 -9q-13 0 -21 9
t-8 22q0 11 8.5 20.5t20.5 9.5t20 -9zM542 674.5q8 -9.5 8 -20.5q0 -13 -8 -22.5t-20 -9.5t-20.5 10t-8.5 22q0 11 8.5 20.5t20.5 9.5t20 -9.5z" />
    <glyph glyph-name="uniFB2D" unicode="&#xfb2d;" horiz-adv-x="614" 
d="M446.5 99q-108.5 -104 -325.5 -109l-69 560h53l36 -296q51 28 79.5 57t42.5 71t16 108v58h53v-57q-3 -75 -22 -126t-58 -88t-105 -69l20 -168q164 11 249 100.5t84 272.5l-1 137h54l1 -136q1 -211 -107.5 -315zM391 310q8 -9 8 -21q0 -13 -8 -22t-20 -9q-13 0 -21 9
t-8 22q0 11 8.5 20.5t20.5 9.5t20 -9zM88 674.5q8 -9.5 8 -20.5q0 -13 -8 -22.5t-20 -9.5t-20.5 10t-8.5 22q0 11 8.5 20.5t20.5 9.5t20 -9.5z" />
    <glyph glyph-name="uniFB2E" unicode="&#xfb2e;" horiz-adv-x="541" 
d="M443 0l-241 358l-113 -358h-53l109 344l26 63l-91 143h57l91 -143l101 -150l22 80l67 213h54l-111 -341l142 -209h-60zM350 -94h-156v34h156v-34z" />
    <glyph glyph-name="uniFB2F" unicode="&#xfb2f;" horiz-adv-x="541" 
d="M443 0l-241 358l-113 -358h-53l109 344l26 63l-91 143h57l91 -143l101 -150l22 80l67 213h54l-111 -341l142 -209h-60zM350 -94h-68l8 -100h-37l8 100h-67v34h156v-34z" />
    <glyph glyph-name="uniFB30" unicode="&#xfb30;" horiz-adv-x="541" 
d="M443 0l-241 358l-113 -358h-53l109 344l26 63l-91 143h57l91 -143l101 -150l22 80l67 213h54l-111 -341l142 -209h-60zM260 150q8 -9 8 -21q0 -13 -8 -22t-20 -9q-13 0 -21 9t-8 22q0 11 8.5 20.5t20.5 9.5t20 -9z" />
    <glyph glyph-name="uniFB31" unicode="&#xfb31;" horiz-adv-x="521" 
d="M479 46v-46h-127h-296v46h296v320q0 74 -32 106.5t-90 32.5h-174v45h184q166 0 166 -185v-319h73zM209 319q8 -9 8 -21q0 -13 -8 -22t-20 -9q-13 0 -21 9t-8 22q0 11 8.5 20.5t20.5 9.5t20 -9z" />
    <glyph glyph-name="uniFB32" unicode="&#xfb32;" horiz-adv-x="355" 
d="M254 0l-27 145q-56 -114 -178 -158l-20 46q66 24 111 64t76 106v191q0 54 -12.5 80t-50.5 32l-65 10l8 45l73 -12q57 -10 79 -45t22 -107v-195l37 -202h-53zM113 322q8 -9 8 -21q0 -13 -8 -22t-20 -9q-13 0 -21 9t-8 22q0 11 8.5 20.5t20.5 9.5t20 -9z" />
    <glyph glyph-name="uniFB33" unicode="&#xfb33;" horiz-adv-x="533" 
d="M320 388q0 75 27 117h-288v45h414v-45h-73q-26 -43 -26 -117v-388h-54v388zM206 319q8 -9 8 -21q0 -13 -8 -22t-20 -9q-13 0 -21 9t-8 22q0 11 8.5 20.5t20.5 9.5t20 -9z" />
    <glyph glyph-name="uniFB34" unicode="&#xfb34;" horiz-adv-x="537" 
d="M409 366q0 74 -31.5 106.5t-89.5 32.5h-225v45h234q167 0 167 -185v-365h-55v366zM63 269l8 67h47v-336h-55v269zM281 319q8 -9 8 -21q0 -13 -8 -22t-20 -9q-13 0 -21 9t-8 22q0 11 8.5 20.5t20.5 9.5t20 -9z" />
    <glyph glyph-name="uniFB35" unicode="&#xfb35;" horiz-adv-x="213" 
d="M83 433l-13 117h54l14 -117v-433h-55v433zM19 319q8 -9 8 -21q0 -13 -8 -22t-20 -9q-13 0 -21 9t-8 22q0 11 8.5 20.5t20.5 9.5t20 -9z" />
    <glyph glyph-name="uniFB36" unicode="&#xfb36;" horiz-adv-x="356" 
d="M136 388q0 73 27 117h-103v45h236v-45h-80q-25 -42 -25 -117v-388h-55v388zM75 319q8 -9 8 -21q0 -13 -8 -22t-20 -9q-13 0 -21 9t-8 22q0 11 8.5 20.5t20.5 9.5t20 -9z" />
    <glyph glyph-name="uniFB38" unicode="&#xfb38;" horiz-adv-x="541" 
d="M52 550h55l61 -508q120 12 197.5 80t72.5 212v23q0 68 -35 108t-104 44l-50 3l4 46l54 -4q177 -13 183 -188l1 -28q6 -171 -98 -255.5t-274 -92.5zM298 322q8 -9 8 -21q0 -13 -8 -22t-20 -9q-13 0 -21 9t-8 22q0 11 8.5 20.5t20.5 9.5t20 -9z" />
    <glyph glyph-name="uniFB39" unicode="&#xfb39;" horiz-adv-x="213" 
d="M83 433l-13 117h54l14 -117v-147l-1 -63l-54 -13v223zM28 409q8 -9 8 -21q0 -13 -8 -22t-20 -9q-13 0 -21 9t-8 22q0 11 8.5 20.5t20.5 9.5t20 -9z" />
    <glyph glyph-name="uniFB3A" unicode="&#xfb3a;" horiz-adv-x="500" 
d="M371 366q0 74 -32 106.5t-90 32.5h-189v45h199q166 0 166 -185v-565h-54v566zM212 319q8 -9 8 -21q0 -13 -8 -22t-20 -9q-13 0 -21 9t-8 22q0 11 8.5 20.5t20.5 9.5t20 -9z" />
    <glyph glyph-name="uniFB3B" unicode="&#xfb3b;" horiz-adv-x="467" 
d="M50 46h123q179 0 179 200v59q0 200 -179 200h-123v45h131q108 0 167 -62.5t59 -184.5v-56q0 -122 -59 -184.5t-167 -62.5h-131v46zM198 311q8 -9 8 -21q0 -13 -8 -22t-20 -9q-13 0 -21 9t-8 22q0 11 8.5 20.5t20.5 9.5t20 -9z" />
    <glyph glyph-name="uniFB3C" unicode="&#xfb3c;" horiz-adv-x="469" 
d="M419 550v-48l-198 -502h-54l197 505h-318v212h52v-167h321zM153 319q8 -9 8 -21q0 -13 -8 -22t-20 -9q-13 0 -21 9t-8 22q0 11 8.5 20.5t20.5 9.5t20 -9z" />
    <glyph glyph-name="uniFB3E" unicode="&#xfb3e;" horiz-adv-x="592" 
d="M480 64q-58 -75 -166 -75q-37 0 -79 9l6 45q33 -8 70 -8q174 0 174 247q0 227 -154 227q-58 0 -92.5 -33t-49.5 -87l-73 -389h-55l76 390l-77 160h56l55 -122q20 63 64.5 94.5t100.5 31.5q91 0 146.5 -63t55.5 -210q0 -142 -58 -217zM345 319q8 -9 8 -21q0 -13 -8 -22
t-20 -9q-13 0 -21 9t-8 22q0 11 8.5 20.5t20.5 9.5t20 -9z" />
    <glyph glyph-name="uniFB40" unicode="&#xfb40;" horiz-adv-x="363" 
d="M52 46h183v348q0 52 -21.5 78t-64.5 33l-66 11l9 45l73 -12q124 -22 124 -154v-395h-237v46zM126 319q8 -9 8 -21q0 -13 -8 -22t-20 -9q-13 0 -21 9t-8 22q0 11 8.5 20.5t20.5 9.5t20 -9z" />
    <glyph glyph-name="uniFB41" unicode="&#xfb41;" horiz-adv-x="551" 
d="M399 74q-105 -75 -280 -84l-62 515l-5 45h262q85 0 132.5 -54.5t50.5 -147.5l1 -29q6 -170 -99 -245zM371 114q78 60 73 205v23q0 71 -35.5 117t-99.5 46h-197l56 -463q125 12 203 72zM296 321q8 -9 8 -21q0 -13 -8 -22t-20 -9q-13 0 -21 9t-8 22q0 11 8.5 20.5t20.5 9.5
t20 -9z" />
    <glyph glyph-name="uniFB43" unicode="&#xfb43;" horiz-adv-x="542" 
d="M415.5 488.5q50.5 -61.5 51.5 -183.5v-505h-55v505q0 100 -37 150t-112 50h-116l-20 -101q-8 -40 -8 -64q0 -35 14 -56t45 -31l-17 -38q-48 11 -71 41t-23 80q0 27 8 69l30 145h166q94 0 144.5 -61.5zM308 319q8 -9 8 -21q0 -13 -8 -22t-20 -9q-13 0 -21 9t-8 22
q0 11 8.5 20.5t20.5 9.5t20 -9z" />
    <glyph glyph-name="uniFB44" unicode="&#xfb44;" horiz-adv-x="535" 
d="M83 46h151q86 0 137 45t51 156v58q0 200 -151 200h-115l-29 -120q-8 -35 -8 -57q0 -37 20 -58.5t66 -29.5l-14 -42q-64 10 -93 41t-29 86q0 31 7 63l38 162h164q95 0 146.5 -62t51.5 -183v-56q0 -133 -65 -191t-170 -58h-158v46zM305 318q8 -9 8 -21q0 -13 -8 -22t-20 -9
q-13 0 -21 9t-8 22q0 11 8.5 20.5t20.5 9.5t20 -9z" />
    <glyph glyph-name="uniFB46" unicode="&#xfb46;" horiz-adv-x="502" 
d="M456 0h-57h-357v46h329l-305 504h57l152 -251l109 251h56l-135 -301zM174 156q-8 -9 -20 -9q-13 0 -21 9t-8 22q0 11 8.5 20.5t20.5 9.5t20 -9t8 -21q0 -13 -8 -22z" />
    <glyph glyph-name="uniFB47" unicode="&#xfb47;" horiz-adv-x="535" 
d="M212 45q55 7 93.5 26.5t65 70t32.5 141.5l18 222h-363v45h422l-3 -42l-18 -218q-7 -144 -73 -214t-168 -76zM63 286l8 68h47v-554h-55v486zM290 322q8 -9 8 -21q0 -13 -8 -22t-20 -9q-13 0 -21 9t-8 22q0 11 8.5 20.5t20.5 9.5t20 -9z" />
    <glyph glyph-name="uniFB48" unicode="&#xfb48;" horiz-adv-x="467" 
d="M338 366q0 74 -31.5 106.5t-89.5 32.5h-171v45h180q167 0 167 -185v-365h-55v366zM182 319q8 -9 8 -21q0 -13 -8 -22t-20 -9q-13 0 -21 9t-8 22q0 11 8.5 20.5t20.5 9.5t20 -9z" />
    <glyph glyph-name="uniFB49" unicode="&#xfb49;" horiz-adv-x="614" 
d="M446.5 99q-108.5 -104 -325.5 -109l-69 560h53l36 -296q51 28 79.5 57t42.5 71t16 108v58h53v-57q-3 -75 -22 -126t-58 -88t-105 -69l20 -168q164 11 249 100.5t84 272.5l-1 137h54l1 -136q1 -211 -107.5 -315zM391 310q8 -9 8 -21q0 -13 -8 -22t-20 -9q-13 0 -21 9
t-8 22q0 11 8.5 20.5t20.5 9.5t20 -9z" />
    <glyph glyph-name="uniFB4A" unicode="&#xfb4a;" horiz-adv-x="595" 
d="M24 28q60 5 84.5 36t23.5 90v396h226q166 0 166 -185v-365h-54v366q0 74 -32 106.5t-90 32.5h-162v-346q0 -81 -37 -123t-119 -49zM344 319q8 -9 8 -21q0 -13 -8 -22t-20 -9q-13 0 -21 9t-8 22q0 11 8.5 20.5t20.5 9.5t20 -9z" />
    <glyph glyph-name="uniFB4B" unicode="&#xfb4b;" horiz-adv-x="213" 
d="M83 433l-13 117h54l14 -117v-433h-55v433zM105 665q8 -9 8 -21q0 -13 -8 -22t-20 -9q-13 0 -21 9t-8 22q0 12 8.5 21t20.5 9t20 -9z" />
    <glyph glyph-name="a.sups" horiz-adv-x="339" 
d="M67.5 420.5q-26.5 24.5 -26.5 67.5q0 52 48.5 79.5t155.5 38.5q0 41 -15 64.5t-52 23.5q-28 0 -57 -11t-50 -26l-16 31q25 17 59 29.5t69 12.5q55 0 79.5 -33t24.5 -94v-199h-33l-6 39h-5q-51 -47 -105 -47q-44 0 -70.5 24.5zM245 479v98q-87 -9 -124 -30.5t-37 -55.5
q0 -30 17 -45t48 -15q47 0 96 48z" />
    <glyph glyph-name="e.sups" horiz-adv-x="331" 
d="M73.5 440.5q-42.5 44.5 -42.5 122.5q0 50 19.5 88t52.5 58.5t73 20.5q68 0 97.5 -45t29.5 -98q0 -17 -3 -32h-227q2 -57 32.5 -90.5t81.5 -33.5q46 0 86 29l18 -30q-26 -16 -51.5 -25t-57.5 -9q-66 0 -108.5 44.5zM264 587q0 44 -21.5 76t-66.5 32q-42 0 -69.5 -29
t-33.5 -79h191z" />
    <glyph glyph-name="eogonek.sups" horiz-adv-x="331" 
d="M73.5 440.5q-42.5 44.5 -42.5 122.5q0 50 19.5 88t52.5 58.5t73 20.5q68 0 97.5 -45t29.5 -98q0 -17 -3 -32h-227q2 -57 32.5 -90.5t81.5 -33.5q46 0 86 29l18 -30q-26 -16 -51.5 -25t-57.5 -9q-66 0 -108.5 44.5zM264 587q0 44 -21.5 76t-66.5 32q-42 0 -69.5 -29
t-33.5 -79h191z" />
    <glyph glyph-name="j.sups" horiz-adv-x="159" 
d="M57.5 801.5q-9.5 9.5 -9.5 23.5t9.5 23t23.5 9q15 0 24.5 -9t9.5 -23t-9.5 -23.5t-24.5 -9.5q-14 0 -23.5 9.5zM-22 263l9 35q15 -6 30 -6q24 0 33 16t9 48v366h42v-362q0 -53 -19.5 -79t-60.5 -26q-23 0 -43 8z" />
    <glyph glyph-name="o.sups" horiz-adv-x="361" 
d="M105 416q-34 20 -53.5 58t-19.5 89t19.5 89t53 58t74.5 20t74.5 -20t53.5 -58t20 -89t-20 -89t-53.5 -58t-74.5 -20q-40 0 -74 20zM254.5 468.5q28.5 36.5 28.5 94.5q0 59 -28.5 95t-75.5 36q-46 0 -74.5 -36t-28.5 -95q0 -58 28.5 -94.5t74.5 -36.5q47 0 75.5 36.5z" />
    <glyph glyph-name="zero.heb" 
d="M98.5 75q-50.5 87 -50.5 247q0 159 50 244t143 85t143.5 -85.5t50.5 -243.5q0 -160 -51 -247t-143 -87t-142.5 87zM345 106q38 74 38 216q0 141 -38 213.5t-104 72.5t-104 -72.5t-38 -213.5q0 -142 38 -216t104 -74t104 74z" />
    <glyph glyph-name="one.heb" 
d="M83 45h150v518h-115v35q73 11 125 41h41v-594h138v-45h-339v45z" />
    <glyph glyph-name="two.heb" 
d="M41 32q117 118 180.5 191t97.5 133t34 113q0 62 -34 100t-102 38q-41 0 -78.5 -22t-67.5 -60l-33 31q40 45 84.5 70t99.5 25q85 0 134 -49t49 -132q0 -60 -34 -122.5t-89.5 -127t-164.5 -179.5q72 4 108 4h211v-45h-395v32z" />
    <glyph glyph-name="three.heb" 
d="M114.5 13q-48.5 25 -85.5 65l28 35q34 -37 75 -58.5t99 -21.5q64 0 105.5 37.5t41.5 98.5q0 67 -53 105.5t-166 38.5v44q102 0 148.5 36.5t46.5 97.5q0 53 -34 84.5t-91 31.5q-41 0 -78 -19t-66 -50l-30 35q82 78 175 78q78 0 127.5 -41.5t49.5 -114.5q0 -59 -32.5 -98
t-87.5 -58v-5q62 -13 103 -56.5t41 -108.5q0 -55 -26 -96t-71.5 -63t-101.5 -22q-69 0 -117.5 25z" />
    <glyph glyph-name="four.heb" 
d="M452 188h-94v-188h-49v188h-292v32l292 419h49v-408h94v-43zM309 231v225q0 53 4 113h-4l-27 -43q-5 -8 -11.5 -17.5t-13.5 -21.5l-180 -256h232z" />
    <glyph glyph-name="five.heb" 
d="M111.5 12q-47.5 24 -86.5 63l29 35q34 -36 74 -56.5t98 -20.5q42 0 77.5 21t56.5 58.5t21 86.5q0 75 -41.5 118t-110.5 43q-34 0 -59.5 -10t-57.5 -32l-33 21l23 300h299v-45h-253l-20 -223q26 16 52.5 24t58.5 8q86 0 140.5 -51t54.5 -150q0 -66 -29 -114.5t-76 -74
t-101 -25.5q-69 0 -116.5 24z" />
    <glyph glyph-name="six.heb" 
d="M393 335.5q47 -50.5 47 -146.5q0 -58 -24 -103.5t-65 -71.5t-89 -26q-97 0 -153.5 79t-56.5 224q0 126 32 206.5t85 117t119 36.5q81 0 139 -63l-31 -34q-21 25 -49 39t-59 14q-82 0 -133.5 -73.5t-52.5 -234.5q34 41 75 64t84 23q85 0 132 -50.5zM327 51.5
q29 20.5 45.5 57t16.5 80.5q0 71 -33.5 113.5t-100.5 42.5q-37 0 -77 -23t-75 -72q7 -103 47.5 -161t112.5 -58q35 0 64 20.5z" />
    <glyph glyph-name="seven.heb" 
d="M237 324.5q44 134.5 140 269.5h-333v45h396v-31q-75 -99 -116.5 -189.5t-59.5 -188t-23 -230.5h-55q7 190 51 324.5z" />
    <glyph glyph-name="eight.heb" 
d="M139.5 11q-46.5 23 -73 63t-26.5 90q0 59 37 105t89 74v4q-40 27 -65 63.5t-25 82.5t22.5 82t61 56t85.5 20q81 0 127.5 -46.5t46.5 -120.5q0 -47 -28 -90.5t-62 -70.5v-4q52 -32 82 -68.5t30 -94.5q0 -47 -25 -85.5t-69.5 -60.5t-102.5 -22t-104.5 23zM371 482
q0 54 -34 91t-92 37q-52 0 -86 -33t-34 -84q0 -41 23 -69.5t56 -46.5t87 -40q80 66 80 145zM349 66q40 36 40 91q0 44 -25.5 74t-61 48t-104.5 45q-50 -30 -79 -69.5t-29 -87.5q0 -38 20 -69.5t55.5 -49.5t79.5 -18q64 0 104 36z" />
    <glyph glyph-name="nine.heb" 
d="M373.5 572q56.5 -79 56.5 -224q0 -126 -32 -206.5t-85 -117t-119 -36.5q-83 0 -139 63l31 34q20 -25 48.5 -38.5t59.5 -13.5q82 0 133.5 73t52.5 234q-34 -41 -75 -64t-84 -23q-85 0 -132 50.5t-47 146.5q0 58 24 103.5t65 71.5t89 26q97 0 153.5 -79zM304 318
q40 23 75 71q-7 103 -47.5 161t-112.5 58q-35 0 -64 -20.5t-45.5 -57t-16.5 -80.5q0 -71 33.5 -113t100.5 -42q37 0 77 23z" />
    <glyph glyph-name="zero.lat" 
d="M98.5 75q-50.5 87 -50.5 247q0 159 50 244t143 85t143.5 -85.5t50.5 -243.5q0 -160 -51 -247t-143 -87t-142.5 87zM345 106q38 74 38 216q0 141 -38 213.5t-104 72.5t-104 -72.5t-38 -213.5q0 -142 38 -216t104 -74t104 74z" />
    <glyph glyph-name="one.lat" 
d="M83 45h150v518h-115v35q73 11 125 41h41v-594h138v-45h-339v45z" />
    <glyph glyph-name="two.lat" 
d="M41 32q117 118 180.5 191t97.5 133t34 113q0 62 -34 100t-102 38q-41 0 -78.5 -22t-67.5 -60l-33 31q40 45 84.5 70t99.5 25q85 0 134 -49t49 -132q0 -60 -34 -122.5t-89.5 -127t-164.5 -179.5q72 4 108 4h211v-45h-395v32z" />
    <glyph glyph-name="three.lat" 
d="M114.5 13q-48.5 25 -85.5 65l28 35q34 -37 75 -58.5t99 -21.5q64 0 105.5 37.5t41.5 98.5q0 67 -53 105.5t-166 38.5v44q102 0 148.5 36.5t46.5 97.5q0 53 -34 84.5t-91 31.5q-41 0 -78 -19t-66 -50l-30 35q82 78 175 78q78 0 127.5 -41.5t49.5 -114.5q0 -59 -32.5 -98
t-87.5 -58v-5q62 -13 103 -56.5t41 -108.5q0 -55 -26 -96t-71.5 -63t-101.5 -22q-69 0 -117.5 25z" />
    <glyph glyph-name="four.lat" 
d="M452 188h-94v-188h-49v188h-292v32l292 419h49v-408h94v-43zM309 231v225q0 53 4 113h-4l-27 -43q-5 -8 -11.5 -17.5t-13.5 -21.5l-180 -256h232z" />
    <glyph glyph-name="five.lat" 
d="M111.5 12q-47.5 24 -86.5 63l29 35q34 -36 74 -56.5t98 -20.5q42 0 77.5 21t56.5 58.5t21 86.5q0 75 -41.5 118t-110.5 43q-34 0 -59.5 -10t-57.5 -32l-33 21l23 300h299v-45h-253l-20 -223q26 16 52.5 24t58.5 8q86 0 140.5 -51t54.5 -150q0 -66 -29 -114.5t-76 -74
t-101 -25.5q-69 0 -116.5 24z" />
    <glyph glyph-name="six.lat" 
d="M393 335.5q47 -50.5 47 -146.5q0 -58 -24 -103.5t-65 -71.5t-89 -26q-97 0 -153.5 79t-56.5 224q0 126 32 206.5t85 117t119 36.5q81 0 139 -63l-31 -34q-21 25 -49 39t-59 14q-82 0 -133.5 -73.5t-52.5 -234.5q34 41 75 64t84 23q85 0 132 -50.5zM327 51.5
q29 20.5 45.5 57t16.5 80.5q0 71 -33.5 113.5t-100.5 42.5q-37 0 -77 -23t-75 -72q7 -103 47.5 -161t112.5 -58q35 0 64 20.5z" />
    <glyph glyph-name="seven.lat" 
d="M237 324.5q44 134.5 140 269.5h-333v45h396v-31q-75 -99 -116.5 -189.5t-59.5 -188t-23 -230.5h-55q7 190 51 324.5z" />
    <glyph glyph-name="eight.lat" 
d="M139.5 11q-46.5 23 -73 63t-26.5 90q0 59 37 105t89 74v4q-40 27 -65 63.5t-25 82.5t22.5 82t61 56t85.5 20q81 0 127.5 -46.5t46.5 -120.5q0 -47 -28 -90.5t-62 -70.5v-4q52 -32 82 -68.5t30 -94.5q0 -47 -25 -85.5t-69.5 -60.5t-102.5 -22t-104.5 23zM371 482
q0 54 -34 91t-92 37q-52 0 -86 -33t-34 -84q0 -41 23 -69.5t56 -46.5t87 -40q80 66 80 145zM349 66q40 36 40 91q0 44 -25.5 74t-61 48t-104.5 45q-50 -30 -79 -69.5t-29 -87.5q0 -38 20 -69.5t55.5 -49.5t79.5 -18q64 0 104 36z" />
    <glyph glyph-name="nine.lat" 
d="M373.5 572q56.5 -79 56.5 -224q0 -126 -32 -206.5t-85 -117t-119 -36.5q-83 0 -139 63l31 34q20 -25 48.5 -38.5t59.5 -13.5q82 0 133.5 73t52.5 234q-34 -41 -75 -64t-84 -23q-85 0 -132 50.5t-47 146.5q0 58 24 103.5t65 71.5t89 26q97 0 153.5 -79zM304 318
q40 23 75 71q-7 103 -47.5 161t-112.5 58q-35 0 -64 -20.5t-45.5 -57t-16.5 -80.5q0 -71 33.5 -113t100.5 -42q37 0 77 23z" />
    <glyph glyph-name="zero.pnumheb" horiz-adv-x="503" 
d="M119.5 63.5q-46.5 76.5 -46.5 217.5t46 216t133 75q86 0 132.5 -75.5t46.5 -215.5t-47 -217t-132 -77q-86 0 -132.5 76.5zM347.5 94q34.5 65 34.5 187q0 120 -34 185t-96 65q-63 0 -97 -65t-34 -185q0 -122 34.5 -187t96.5 -65q61 0 95.5 65z" />
    <glyph glyph-name="one.pnumheb" horiz-adv-x="361" 
d="M320 45v-46h-254v46h104v448h-102v32l2 2q64 9 110 37h39v-519h101z" />
    <glyph glyph-name="two.pnumheb" 
d="M60 30q104 105 161 170t85 116t28 97q0 54 -29.5 87t-88.5 33q-67 0 -127 -72h-2l-29 27v3q38 42 76.5 63t86.5 21q75 0 118.5 -44t43.5 -116q0 -52 -29.5 -107.5t-78.5 -113t-141 -154.5q45 3 91 3h186v-43h-351v30z" />
    <glyph glyph-name="three.pnumheb" horiz-adv-x="478" 
d="M370.5 243q35.5 -39 35.5 -96q0 -72 -49.5 -116t-126.5 -44q-61 0 -104 22t-76 57v2l25 31l3 1q29 -32 65 -51t86 -19q56 0 91.5 32t35.5 85q0 59 -46.5 92t-144.5 33l-1 1v39l1 2q89 0 129.5 31.5t40.5 84.5q0 45 -29 72.5t-79 27.5q-36 0 -68 -16.5t-57 -43.5h-3
l-26 31v2q71 69 155 69q69 0 113.5 -37t44.5 -101q0 -52 -28.5 -87t-77.5 -52v-1q55 -12 90.5 -51z" />
    <glyph glyph-name="four.pnumheb" 
d="M441 164h-82v-165h-47v165l-257 -1v32l257 369h47v-358h82v-42zM312 206v194q0 44 4 98l-2 1l-27 -44l-18 -28l-156 -221h199z" />
    <glyph glyph-name="five.pnumheb" horiz-adv-x="476" 
d="M123.5 8q-42.5 21 -76.5 55v2l25 32h3q30 -31 64.5 -49t84.5 -18q37 0 67.5 18t49 51t18.5 75q0 64 -35.5 101.5t-96.5 37.5q-26 -1 -48.5 -8.5t-54.5 -28.5l-30 19l20 267h266v-44h-222l-19 -191q47 27 97 27q77 0 125 -45.5t48 -132.5q0 -57 -25.5 -100t-67 -66
t-89.5 -23q-61 0 -103.5 21z" />
    <glyph glyph-name="six.pnumheb" horiz-adv-x="476" 
d="M382 294q41 -46 41 -129q0 -50 -21 -91t-57.5 -64t-79.5 -23q-86 0 -136.5 70t-50.5 197q0 164 59.5 241t150.5 77q72 0 123 -56v-2l-27 -30h-2q-18 22 -42 33.5t-52 11.5q-71 0 -115 -63t-46 -199q30 35 66 54t72 19q76 0 117 -46zM344 67.5q31 39.5 31 97.5
q0 62 -29 98.5t-88 36.5q-31 0 -65.5 -20t-64.5 -62q5 -88 39.5 -139t98.5 -51q47 0 78 39.5z" />
    <glyph glyph-name="seven.pnumheb" horiz-adv-x="472" 
d="M178 1q7 166 44 284t119 236h-280v44h341v-31q-64 -85 -99.5 -164t-51.5 -164.5t-21 -204.5l-1 -1h-50z" />
    <glyph glyph-name="eight.pnumheb" horiz-adv-x="476" 
d="M164.5 7q-41.5 20 -65 56t-23.5 80q0 47 29.5 88.5t82.5 69.5q-82 54 -82 131q0 62 43 101t108 39q71 0 113 -41.5t42 -106.5q0 -38 -22 -76t-60 -68q54 -33 77.5 -66t23.5 -78q0 -42 -22 -76t-62 -53.5t-90 -19.5q-51 0 -92.5 20zM366 422q0 47 -29 79t-80 32
q-45 0 -74 -28.5t-29 -72.5q0 -35 19 -59.5t48 -41t75 -34.5q70 58 70 125zM347.5 58.5q34.5 31.5 34.5 78.5q0 38 -22 64t-53 41.5t-91 39.5q-46 -28 -69.5 -62.5t-23.5 -73.5q0 -51 38 -85t96 -34q56 0 90.5 31.5z" />
    <glyph glyph-name="nine.pnumheb" horiz-adv-x="476" 
d="M362 502q50 -70 50 -197q0 -112 -28.5 -183t-75.5 -103t-105 -32q-73 0 -124 56v2l28 30h2q18 -22 42.5 -33.5t51.5 -11.5q70 0 114.5 63t46.5 200q-29 -35 -65.5 -54.5t-72.5 -19.5q-76 0 -117 45.5t-41 129.5q0 50 21 91t57 64t79 23q87 0 137 -70zM298 280
q34 20 65 61q-5 88 -39.5 139t-98.5 51q-48 0 -78.5 -39.5t-30.5 -97.5q0 -61 29 -97.5t87 -36.5q32 0 66 20z" />
    <glyph glyph-name="one.supsheb" horiz-adv-x="354" 
d="M173 730h-84v30q29 6 50 15t40 24h36v-390h-42v321z" />
    <glyph glyph-name="two.supsheb" horiz-adv-x="366" 
d="M58 435q75 70 113.5 109.5t58.5 72.5t20 65q0 42 -23 66.5t-61 24.5q-25 0 -48.5 -17t-41.5 -44l-27 25q19 32 52.5 52.5t69.5 20.5q56 0 89 -31.5t33 -91.5q0 -38 -19.5 -74.5t-50 -70t-94.5 -96.5h187v-37h-258v26z" />
    <glyph glyph-name="three.supsheb" horiz-adv-x="363" 
d="M98 418q-36 21 -59 53l32 24q18 -28 46 -45t60 -17q38 0 63.5 21.5t25.5 58.5q0 38 -35.5 58t-98.5 20v31q54 0 86 23.5t32 57.5q0 32 -22 51.5t-58 19.5q-23 0 -45.5 -14t-41.5 -37l-28 25q50 62 120 62q51 0 85 -28t34 -75q0 -35 -20 -60t-54 -38q38 -7 64 -33t26 -64
q0 -53 -37.5 -84t-94.5 -31q-44 0 -80 21z" />
    <glyph glyph-name="fraction.lat" horiz-adv-x="81" 
d="M202 670h41l-367 -682h-41z" />
    <glyph glyph-name="one.sups" horiz-adv-x="352" 
d="M172 730h-84v30q29 6 49.5 15t39.5 24h37v-390h-42v321z" />
    <glyph glyph-name="two.sups" horiz-adv-x="365" 
d="M58 435q75 70 113.5 109.5t58.5 72.5t20 65q0 42 -23 66.5t-61 24.5q-25 0 -48.5 -17t-41.5 -44l-27 25q19 32 52.5 52.5t69.5 20.5q56 0 89 -31.5t33 -91.5q0 -38 -19.5 -74.5t-50 -70t-94.5 -96.5h187v-37h-258v26z" />
    <glyph glyph-name="three.sups" horiz-adv-x="365" 
d="M99.5 418q-36.5 21 -58.5 53l31 24q18 -28 46.5 -45t60.5 -17q38 0 63.5 21.5t25.5 58.5q0 38 -36 58t-99 20v31q55 0 87 23.5t32 57.5q0 32 -22 51.5t-59 19.5q-22 0 -45 -14t-42 -37l-27 25q50 62 119 62q51 0 85.5 -28t34.5 -75q0 -34 -20.5 -59t-53.5 -39
q37 -7 63.5 -33t26.5 -64q0 -53 -38 -84t-95 -31q-43 0 -79.5 21z" />
    <glyph glyph-name="asterisk.lat" horiz-adv-x="399" 
d="M104 476l55 89l-92 37l11 32l97 -25l7 103h35l7 -102l97 24l11 -32l-92 -37l55 -89l-29 -22l-66 84l-67 -84z" />
    <glyph glyph-name="backslash.lat" horiz-adv-x="356" 
d="M7 710h42l298 -870h-42z" />
    <glyph glyph-name="periodcentered.lat" horiz-adv-x="225" 
d="M80 287.5q-13 13.5 -13 34.5q0 22 13 35.5t32 13.5t32.5 -13.5t13.5 -35.5q0 -21 -13.5 -34.5t-32.5 -13.5t-32 13.5z" />
    <glyph glyph-name="bullet.lat" horiz-adv-x="285" 
d="M70.5 183q-30.5 31 -30.5 81q0 49 31 80.5t72 31.5t71.5 -31.5t30.5 -80.5q0 -50 -30.5 -81t-71.5 -31q-42 0 -72.5 31z" />
    <glyph glyph-name="exclam.lat" horiz-adv-x="265" 
d="M107 595l-1 75h53l-1 -75l-7 -412h-37zM100 1.5q-13 13.5 -13 34.5q0 23 13 36.5t32 13.5t32.5 -14t13.5 -36q0 -21 -13.5 -34.5t-32.5 -13.5t-32 13.5z" />
    <glyph glyph-name="exclamdown.lat" horiz-adv-x="265" 
d="M100 409.5q-13 13.5 -13 35.5q0 21 13 34.5t32 13.5t32.5 -13.5t13.5 -34.5q0 -22 -13.5 -35.5t-32.5 -13.5t-32 13.5zM107 -114l7 412h37l7 -412l1 -75h-53z" />
    <glyph glyph-name="numbersign.lat" 
d="M118 212h-82v40h87l21 166h-88v40h91l26 192h38l-25 -192h146l25 192h39l-25 -192h81v-40h-85l-21 -166h86v-40h-91l-25 -212h-39l26 212h-147l-25 -212h-39zM308 252l21 166h-147l-20 -166h146z" />
    <glyph glyph-name="question.lat" horiz-adv-x="407" 
d="M160 211q0 51 20 89t59 87q34 44 50 73.5t16 64.5q0 48 -28.5 80.5t-82.5 32.5q-35 0 -68 -16.5t-58 -46.5l-31 28q72 79 162 79q72 0 114.5 -43t42.5 -111q0 -42 -18 -75.5t-55 -81.5q-38 -47 -57 -83t-19 -81q0 -8 2 -24h-47q-2 20 -2 28zM156.5 1.5
q-13.5 13.5 -13.5 34.5q0 22 13.5 36t32.5 14t32 -13.5t13 -36.5q0 -21 -13 -34.5t-32 -13.5t-32.5 13.5z" />
    <glyph glyph-name="questiondown.lat" horiz-adv-x="407" 
d="M185.5 409.5q-13.5 13.5 -13.5 35.5q0 21 13.5 34.5t32.5 13.5t32.5 -13.5t13.5 -34.5q0 -22 -13.5 -35.5t-32.5 -13.5t-32.5 13.5zM92.5 -157.5q-42.5 43.5 -42.5 110.5q0 42 18.5 75.5t55.5 82.5q38 47 57 83t19 81q0 7 -2 23h46q2 -20 2 -30q0 -50 -20 -88t-58 -86
q-33 -42 -49.5 -72t-16.5 -65q0 -48 28.5 -80.5t81.5 -32.5q36 0 69 16.5t58 45.5l31 -28q-72 -79 -163 -79q-72 0 -114.5 43.5z" />
    <glyph glyph-name="quotedbl.lat" horiz-adv-x="373" 
d="M122 619v74h58l-1 -74l-10 -150h-36zM192 619l-1 74h58v-74l-11 -150h-36z" />
    <glyph glyph-name="quotesingle.lat" horiz-adv-x="225" 
d="M83 619l-1 74h59l-1 -74l-10 -150h-36z" />
    <glyph glyph-name="slash.lat" horiz-adv-x="356" 
d="M307 710h42l-298 -870h-42z" />
    <glyph glyph-name="braceleft.lat" horiz-adv-x="284" 
d="M139 -124.5q-26 27.5 -26 101.5q0 38 4 104t4 99q0 80 -86 80v36q86 0 86 79q0 34 -4 100t-4 104q0 73 26 101t85 28h36v-32h-29q-43 0 -59 -23.5t-16 -77.5q0 -30 2 -90q3 -46 3 -100q0 -47 -11.5 -71.5t-40.5 -33.5v-4q29 -9 40.5 -34t11.5 -71q0 -53 -3 -100
q-2 -60 -2 -90q0 -54 16 -77.5t59 -23.5h29v-32h-36q-59 0 -85 27.5z" />
    <glyph glyph-name="braceright.lat" horiz-adv-x="284" 
d="M23 -120h30q43 0 59 23.5t16 77.5q0 45 -3 90q0 14 -1.5 44.5t-1.5 55.5q0 45 12 70.5t41 34.5v4q-29 9 -41 34t-12 71q0 25 1.5 55.5t1.5 44.5q3 45 3 90q0 54 -16 77.5t-59 23.5h-30v32h36q59 0 85.5 -28t26.5 -101q0 -49 -5 -104q-4 -66 -4 -100q0 -79 86 -79v-36
q-86 0 -86 -80q0 -33 4 -99q5 -55 5 -104q0 -74 -26.5 -101.5t-85.5 -27.5h-36v32z" />
    <glyph glyph-name="bracketleft.lat" horiz-adv-x="284" 
d="M98 708h162v-32h-123v-796h123v-32h-162v860z" />
    <glyph glyph-name="bracketright.lat" horiz-adv-x="284" 
d="M23 -120h123v796h-123v32h163v-860h-163v32z" />
    <glyph glyph-name="parenleft.lat" horiz-adv-x="284" 
d="M120.5 39.5q-33.5 110.5 -33.5 238.5t33.5 238.5t98.5 214.5l31 -17q-59 -94 -89 -205.5t-30 -230.5t30 -230.5t89 -205.5l-31 -17q-65 104 -98.5 214.5z" />
    <glyph glyph-name="parenright.lat" horiz-adv-x="284" 
d="M33 -158q59 94 89 205.5t30 230.5t-30 230.5t-89 205.5l32 17q65 -105 98.5 -215.5t33.5 -237.5t-33.5 -237.5t-98.5 -215.5z" />
    <glyph glyph-name="emdash.lat" horiz-adv-x="800" 
d="M41 271h718v-40h-718v40z" />
    <glyph glyph-name="endash.lat" horiz-adv-x="480" 
d="M41 271h398v-40h-398v40z" />
    <glyph glyph-name="uni2010.lat" horiz-adv-x="301" 
d="M41 272h221v-44h-221v44z" />
    <glyph glyph-name="guillemotleft.lat" horiz-adv-x="405" 
d="M43 231v42l138 160l26 -22l-122 -159l122 -160l-26 -21zM187 231v42l138 160l26 -22l-122 -159l122 -160l-26 -21z" />
    <glyph glyph-name="guillemotright.lat" horiz-adv-x="405" 
d="M54 92l122 160l-122 159l26 22l138 -160v-42l-138 -160zM198 92l122 160l-122 159l26 22l138 -160v-42l-138 -160z" />
    <glyph glyph-name="guilsinglleft.lat" horiz-adv-x="261" 
d="M43 231v42l138 160l26 -22l-122 -159l122 -160l-26 -21z" />
    <glyph glyph-name="guilsinglright.lat" horiz-adv-x="261" 
d="M54 92l122 160l-122 159l26 22l138 -160v-42l-138 -160z" />
    <glyph glyph-name="quotedblbase.lat" horiz-adv-x="373" 
d="M154 78.5q13 -18.5 13 -52.5q0 -101 -89 -160l-19 27q35 27 52 55t17 68q-3 -1 -9 -1q-17 0 -29.5 11t-12.5 29q0 20 11.5 31t30.5 11q22 0 35 -18.5zM302 78.5q13 -18.5 13 -52.5q0 -101 -89 -160l-19 27q35 27 51.5 55t16.5 68q-2 -1 -8 -1q-17 0 -29.5 11t-12.5 29
q0 20 11.5 31t30.5 11q22 0 35 -18.5z" />
    <glyph glyph-name="quotedblleft.lat" horiz-adv-x="373" 
d="M243.5 542.5q12.5 -10.5 12.5 -29.5q0 -20 -11.5 -31t-30.5 -11q-22 0 -34 17q-11 -17 -35 -17q-23 0 -36 18.5t-13 52.5q0 53 23 92t67 68l19 -27q-36 -27 -52.5 -55t-16.5 -68q3 1 9 1q11 0 21 -5q1 51 24 88.5t66 65.5l19 -27q-36 -27 -52.5 -55t-16.5 -68q2 1 8 1
q17 0 29.5 -10.5z" />
    <glyph glyph-name="quotedblright.lat" horiz-adv-x="373" 
d="M263 680.5q13 -18.5 13 -52.5q0 -101 -89 -160l-19 27q35 27 51.5 55t16.5 68q-2 -1 -8 -1q-12 0 -22 6q-1 -52 -23.5 -89.5t-65.5 -65.5l-19 27q35 27 52 55t17 68q-3 -1 -9 -1q-17 0 -29.5 11t-12.5 29q0 20 11.5 31t30.5 11q22 0 34 -18q12 18 36 18q22 0 35 -18.5z
" />
    <glyph glyph-name="quoteleft.lat" horiz-adv-x="225" 
d="M134.5 542.5q12.5 -10.5 12.5 -29.5q0 -20 -11.5 -31t-29.5 -11q-23 0 -36 18.5t-13 52.5q0 53 23 92t67 68l19 -27q-36 -27 -52.5 -55t-16.5 -68q3 1 9 1q16 0 28.5 -10.5z" />
    <glyph glyph-name="quoteright.lat" horiz-adv-x="225" 
d="M154 680.5q13 -18.5 13 -52.5q0 -101 -89 -160l-19 27q35 27 52 55t17 68q-3 -1 -9 -1q-17 0 -29.5 11t-12.5 29q0 20 11.5 31t30.5 11q22 0 35 -18.5z" />
    <glyph glyph-name="quotesinglbase.lat" horiz-adv-x="225" 
d="M154 78.5q13 -18.5 13 -52.5q0 -101 -89 -160l-19 27q35 27 52 55t17 68q-3 -1 -9 -1q-17 0 -29.5 11t-12.5 29q0 20 11.5 31t30.5 11q22 0 35 -18.5z" />
    <glyph glyph-name="Euro.001" 
d="M477 82q-33 -46 -73.5 -70t-93.5 -24q-88 0 -147 68.5t-74 187.5h-66v32l62 4q-1 13 -1 41q0 23 1 34h-62v32l65 4q14 122 77 191t160 69q43 0 80.5 -22t62.5 -56l-33 -31q-49 66 -111 66q-75 0 -122 -57.5t-59 -159.5h273v-36h-276q-1 -11 -1 -34q0 -28 1 -41h236v-36
h-232q12 -100 56 -156t113 -56q40 0 71 19t60 59z" />
    <glyph glyph-name="Euro.lat.001" 
d="M477 82q-33 -46 -73.5 -70t-93.5 -24q-88 0 -147 68.5t-74 187.5h-66v32l62 4q-1 13 -1 41q0 23 1 34h-62v32l65 4q14 122 77 191t160 69q43 0 80.5 -22t62.5 -56l-33 -31q-49 66 -111 66q-75 0 -122 -57.5t-59 -159.5h273v-36h-276q-1 -11 -1 -34q0 -28 1 -41h236v-36
h-232q12 -100 56 -156t113 -56q40 0 71 19t60 59z" />
    <glyph glyph-name="cent.lat" 
d="M294 78v-107h-38v108q-87 9 -140.5 70t-53.5 162q0 99 55 160t139 71v111h38v-109q42 -1 73.5 -17t60.5 -42l-27 -33q-50 45 -107 48v-377q64 3 119 52l26 -33q-69 -60 -145 -64zM152.5 185.5q38.5 -49.5 103.5 -60.5v372q-63 -11 -102.5 -61t-39.5 -125
q0 -76 38.5 -125.5z" />
    <glyph glyph-name="dollar.lat" 
d="M379.5 41q-42.5 -44 -111.5 -52v-99h-42v99q-48 4 -91.5 25t-76.5 52l26 36q77 -69 160 -69q61 0 93.5 32t32.5 86q0 44 -19 74t-47 49t-74 42q-49 25 -77.5 44.5t-48.5 51.5t-20 80q0 63 39.5 106.5t102.5 51.5v99h42v-99q44 -3 76 -21.5t62 -50.5l-30 -31
q-32 32 -58.5 46t-68.5 14q-50 0 -82 -31.5t-32 -80.5q0 -37 17 -62t42.5 -41.5t68.5 -37.5q51 -25 83 -46.5t54 -59t22 -93.5q0 -70 -42.5 -114z" />
    <glyph glyph-name="Euro.lat" 
d="M477 82q-33 -46 -73.5 -70t-93.5 -24q-88 0 -147 68.5t-74 187.5h-66v32l62 4q-1 13 -1 41q0 23 1 34h-62v32l65 4q14 122 77 191t160 69q43 0 80.5 -22t62.5 -56l-33 -31q-49 66 -111 66q-75 0 -122 -57.5t-59 -159.5h273v-36h-276q-1 -11 -1 -34q0 -28 1 -41h236v-36
h-232q12 -100 56 -156t113 -56q40 0 71 19t60 59z" />
    <glyph glyph-name="florin.lat" 
d="M273 471l-7 -65h135v-43h-140l-29 -260q-10 -98 -46 -149.5t-108 -51.5q-39 0 -66 16l13 40q24 -12 53 -12q49 0 73 42.5t32 120.5l28 254h-94v39l68 4h30l7 62q11 99 46.5 150.5t103.5 51.5q36 0 74 -17l-13 -42q-15 7 -28.5 11t-31.5 4q-84 0 -100 -155z" />
    <glyph glyph-name="sterling.lat" 
d="M432 45v-45h-376v31q53 30 79.5 81t26.5 111q0 28 -9 69h-99v36l66 3h23l-7 24q-12 43 -18 69t-6 54q0 80 47 126.5t126 46.5q89 0 146 -72l-33 -31q-23 28 -49.5 43.5t-62.5 15.5q-58 0 -90 -36.5t-32 -92.5q0 -27 5.5 -53t15.5 -62l9 -32h164v-39h-155q7 -38 7 -70
q0 -57 -17 -97t-53 -76v-4h292z" />
    <glyph glyph-name="yen.lat" 
d="M215 164h-166v36h166v70h-166v36h150l-171 333h56l91 -189q42 -88 64 -137h4q11 20 18.5 37t14.5 30q18 40 34 70l91 189h53l-172 -333h151v-36h-167v-70h167v-36h-167v-164h-51v164z" />
    <glyph glyph-name="uni2215.lat" horiz-adv-x="81" 
d="M202 670h41l-367 -682h-41z" />
    <glyph glyph-name="percent.lat" horiz-adv-x="809" 
d="M77 314q-38 54 -38 153q0 98 38 152t105 54q66 0 104 -54t38 -152q0 -99 -38 -153t-104 -54q-67 0 -105 54zM565 670h41l-367 -682h-41zM254.5 341q26.5 45 26.5 126q0 82 -26.5 126t-72.5 44q-47 0 -73.5 -44t-26.5 -126q0 -81 27 -126t73 -45t72.5 45zM521 42.5
q-38 54.5 -38 153.5q0 98 38 152t105 54q66 0 104 -54t38 -152q0 -99 -38 -153.5t-104 -54.5q-67 0 -105 54.5zM698.5 69.5q26.5 45.5 26.5 126.5t-26.5 125.5t-72.5 44.5t-72.5 -44.5t-26.5 -125.5t26.5 -126.5t72.5 -45.5t72.5 45.5z" />
    <glyph glyph-name="perthousand.lat" horiz-adv-x="1168" 
d="M80 313.5q-38 54.5 -38 153.5q0 97 38 151.5t105 54.5q66 0 104 -54.5t38 -151.5q0 -99 -38 -153.5t-104 -54.5q-67 0 -105 54.5zM562 670h41l-367 -682h-41zM257.5 340.5q26.5 45.5 26.5 126.5t-26.5 125t-72.5 44q-47 0 -73.5 -44t-26.5 -125q0 -82 27 -127t73 -45
t72.5 45.5zM518 42.5q-38 54.5 -38 153.5q0 98 38 152t104 54q67 0 105 -54t38 -152q0 -99 -38 -153.5t-105 -54.5q-66 0 -104 54.5zM877.5 42.5q-38.5 54.5 -38.5 153.5q0 98 38.5 152t104.5 54q67 0 105 -54t38 -152q0 -99 -38 -153.5t-105 -54.5q-66 0 -104.5 54.5z
M695 69.5q27 45.5 27 126.5t-27 125.5t-73 44.5t-72.5 -44.5t-26.5 -125.5t26.5 -126.5t72.5 -45.5t73 45.5zM1054.5 69.5q26.5 45.5 26.5 126.5t-26.5 125.5t-72.5 44.5t-72.5 -44.5t-26.5 -125.5t26.5 -126.5t72.5 -45.5t72.5 45.5z" />
    <glyph glyph-name="uni0327.cap.001" horiz-adv-x="0" 
 />
    <glyph glyph-name="uni0327.cap.002" horiz-adv-x="0" 
 />
    <glyph glyph-name="uni0327.cap.003" horiz-adv-x="0" 
 />
    <glyph glyph-name="uni0327.cap.004" horiz-adv-x="0" 
 />
    <glyph glyph-name="uni0327.cap.005" horiz-adv-x="0" 
 />
    <glyph glyph-name="uni0308.cap" horiz-adv-x="0" 
d="M-127 733.5q-11 10.5 -11 28.5q0 17 11 28t28 11t28 -11t11 -28q0 -18 -11 -28.5t-28 -10.5t-28 10.5zM71 733.5q-11 10.5 -11 28.5q0 17 11 28t28 11t28 -11t11 -28q0 -18 -11 -28.5t-28 -10.5t-28 10.5z" />
    <glyph glyph-name="uni0307.cap" horiz-adv-x="0" 
d="M-30.5 732q-12.5 12 -12.5 31q0 18 12.5 30t30.5 12t30.5 -12t12.5 -30q0 -19 -12.5 -31t-30.5 -12t-30.5 12z" />
    <glyph glyph-name="gravecomb.cap" horiz-adv-x="0" 
d="M-117 818l33 37l127 -124l-23 -26z" />
    <glyph glyph-name="acutecomb.cap" horiz-adv-x="0" 
d="M-43 731l127 124l33 -37l-137 -113z" />
    <glyph glyph-name="uni030B.cap" horiz-adv-x="0" 
d="M-87 722l89 148l38 -22l-97 -141zM60 722l89 148l38 -22l-97 -141z" />
    <glyph glyph-name="uni0302.cap" horiz-adv-x="0" 
d="M-137 726l111 113h52l111 -113l-23 -20l-112 97h-4l-112 -97z" />
    <glyph glyph-name="uni030C.cap" horiz-adv-x="0" 
d="M-137 822l23 20l112 -97h4l112 97l23 -20l-111 -113h-52z" />
    <glyph glyph-name="uni0306.cap" horiz-adv-x="0" 
d="M-96.5 745.5q-34.5 36.5 -41.5 88.5l36 6q7 -41 32.5 -67.5t69.5 -26.5t69.5 26.5t32.5 67.5l36 -6q-7 -52 -41.5 -88.5t-96.5 -36.5t-96.5 36.5z" />
    <glyph glyph-name="uni030A.cap" horiz-adv-x="0" 
d="M-64 723q-25 24 -25 63t25 63t64 24q38 0 63.5 -24t25.5 -63q0 -38 -26 -62.5t-63 -24.5q-39 0 -64 24zM39 743q16 16 16 43t-16 43t-39 16q-24 0 -40.5 -16t-16.5 -43t16.5 -43t40.5 -16q23 0 39 16z" />
    <glyph glyph-name="tildecomb.cap" horiz-adv-x="0" 
d="M29 728.5q-20 11.5 -43 32.5q-19 17 -32 25t-30 8q-22 0 -36.5 -20t-17.5 -54l-37 3q2 50 26 81.5t64 31.5q28 0 48 -11.5t43 -32.5q18 -17 31.5 -25.5t30.5 -8.5q21 0 35 19.5t19 54.5l37 -2q-2 -50 -26 -81.5t-64 -31.5q-28 0 -48 11.5z" />
    <glyph glyph-name="uni0304.cap" horiz-adv-x="0" 
d="M-126 782h252v-40h-252v40z" />
    <glyph glyph-name="uni0327.cap" horiz-adv-x="0" 
 />
    <glyph glyph-name="alphalatin" horiz-adv-x="546" 
d="M105 54q-54 66 -54 186q0 75 29 132.5t78 89t106 31.5q41 0 73.5 -14t68.5 -44h2l4 46h44v-418q0 -30 20 -30q7 0 17 2l4 -42q-15 -5 -32 -5q-29 0 -42 18t-15 56h-2q-74 -74 -156 -74q-91 0 -145 66zM331.5 52q35.5 19 72.5 58v279q-35 32 -68 46t-68 14
q-45 0 -82.5 -27.5t-59 -75t-21.5 -106.5q0 -96 40.5 -151.5t113.5 -55.5q37 0 72.5 19z" />
    <glyph glyph-name="gammalatin" horiz-adv-x="440" 
d="M238 27q25 -71 34 -100.5t9 -56.5q0 -39 -14.5 -61.5t-44.5 -22.5t-45 22.5t-15 61.5q0 24 7.5 51t25.5 81l9 25h-13l-179 454h55l105 -283q7 -21 29 -76q4 -10 9 -22t10 -27h4l24 63l24 62l105 283h51l-176 -454h-14zM232 -188.5q2 17.5 2 58.5q0 40 -12 102
q-12 -63 -12 -102q0 -41 2 -58.5t10 -17.5t10 17.5z" />
    <glyph glyph-name="ismall" horiz-adv-x="316" 
d="M44 44h88v393h-88v44h228v-44h-88v-393h88v-44h-228v44z" />
    <glyph glyph-name="rsmall" horiz-adv-x="478" 
d="M380 0l-130 206h-108v-206h-52v481h157q174 0 174 -134q0 -59 -33 -93t-88 -44l138 -210h-58zM235 247q63 0 98 25.5t35 73.5q0 93 -133 93h-93v-192h93z" />
    <glyph glyph-name="rsmallinverted" horiz-adv-x="478" 
d="M388 481v-481h-157q-81 0 -127.5 32.5t-46.5 103.5q0 58 33 93t88 46l-138 206h58l130 -202h108v202h52zM336 238h-93q-63 0 -98 -26.5t-35 -74.5t34.5 -71t98.5 -23h93v195z" />
    <glyph glyph-name="upsilonlatin" horiz-adv-x="533" 
d="M152.5 19q-48.5 31 -74 82.5t-25.5 111.5q0 74 27 129.5t66 92.5v2h-105v44h172v-33q-49 -36 -78 -92.5t-29 -131.5q0 -52 19 -95.5t55 -69.5t87 -26q50 0 86.5 26t55 69.5t18.5 95.5q0 75 -28.5 131.5t-77.5 92.5v33h171v-44h-105v-2q39 -37 66 -92.5t27 -129.5
q0 -60 -25.5 -111.5t-74 -82.5t-113.5 -31q-66 0 -114.5 31z" />
    <glyph glyph-name="glottalstopreversedsupmod" horiz-adv-x="283" 
d="M134 598q-58 37 -87 73t-29 89q0 59 39 91.5t100 32.5q71 0 120 -57l-23 -27q-39 49 -95 49q-46 0 -72 -24.5t-26 -64.5q0 -44 27 -76t88 -65v-215h-42v194z" />
    <glyph glyph-name="litre" horiz-adv-x="380" 
d="M366 45q-57 -57 -119 -57q-61 0 -101 47t-40 132v6q-28 -22 -57 -42l-23 34q42 28 80 62v299q0 105 34.5 154.5t91.5 49.5q52 0 84 -38.5t32 -108.5q0 -92 -52 -188t-139 -178v-39q0 -75 26.5 -110t69.5 -35q28 0 48 11.5t42 32.5zM178.5 649.5q-21.5 -38.5 -21.5 -112.5
v-260q67 70 105 149t38 156q0 55 -18 80.5t-49 25.5q-33 0 -54.5 -38.5z" />
    <glyph glyph-name="ZWNJ" horiz-adv-x="0" 
d="M-104 792l78 83l-78 82l23 27l81 -84l79 82l24 -25l-79 -82l79 -83l-24 -24l-79 80l-81 -81z" />
    <glyph glyph-name="ZWJ" horiz-adv-x="0" 
d="M-150 894h301v-109h-34v73h-233v-73h-34v109z" />
    <glyph glyph-name="lefttorightembed" horiz-adv-x="0" 
d="M14 792l63 66h-76v36h76l-63 63l25 27l105 -109l-105 -108zM-129 894h88v-36h-88v36z" />
    <glyph glyph-name="righttoleftembed" horiz-adv-x="0" 
d="M-144 875l105 109l25 -26l-63 -64h76v-36h-75l62 -66l-25 -24zM41 894h88v-36h-88v36z" />
    <glyph glyph-name="popdirectionformat" horiz-adv-x="0" 
d="M-19 924l-60 -63l-25 26l104 107l104 -107l-25 -26l-62 64v-160h-36v159z" />
    <glyph glyph-name="circledotted" horiz-adv-x="589" 
d="M334 480q9 -9 9 -25q0 -15 -9 -24.5t-24 -9.5q-13 0 -22.5 9.5t-9.5 24.5q0 16 9.5 25t22.5 9q15 0 24 -9zM211 457.5q9 -8.5 9 -25.5q0 -15 -9 -24t-23 -9q-13 0 -22 9t-9 24q0 17 8.5 25.5t22.5 8.5t23 -8.5zM390 395.5q-9 9.5 -9 24.5q0 16 9 24.5t22 8.5
q14 0 23 -8.5t9 -24.5q0 -14 -8 -24q7 4 15 4q14 0 23 -9t9 -24q0 -16 -8.5 -25t-23.5 -9q-13 0 -22 9.5t-9 24.5q0 13 8 23q-7 -4 -16 -4q-13 0 -22 9.5zM133 376.5q9 -8.5 9 -24.5t-9 -25.5t-24 -9.5q-13 0 -22 9.5t-9 25.5t9 24.5t22 8.5q15 0 24 -8.5zM105.5 216
q-9.5 -9 -24.5 -9q-13 0 -21.5 9t-8.5 25t8.5 24.5t21.5 8.5q15 0 24.5 -8.5t9.5 -24.5t-9.5 -25zM529.5 265.5q9.5 -8.5 9.5 -24.5t-8.5 -25t-23.5 -9t-24 9t-9 25t9 24.5t24 8.5q13 0 22.5 -8.5zM133 156q9 -9 9 -25t-9 -25t-24 -9q-13 0 -22 9.5t-9 24.5q0 16 9 25t22 9
q15 0 24 -9zM502 156q9 -9 9 -25t-8.5 -25t-23.5 -9q-13 0 -22.5 9.5t-9.5 24.5q0 16 9.5 25t22.5 9q14 0 23 -9zM211 74q9 -8 9 -23q0 -17 -8.5 -26.5t-23.5 -9.5q-13 0 -22 9.5t-9 26.5q0 14 9 22.5t22 8.5q14 0 23 -8zM423 74q9 -8 9 -23q0 -17 -8.5 -26.5t-23.5 -9.5
q-13 0 -22 9.5t-9 26.5q0 14 9 22.5t22 8.5q14 0 23 -8zM318 46q9 -9 9 -24q0 -16 -9 -25t-24 -9q-13 0 -22 9t-9 25q0 15 9 24t22 9q15 0 24 -9z" />
    </font>
</defs>
</svg>
